<svg width="640" height="400" xmlns="http://www.w3.org/2000/svg"><defs><linearGradient x1="50%" y1="100%" x2="50%" y2="0%" id="a"><stop stop-color="gray" stop-opacity=".25" offset="0%"/><stop stop-color="gray" stop-opacity=".12" offset="54%"/><stop stop-color="gray" stop-opacity=".1" offset="100%"/></linearGradient><linearGradient x1="50.014%" y1="100.015%" x2="50.014%" y2=".002%" id="b"><stop stop-color="gray" stop-opacity=".25" offset="0%"/><stop stop-color="gray" stop-opacity=".12" offset="54%"/><stop stop-color="gray" stop-opacity=".1" offset="100%"/></linearGradient></defs><g fill="none" fill-rule="evenodd"><rect fill="#D6E2F3" fill-rule="nonzero" x="98.507" y="251.404" width="63.287" height="25.192" rx="8.84"/><rect fill="#D6E2F3" fill-rule="nonzero" x="161.794" y="251.404" width="63.287" height="25.192" rx="8.84"/><rect fill="#000" fill-rule="nonzero" opacity=".1" x="161.794" y="251.404" width="63.287" height="25.192" rx="8.84"/><rect fill="#D6E2F3" fill-rule="nonzero" x="225.081" y="251.404" width="63.287" height="25.192" rx="8.84"/><rect fill="#D6E2F3" fill-rule="nonzero" x="288.369" y="251.404" width="63.287" height="25.192" rx="8.84"/><rect fill="#000" fill-rule="nonzero" opacity=".1" x="288.369" y="251.404" width="63.287" height="25.192" rx="8.84"/><rect fill="#D6E2F3" fill-rule="nonzero" x="351.656" y="251.404" width="63.287" height="25.192" rx="8.84"/><rect fill="#D6E2F3" fill-rule="nonzero" x="414.943" y="251.404" width="63.287" height="25.192" rx="8.84"/><rect fill="#000" fill-rule="nonzero" opacity=".1" x="414.943" y="251.404" width="63.287" height="25.192" rx="8.84"/><rect fill="#D6E2F3" fill-rule="nonzero" transform="rotate(-180 446.587 238.808)" x="414.943" y="226.212" width="63.287" height="25.192" rx="8.84"/><rect fill="#D6E2F3" fill-rule="nonzero" transform="rotate(-180 383.3 238.808)" x="351.656" y="226.212" width="63.287" height="25.192" rx="8.84"/><rect fill="#000" fill-rule="nonzero" opacity=".1" transform="rotate(-180 383.3 238.808)" x="351.656" y="226.212" width="63.287" height="25.192" rx="8.84"/><rect fill="#D6E2F3" fill-rule="nonzero" transform="rotate(-180 320.012 238.808)" x="288.369" y="226.212" width="63.287" height="25.192" rx="8.84"/><rect fill="#D6E2F3" fill-rule="nonzero" transform="rotate(-180 256.725 238.808)" x="225.081" y="226.212" width="63.287" height="25.192" rx="8.84"/><rect fill="#000" fill-rule="nonzero" opacity=".1" transform="rotate(-180 256.725 238.808)" x="225.081" y="226.212" width="63.287" height="25.192" rx="8.84"/><rect fill="#D6E2F3" fill-rule="nonzero" transform="rotate(-180 193.438 238.808)" x="161.794" y="226.212" width="63.287" height="25.192" rx="8.84"/><rect fill="#D6E2F3" fill-rule="nonzero" transform="rotate(-180 130.15 238.808)" x="98.507" y="226.212" width="63.287" height="25.192" rx="8.84"/><rect fill="#000" fill-rule="nonzero" opacity=".1" transform="rotate(-180 130.15 238.808)" x="98.507" y="226.212" width="63.287" height="25.192" rx="8.84"/><rect fill="#D6E2F3" fill-rule="nonzero" x="98.507" y="201.02" width="63.287" height="25.192" rx="8.84"/><rect fill="#D6E2F3" fill-rule="nonzero" x="161.794" y="201.02" width="63.287" height="25.192" rx="8.84"/><rect fill="#000" fill-rule="nonzero" opacity=".1" x="161.794" y="201.02" width="63.287" height="25.192" rx="8.84"/><rect fill="#D6E2F3" fill-rule="nonzero" x="225.081" y="201.02" width="63.287" height="25.192" rx="8.84"/><rect fill="#D6E2F3" fill-rule="nonzero" x="288.369" y="201.02" width="63.287" height="25.192" rx="8.84"/><rect fill="#000" fill-rule="nonzero" opacity=".1" x="288.369" y="201.02" width="63.287" height="25.192" rx="8.84"/><rect fill="#D6E2F3" fill-rule="nonzero" x="351.656" y="201.02" width="63.287" height="25.192" rx="8.84"/><rect fill="#D6E2F3" fill-rule="nonzero" x="414.943" y="201.02" width="63.287" height="25.192" rx="8.84"/><rect fill="#000" fill-rule="nonzero" opacity=".1" x="414.943" y="201.02" width="63.287" height="25.192" rx="8.84"/><rect fill="#D6E2F3" fill-rule="nonzero" transform="rotate(-180 446.587 188.424)" x="414.943" y="175.828" width="63.287" height="25.192" rx="8.84"/><rect fill="#D6E2F3" fill-rule="nonzero" transform="rotate(-180 383.3 188.424)" x="351.656" y="175.828" width="63.287" height="25.192" rx="8.84"/><rect fill="#000" fill-rule="nonzero" opacity=".1" transform="rotate(-180 383.3 188.424)" x="351.656" y="175.828" width="63.287" height="25.192" rx="8.84"/><rect fill="#D6E2F3" fill-rule="nonzero" transform="rotate(-180 320.012 188.424)" x="288.369" y="175.828" width="63.287" height="25.192" rx="8.84"/><rect fill="#D6E2F3" fill-rule="nonzero" transform="rotate(-180 256.725 188.424)" x="225.081" y="175.828" width="63.287" height="25.192" rx="8.84"/><rect fill="#000" fill-rule="nonzero" opacity=".1" transform="rotate(-180 256.725 188.424)" x="225.081" y="175.828" width="63.287" height="25.192" rx="8.84"/><rect fill="#D6E2F3" fill-rule="nonzero" transform="rotate(-180 193.438 188.424)" x="161.794" y="175.828" width="63.287" height="25.192" rx="8.84"/><rect fill="#D6E2F3" fill-rule="nonzero" transform="rotate(-180 130.15 188.424)" x="98.507" y="175.828" width="63.287" height="25.192" rx="8.84"/><rect fill="#000" fill-rule="nonzero" opacity=".1" transform="rotate(-180 130.15 188.424)" x="98.507" y="175.828" width="63.287" height="25.192" rx="8.84"/><rect fill="#D6E2F3" fill-rule="nonzero" x="98.507" y="151.865" width="63.287" height="25.192" rx="8.84"/><rect fill="#D6E2F3" fill-rule="nonzero" x="161.794" y="151.865" width="63.287" height="25.192" rx="8.84"/><rect fill="#000" fill-rule="nonzero" opacity=".1" x="161.794" y="151.865" width="63.287" height="25.192" rx="8.84"/><rect fill="#D6E2F3" fill-rule="nonzero" x="225.081" y="151.865" width="63.287" height="25.192" rx="8.84"/><rect fill="#D6E2F3" fill-rule="nonzero" x="288.369" y="151.865" width="63.287" height="25.192" rx="8.84"/><rect fill="#000" fill-rule="nonzero" opacity=".1" x="288.369" y="151.865" width="63.287" height="25.192" rx="8.84"/><rect fill="#D6E2F3" fill-rule="nonzero" x="351.656" y="151.865" width="63.287" height="25.192" rx="8.84"/><rect fill="#D6E2F3" fill-rule="nonzero" x="414.943" y="151.865" width="63.287" height="25.192" rx="8.84"/><rect fill="#000" fill-rule="nonzero" opacity=".1" x="414.943" y="151.865" width="63.287" height="25.192" rx="8.84"/><rect fill="#D6E2F3" fill-rule="nonzero" transform="rotate(-180 446.587 139.269)" x="414.943" y="126.673" width="63.287" height="25.192" rx="8.84"/><rect fill="#D6E2F3" fill-rule="nonzero" transform="rotate(-180 383.3 139.269)" x="351.656" y="126.673" width="63.287" height="25.192" rx="8.84"/><rect fill="#000" fill-rule="nonzero" opacity=".1" transform="rotate(-180 383.3 139.269)" x="351.656" y="126.673" width="63.287" height="25.192" rx="8.84"/><rect fill="#D6E2F3" fill-rule="nonzero" transform="rotate(-180 320.012 139.269)" x="288.369" y="126.673" width="63.287" height="25.192" rx="8.84"/><rect fill="#D6E2F3" fill-rule="nonzero" transform="rotate(-180 256.725 139.269)" x="225.081" y="126.673" width="63.287" height="25.192" rx="8.84"/><rect fill="#000" fill-rule="nonzero" opacity=".1" transform="rotate(-180 256.725 139.269)" x="225.081" y="126.673" width="63.287" height="25.192" rx="8.84"/><rect fill="#D6E2F3" fill-rule="nonzero" transform="rotate(-180 193.438 139.269)" x="161.794" y="126.673" width="63.287" height="25.192" rx="8.84"/><rect fill="#D6E2F3" fill-rule="nonzero" transform="rotate(-180 130.15 139.269)" x="98.507" y="126.673" width="63.287" height="25.192" rx="8.84"/><rect fill="#000" fill-rule="nonzero" opacity=".1" transform="rotate(-180 130.15 139.269)" x="98.507" y="126.673" width="63.287" height="25.192" rx="8.84"/><rect fill="#D6E2F3" fill-rule="nonzero" x="98.507" y="101.481" width="63.287" height="25.192" rx="8.84"/><rect fill="#D6E2F3" fill-rule="nonzero" x="161.794" y="101.481" width="63.287" height="25.192" rx="8.84"/><rect fill="#000" fill-rule="nonzero" opacity=".1" x="161.794" y="101.481" width="63.287" height="25.192" rx="8.84"/><rect fill="#D6E2F3" fill-rule="nonzero" x="225.081" y="101.481" width="63.287" height="25.192" rx="8.84"/><rect fill="#D6E2F3" fill-rule="nonzero" x="288.369" y="101.481" width="63.287" height="25.192" rx="8.84"/><rect fill="#000" fill-rule="nonzero" opacity=".1" x="288.369" y="101.481" width="63.287" height="25.192" rx="8.84"/><rect fill="#D6E2F3" fill-rule="nonzero" x="351.656" y="101.481" width="63.287" height="25.192" rx="8.84"/><rect fill="#D6E2F3" fill-rule="nonzero" x="414.943" y="101.481" width="63.287" height="25.192" rx="8.84"/><rect fill="#000" fill-rule="nonzero" opacity=".1" x="414.943" y="101.481" width="63.287" height="25.192" rx="8.84"/><rect fill="url(#a)" fill-rule="nonzero" x="410.028" y="17.555" width="68.203" height="27.146" rx="8.84"/><rect fill="#D6E2F3" fill-rule="nonzero" transform="rotate(-180 444.129 31.127)" x="412.485" y="18.531" width="63.287" height="25.192" rx="8.84"/><rect fill="#D6E2F3" fill-rule="nonzero" transform="rotate(-180 383.3 88.885)" x="351.656" y="76.289" width="63.287" height="25.192" rx="8.84"/><rect fill="#000" fill-rule="nonzero" opacity=".1" transform="rotate(-180 383.3 88.885)" x="351.656" y="76.289" width="63.287" height="25.192" rx="8.84"/><rect fill="#D6E2F3" fill-rule="nonzero" transform="rotate(-180 320.012 88.885)" x="288.369" y="76.289" width="63.287" height="25.192" rx="8.84"/><rect fill="#D6E2F3" fill-rule="nonzero" transform="rotate(-180 256.725 88.885)" x="225.081" y="76.289" width="63.287" height="25.192" rx="8.84"/><rect fill="#000" fill-rule="nonzero" opacity=".1" transform="rotate(-180 256.725 88.885)" x="225.081" y="76.289" width="63.287" height="25.192" rx="8.84"/><rect fill="#D6E2F3" fill-rule="nonzero" transform="rotate(-180 193.438 88.885)" x="161.794" y="76.289" width="63.287" height="25.192" rx="8.84"/><rect fill="#D6E2F3" fill-rule="nonzero" transform="rotate(-180 130.15 88.885)" x="98.507" y="76.289" width="63.287" height="25.192" rx="8.84"/><rect fill="#000" fill-rule="nonzero" opacity=".1" transform="rotate(-180 130.15 88.885)" x="98.507" y="76.289" width="63.287" height="25.192" rx="8.84"/><ellipse fill="#F5F5F5" fill-rule="nonzero" cx="306.605" cy="329.745" rx="306.605" ry="69.739"/><path d="M70.015 298.445s5.53-18.685-1.032-32.442a29.493 29.493 0 0 1-2.39-18.52 49.64 49.64 0 0 1 2.624-8.693" stroke="#535461" stroke-width="2"/><path d="M65.149 230.101c0 2.292 4.147 8.934 4.147 8.934s4.148-6.642 4.148-8.934a4.147 4.147 0 0 0-8.295 0zm-6.857 12.689c1.229 1.923 8.338 5.24 8.338 5.24s-.13-7.827-1.377-9.75a4.147 4.147 0 0 0-6.961 4.51zm.301 21.677c2.046 1.032 9.831.32 9.831.32s-4.061-6.692-6.108-7.724a4.147 4.147 0 0 0-3.735 7.404h.012zm3.92 16.35c1.843 1.364 9.647 1.979 9.647 1.979s-2.876-7.281-4.713-8.645a4.147 4.147 0 0 0-4.916 6.666h-.018zm12.823-32.344c-1.64 1.598-9.296 3.25-9.296 3.25s1.874-7.6 3.515-9.216a4.147 4.147 0 0 1 5.781 5.948v.018zm4.344 19.164c-2.046 1.033-9.83.32-9.83.32s4.06-6.691 6.107-7.724a4.147 4.147 0 0 1 3.723 7.404zm1.66 19.245c-1.844 1.364-9.647 1.978-9.647 1.978s2.875-7.28 4.713-8.645a4.147 4.147 0 0 1 4.915 6.667h.018zm285.468-94.329s20.209 20.209 8.799 50.194c-11.41 29.984 19.557 79.877 19.557 79.877s-.331-.05-.946-.16c-41.505-7.355-62.126-54.827-39.047-90.083 8.577-13.112 15.625-28.485 11.637-39.828z" fill="#D6E2F3" fill-rule="nonzero"/><path d="M366.808 192.553s20.209 20.209 8.799 50.194c-11.41 29.984 19.557 79.877 19.557 79.877s-.331-.05-.946-.16c-41.505-7.355-62.126-54.827-39.047-90.083 8.577-13.112 15.625-28.485 11.637-39.828z" fill="#000" fill-rule="nonzero" opacity=".2"/><path d="M366.808 192.553s11.41 24.768 0 44.977c-11.41 20.209-1.954 76.915 28.375 85.063" stroke="#535461"/><path d="M330.82 274.28s23.06-3.687 25.162 16.995c2.1 20.682 44.338 23.527 44.338 23.527l-.793.528c-34.876 22.894-68.203 14.58-63.19-15.815 1.869-11.3 1.703-22.66-5.517-25.235z" fill="#D6E2F3" fill-rule="nonzero"/><path d="M330.82 274.28s23.06-3.687 25.162 16.995c2.1 20.682 44.338 23.527 44.338 23.527l-.793.528c-34.876 22.894-68.203 14.58-63.19-15.815 1.869-11.3 1.703-22.66-5.517-25.235z" fill="#F5F5F5" fill-rule="nonzero" opacity=".2"/><path d="M330.82 274.28s17.899 3.926 16.43 20.202c-1.468 16.277 26.581 35.785 53.07 20.32" stroke="#535461"/><path d="M506.255 321.85s-34.224-6.845-43.355-15.976c-9.13-9.13-50.2-25.1-54.765-13.69-4.565 11.41-61.604 50.206-22.783 57.051 38.82 6.845 91.269 9.124 102.679 4.565 11.41-4.559 18.224-31.95 18.224-31.95z" fill="#A8A8A8" fill-rule="nonzero"/><path d="M385.352 344.995c38.79 6.845 91.269 9.125 102.679 4.566 8.688-3.478 14.746-20.172 17.112-27.945l1.143.24s-6.845 27.379-18.255 31.95c-11.41 4.572-63.902 2.28-102.68-4.565-11.194-1.978-14.396-6.617-13.191-12.491.903 3.828 4.83 6.77 13.192 8.245z" fill="#000" fill-rule="nonzero" opacity=".2"/><path d="M575.502 17.923a10.052 10.052 0 0 0-2.832-3.926c-9.186-8.369-24.037-5.831-35.441-10.95-2.63-1.18-5.321-2.814-8.172-2.365-3.982.614-7.687 5.161-11.158 3.146l.245.756-.245-.13 2.556 7.78c.983 2.986 2.015 6.058 3.92 8.546a22.378 22.378 0 0 0 5.413 37.223c.123.258.24.522.356.787l.326.135a26.126 26.126 0 0 1 1.684 5.42c-2.956.41-8.111 3.686-13.174 8.503l-10.126-.338a33.143 33.143 0 0 1-18.212-6.194l-30.329-21.781a10.144 10.144 0 0 0-5.806 2.568c-3.76-3.92-6.956-7.988-6.685-10.446 0 0-14.095-26.377-19.22-13.192-5.124 13.186 9.61 27.036 9.61 27.036l9.346 12.11a50.943 50.943 0 0 0-.7 6.421c11.532 13.192 51.889 25.125 51.889 25.125l6.291.307.037.307a21.425 21.425 0 0 0-.565 5.039v1.259c.32 21.039 3.201 85.407 3.201 85.407.56-.252 1.143-.48 1.733-.694l-.449 5.72s-26.906 3.767-46.765 11.306c-19.858 7.54-20.497 16.332-20.497 16.332v77.579c-5.672 2.912-14.624 6.759-19.22 4.688-4.99-2.224-7.723-.356-8.221 1.591a2.458 2.458 0 0 0 0 1.174c.042.173.106.34.19.498v.037c.092.162.206.311.338.442 1.923 1.886 43.564 18.212 53.174 15.699.297-.078.589-.177.872-.295.093-.037.172-.086.265-.129.092-.043.356-.166.522-.264.166-.099.19-.13.282-.19.093-.062.29-.191.424-.296.136-.104.179-.16.265-.24.086-.08.252-.214.362-.337.11-.123.16-.185.24-.277.08-.092.221-.245.32-.38.098-.136.134-.203.208-.302a5.256 5.256 0 0 0 .455-.75c.055-.11.172-.313.252-.479.08-.166.098-.215.141-.325.043-.11.154-.35.221-.529.068-.178.074-.215.117-.325.043-.111.135-.387.19-.615 0-.104.056-.209.087-.313.055-.215.116-.424.165-.615 0-.098.043-.196.062-.295.05-.233.098-.467.135-.7 0-.086 0-.178.043-.264.043-.252.08-.51.11-.762v-.221c.031-.277.062-.553.087-.83v-.172c.024-.299.043-.598.055-.897v-1.143a52.59 52.59 0 0 0-1.229-11.14l2.415-66.07a360.424 360.424 0 0 0 37.702-1.389l1.376 31.533s0 20.725 7.048 30.145c6.034 8.061 13.001 43.717 14.882 53.837-2.587 4.915-7.54 11.06-16.166 10.85 0 0-16.228-1.4-15.312 3.073.026.117.06.232.104.344.051.129.111.254.179.375.067.117.14.233.227.356l.049.074c.092.129.197.264.313.405v.031c.111.13.228.258.357.387l.11.11c.148.148.295.296.467.45 8.326 7.539 57.014 8.792 57.014 8.792v-.35c0-2.181-.32-13.622-3.232-22.237h.676s-7.048-63.434-12.811-70.967c0 0-1.53-33.45 1.923-54.41l.615-.233c16.147-6.033 17.296-20.89 15.631-31.803 3.072.983 4.866 1.653 4.866 1.653s-.055-.473-.16-1.315l.16.061s-.307-1.996-.817-5.106c-1.155-8.559-3.392-23.514-5.776-30.574-.387-1.555-.755-2.882-1.093-3.883a66.396 66.396 0 0 1-2.82-13.045 154.624 154.624 0 0 1-.99-17.302c.053-7.725.644-15.437 1.77-23.079.977-6.673 1.843-14.267 1.782-19.57a26.095 26.095 0 0 0-.387-5.53c-.855-3.914-4.633-6.457-8.56-8.08-.252-.104-.51-.19-.768-.288.099-1.481.222-3.165.381-4.916.951.659 2.13.899 3.263.664 1.69-.369 2.9-1.776 3.975-3.072 5.678-6.974 11.509-14.243 13.69-22.907a49.487 49.487 0 0 0 1.229-11.797v-.651a12.83 12.83 0 0 0-.455-4.406z" fill="url(#b)" fill-rule="nonzero"/><path d="M523.81 51.92s8.602 12.903 6.758 19.048c-1.843 6.144 20.277 2.457 20.277 2.457s.614-23.963 4.915-29.493c4.301-5.53-31.95 7.988-31.95 7.988zm-56.836 8.295S449.155 45.47 449.77 39.94c0 0-13.518-25.807-18.434-12.904-4.915 12.904 9.217 26.421 9.217 26.421l17.204 22.734 9.217-15.975z" fill="#F7C4A7" fill-rule="nonzero"/><path d="M448.848 291.551s-16.59 10.446-23.349 7.374-9.216 1.843-7.373 3.686c1.843 1.844 41.782 17.82 50.998 15.361 9.217-2.457 4.529-22.586 4.529-22.586l-24.805-3.835zm87.865 44.855s-3.994 16.897-17.819 16.59c0 0-20.89-1.844-12.903 5.53 7.987 7.373 54.685 8.601 54.685 8.601s0-25.192-8.602-30.721c-8.602-5.53-15.361 0-15.361 0z" fill="#535461" fill-rule="nonzero"/><path d="M511.52 217.204l1.844 43.011s0 20.277 6.759 29.493c6.759 9.217 14.746 55.3 14.746 55.3h23.35s-6.76-62.059-12.29-69.432c0 0-2.457-54.685 6.145-66.974l-40.553 8.602z" fill="#575988" fill-rule="nonzero"/><path d="M511.52 217.204l1.844 43.011s0 20.277 6.759 29.493c6.759 9.217 14.746 55.3 14.746 55.3h23.35s-6.76-62.059-12.29-69.432c0 0-2.457-54.685 6.145-66.974l-40.553 8.602z" fill="#000" fill-rule="nonzero" opacity=".1"/><path d="M560.061 178.495s14.133 33.794-11.674 43.625c-25.806 9.83-72.504 8.602-72.504 8.602l-2.458 71.275s-28.878 3.687-29.493-5.53v-78.034s.615-8.602 19.662-15.975c19.048-7.374 44.855-11.06 44.855-11.06l1.228-15.976 50.384 3.073z" fill="#575988" fill-rule="nonzero"/><path d="M537.42 67.164a29.4 29.4 0 0 1 14.439 2.04c3.766 1.586 7.373 4.074 8.209 7.902.97 4.535-.105 14.704-1.34 23.312a160.54 160.54 0 0 0-.75 40.731c.615 5.647 1.506 10.568 2.704 12.762 3.687 6.759 7.373 38.71 7.373 38.71s-40.553-15.361-60.83-6.145c0 0-2.764-62.98-3.071-83.564-.24-15.938 19.969-34.1 26.728-34.715 3.957-.357 2.599-.621 6.537-1.033z" fill="#000" fill-rule="nonzero" opacity=".1"/><path d="M537.42 65.935a29.4 29.4 0 0 1 14.439 2.04c3.766 1.586 7.373 4.074 8.209 7.902.97 4.535-.105 14.704-1.34 23.312a160.54 160.54 0 0 0-.75 40.731 66.07 66.07 0 0 0 2.704 12.762c2.765 8.295 7.373 38.71 7.373 38.71s-40.553-15.361-60.83-6.145c0 0-2.764-62.98-3.071-83.563-.24-15.939 19.969-34.102 26.728-34.716 3.957-.357 2.599-.62 6.537-1.033z" fill="#E14B5A" fill-rule="nonzero"/><path d="M548.387 99.846l-43.625-2.457S501.985 76 508.282 76.22l43.177 1.506s9.217 11.06-3.072 22.12z" fill="#000" fill-rule="nonzero" opacity=".1"/><path d="M548.387 98.618l-49.77-2.458s-38.71-11.675-49.77-24.578c0 0 .615-22.734 12.904-23.963l29.07 21.315a31.386 31.386 0 0 0 17.462 6.058l43.176 1.506s9.217 11.06-3.072 22.12z" fill="#E14B5A" fill-rule="nonzero"/><path d="M550.538 54.685c.73-5.825 3.373-7.76 5.222-10.138 4.301-5.53-31.95 7.988-31.95 7.988a65.18 65.18 0 0 1 4.915 9.038 22.028 22.028 0 0 0 9.217 2.021c5.32 0 8.774-5.757 12.596-8.909z" fill="#000" fill-rule="nonzero" opacity=".1"/><circle fill="#F7C4A7" fill-rule="nonzero" cx="537.942" cy="40.86" r="22.12"/><path d="M523.975 25.358c-2.353-2.575-3.49-6.003-4.559-9.327l-2.457-7.613c3.33 1.966 6.881-2.458 10.703-3.072 2.734-.437 5.321 1.16 7.84 2.31 10.937 5.001 25.192 2.52 33.991 10.71a9.831 9.831 0 0 1 2.716 3.84c.406 1.395.572 2.85.491 4.3a49.352 49.352 0 0 1-1.149 11.54c-2.089 8.473-7.68 15.588-13.13 22.409-1.032 1.296-2.194 2.672-3.816 3.035-3.164.707-5.61-2.71-6.832-5.708a60.768 60.768 0 0 1-3.564-12.332c-.32-1.788-.572-3.631-1.462-5.21-1.905-3.374-6.6-6.569-9.45-9.186-2.852-2.618-6.704-2.839-9.322-5.696z" fill="#000" fill-rule="nonzero" opacity=".1"/><path d="M523.975 24.743c-2.353-2.574-3.49-6.003-4.559-9.327l-2.457-7.613c3.33 1.967 6.881-2.457 10.703-3.072 2.734-.436 5.321 1.161 7.84 2.31 10.937 5.002 25.192 2.52 33.991 10.71a9.831 9.831 0 0 1 2.716 3.84c.406 1.396.572 2.85.491 4.301a49.352 49.352 0 0 1-1.149 11.54c-2.089 8.473-7.68 15.588-13.13 22.408-1.032 1.297-2.194 2.673-3.816 3.036-3.164.706-5.61-2.71-6.832-5.709a60.768 60.768 0 0 1-3.564-12.331c-.32-1.788-.572-3.632-1.462-5.21-1.905-3.374-6.6-6.57-9.45-9.187-2.852-2.617-6.704-2.838-9.322-5.696z" fill="#632652" fill-rule="nonzero"/><ellipse fill="#F7C4A7" fill-rule="nonzero" cx="543.779" cy="43.318" rx="1.843" ry="3.994"/><path d="M554.839 149.923s-1.23 3.687-7.374 3.072c-6.144-.614-23.963-1.843-23.963 0" fill="#000" fill-rule="nonzero" opacity=".1"/><path d="M505.99 357.91c-1.105-1.02-1.658-1.842-1.787-2.561-.16.798.332 1.843 1.788 3.176 7.987 7.374 54.685 8.602 54.685 8.602v-.614c-.301-.006-46.722-1.253-54.685-8.602zm-36.866-41.167c-9.216 2.458-49.155-13.517-50.998-15.36a1.997 1.997 0 0 1-.51-.898 2.212 2.212 0 0 0 .51 2.126c1.843 1.844 41.782 17.82 50.998 15.361 4.744-1.265 5.8-7.207 5.715-12.682-.092 5.1-1.327 10.274-5.715 11.453z" fill="#FFF" fill-rule="nonzero" opacity=".5"/><path d="M308.504 310.132a.922.922 0 1 0 0-1.843.922.922 0 0 0 0 1.843z" fill="#67647E" fill-rule="nonzero"/><path d="M56.215 293.831s22.93-.707 29.837-5.628c6.907-4.922 35.269-10.796 36.983-2.907 1.715 7.89 34.464 39.25 8.553 39.484-25.91.234-60.147-4.03-67.047-8.233-6.9-4.203-8.326-22.716-8.326-22.716z" fill="#A8A8A8" fill-rule="nonzero"/><path d="M132.074 322.01c-25.887.208-60.148-4.032-67.048-8.234-5.253-3.201-7.373-14.68-8.043-19.976h-.768s1.45 18.495 8.35 22.692c6.9 4.196 41.162 8.473 67.023 8.288 7.472-.061 10.053-2.715 9.911-6.654-1.014 2.353-3.865 3.84-9.425 3.883z" fill="#000" fill-rule="nonzero" opacity=".2"/><rect fill="#D6E2F3" fill-rule="nonzero" transform="rotate(-180 607.57 340.19)" x="575.926" y="327.594" width="63.287" height="25.192" rx="8.84"/><rect fill="#000" fill-rule="nonzero" opacity=".1" transform="rotate(-180 607.57 340.19)" x="575.926" y="327.594" width="63.287" height="25.192" rx="8.84"/><rect fill="#D6E2F3" fill-rule="nonzero" x="575.926" y="303.631" width="63.287" height="25.192" rx="8.84"/><rect fill="#D6E2F3" fill-rule="nonzero" transform="rotate(-180 607.57 291.035)" x="575.926" y="278.439" width="63.287" height="25.192" rx="8.84"/><rect fill="#000" fill-rule="nonzero" opacity=".1" transform="rotate(-180 607.57 291.035)" x="575.926" y="278.439" width="63.287" height="25.192" rx="8.84"/><rect fill="#D6E2F3" fill-rule="nonzero" x="575.926" y="253.247" width="63.287" height="25.192" rx="8.84"/></g></svg>