<svg width="400" height="320" xmlns="http://www.w3.org/2000/svg"><defs><linearGradient x1="50%" y1="100%" x2="50%" y2="0%" id="a"><stop stop-color="gray" stop-opacity=".25" offset="0%"/><stop stop-color="gray" stop-opacity=".12" offset="54%"/><stop stop-color="gray" stop-opacity=".1" offset="100%"/></linearGradient><linearGradient x1="49.929%" y1="100.071%" x2="49.929%" y2=".071%" id="b"><stop stop-color="gray" stop-opacity=".25" offset="0%"/><stop stop-color="gray" stop-opacity=".12" offset="54%"/><stop stop-color="gray" stop-opacity=".1" offset="100%"/></linearGradient><linearGradient x1="20%" y1="26.645%" x2="20%" y2=".645%" id="c"><stop stop-color="gray" stop-opacity=".25" offset="0%"/><stop stop-color="gray" stop-opacity=".12" offset="54%"/><stop stop-color="gray" stop-opacity=".1" offset="100%"/></linearGradient><linearGradient x1="50.035%" y1="100.017%" x2="50.035%" y2="-.001%" id="d"><stop stop-color="gray" stop-opacity=".25" offset="0%"/><stop stop-color="gray" stop-opacity=".12" offset="54%"/><stop stop-color="gray" stop-opacity=".1" offset="100%"/></linearGradient><linearGradient x1="23.8%" y1="31.228%" x2="23.8%" y2=".228%" id="e"><stop stop-color="gray" stop-opacity=".25" offset="0%"/><stop stop-color="gray" stop-opacity=".12" offset="54%"/><stop stop-color="gray" stop-opacity=".1" offset="100%"/></linearGradient><linearGradient x1="50.014%" y1="100%" x2="50.014%" y2="-.004%" id="f"><stop stop-color="gray" stop-opacity=".25" offset="0%"/><stop stop-color="gray" stop-opacity=".12" offset="54%"/><stop stop-color="gray" stop-opacity=".1" offset="100%"/></linearGradient><linearGradient x1="50%" y1="100%" x2="50%" y2="0%" id="g"><stop stop-color="gray" stop-opacity=".25" offset="0%"/><stop stop-color="gray" stop-opacity=".12" offset="54%"/><stop stop-color="gray" stop-opacity=".1" offset="100%"/></linearGradient><linearGradient x1="50.027%" y1="99.999%" x2="50.027%" y2=".006%" id="h"><stop stop-color="gray" stop-opacity=".25" offset="0%"/><stop stop-color="gray" stop-opacity=".12" offset="54%"/><stop stop-color="gray" stop-opacity=".1" offset="100%"/></linearGradient><linearGradient x1="50%" y1="0%" x2="50%" y2="0%" id="i"><stop stop-color="gray" stop-opacity=".25" offset="0%"/><stop stop-color="gray" stop-opacity=".12" offset="54%"/><stop stop-color="gray" stop-opacity=".1" offset="100%"/></linearGradient><linearGradient x1=".017%" y1="49.986%" x2="100%" y2="49.986%" id="j"><stop stop-color="gray" stop-opacity=".25" offset="0%"/><stop stop-color="gray" stop-opacity=".12" offset="54%"/><stop stop-color="gray" stop-opacity=".1" offset="100%"/></linearGradient></defs><g fill="none" fill-rule="evenodd"><ellipse fill="#F2F2F2" fill-rule="nonzero" cx="166.105" cy="311.582" rx="30.079" ry="7.632"/><ellipse fill="#F2F2F2" fill-rule="nonzero" cx="168.35" cy="227.183" rx="30.079" ry="7.632"/><ellipse fill="#F2F2F2" fill-rule="nonzero" cx="30.079" cy="230.774" rx="30.079" ry="7.632"/><path fill="#F5F5F5" fill-rule="nonzero" d="M10.155 1.796h171.942v6.51H10.155z"/><path fill="url(#a)" fill-rule="nonzero" d="M7.012 0H184.79v218.182H7.012z"/><path fill="#FFF" fill-rule="nonzero" d="M10.155 8.305h171.942V214.59H10.155z"/><circle fill="#FF5252" fill-rule="nonzero" cx="13.692" cy="5.163" r="1.571"/><circle fill="#FF0" fill-rule="nonzero" cx="18.011" cy="5.163" r="1.571"/><circle fill="#69F0AE" fill-rule="nonzero" cx="22.334" cy="5.163" r="1.571"/><path d="M15.093 16.162h66.89v4.04h-66.89z" opacity=".2" fill="#D6E2F3" fill-rule="nonzero"/><path fill="#F5F5F5" fill-rule="nonzero" d="M62.68 32.772h66.891v4.04H62.68z"/><path fill="#D6E2F3" fill-rule="nonzero" opacity=".5" d="M15.093 162.963h66.891v4.04H15.093z"/><path fill="url(#a)" fill-rule="nonzero" d="M90.963 162.514h22.447v4.938H90.963zm0 25.14h22.447v4.938H90.963zm45.791 0h22.447v4.938h-22.447z"/><path fill="#D6E2F3" fill-rule="nonzero" d="M91.861 162.963h21.1v4.04h-21.1zm0 25.14h21.1v4.04h-21.1zm45.342 0h21.1v4.04h-21.1z"/><path fill="#F5F5F5" fill-rule="nonzero" d="M15.093 175.533h66.891v4.04H15.093z"/><path fill="#D6E2F3" fill-rule="nonzero" opacity=".5" d="M91.861 175.533h66.891v4.04H91.861z"/><path fill="#F5F5F5" fill-rule="nonzero" d="M91.861 200.673h66.891v4.04H91.861z"/><path fill="#D6E2F3" fill-rule="nonzero" opacity=".5" d="M15.093 188.103h66.891v4.04H15.093z"/><path fill="#F5F5F5" fill-rule="nonzero" d="M15.093 200.673h66.891v4.04H15.093zM62.68 39.506h37.71v4.04H62.68zm44.445 0h13.019v4.04h-13.019zM62.68 52.974h37.71v4.04H62.68zm44.445 0h13.019v4.04h-13.019zM62.68 46.24h66.891v4.04H62.68z"/><path d="M109.369 16.162h66.89v4.04h-66.89z" opacity=".2" fill="#D6E2F3" fill-rule="nonzero"/><path fill="url(#a)" fill-rule="nonzero" d="M147.08 32.323h8.081v4.938h-8.081zm0 6.734h8.081v4.938h-8.081zm0 6.734h8.081v4.938h-8.081z"/><path fill="#FF5252" fill-rule="nonzero" d="M147.529 32.772h7.183v4.04h-7.183z"/><path fill="#FF9800" fill-rule="nonzero" d="M147.529 39.506h7.183v4.04h-7.183z"/><path fill="#69F0AE" fill-rule="nonzero" d="M147.529 46.24h7.183v4.04h-7.183z"/><path fill="url(#a)" fill-rule="nonzero" d="M147.08 52.525h8.081v4.938h-8.081z"/><path fill="#D6E2F3" fill-rule="nonzero" d="M147.529 52.974h7.183v4.04h-7.183z"/><path fill="url(#a)" fill-rule="nonzero" d="M13.746 81.706h164.759v67.34H13.746z"/><path fill="#D6E2F3" fill-rule="nonzero" opacity=".5" d="M15.093 83.053H176.26v63.749H15.093z"/><path fill="#FFF" fill-rule="nonzero" opacity=".5" d="M20.031 87.991h156.23v-4.938H15.092V146.8h4.938z"/><path fill="url(#a)" fill-rule="nonzero" transform="rotate(-5.2 100.384 118.981)" d="M17.331 84.862h166.105V153.1H17.331z"/><path fill="#FFF" fill-rule="nonzero" d="M17.424 94.069l160.503-14.607 5.778 63.486-160.503 14.607z"/><path d="M29.405 146.168l-2.783-35.362s14.366-15.264 43.367-3.95c29 11.312 42.675 3.326 47.39-4.315 4.713-7.64 29.18-16.162 37.108-3.38 7.928 12.78 17.437-1.59 17.437-1.59l3.214 35.318-145.733 13.28z" fill="#D6E2F3" fill-rule="nonzero" opacity=".5"/><path d="M44.009 103.102l.27 2.685" stroke="#D6E2F3"/><path d="M44.723 110.932l2.577 28.31" stroke="#D6E2F3" stroke-dasharray="11.51"/><path d="M47.533 141.814l.275 2.68m23.806-37.01l.275 2.68" stroke="#D6E2F3"/><path d="M72.39 116.004l1.864 20.431" stroke="#D6E2F3" stroke-dasharray="13.06"/><path d="M74.519 139.354l.27 2.684m24.991-29.76l.3 2.68" stroke="#D6E2F3"/><path d="M100.485 119.336l1.517 15.308" stroke="#D6E2F3" stroke-dasharray="9.79"/><path d="M102.222 136.83l.295 2.685m22.578-43.066l.27 2.685" stroke="#D6E2F3"/><path d="M125.796 104.175l2.527 27.74" stroke="#D6E2F3" stroke-dasharray="11.28"/><path d="M128.552 134.433l.275 2.685m14.54-44.373l.27 2.68" stroke="#D6E2F3"/><path d="M144.094 100.759l2.671 29.329" stroke="#D6E2F3" stroke-dasharray="11.93"/><path d="M147.008 132.754l.275 2.68" stroke="#D6E2F3"/><circle fill="#FF9800" fill-rule="nonzero" transform="rotate(-5.2 43.925 102.93)" cx="43.925" cy="102.93" r="2.245"/><circle fill="#FF5252" fill-rule="nonzero" transform="rotate(-5.2 71.4 107.643)" cx="71.399" cy="107.643" r="2.245"/><circle fill="#69F0AE" fill-rule="nonzero" transform="rotate(-5.2 99.774 112.272)" cx="99.774" cy="112.272" r="2.245"/><circle fill="url(#b)" fill-rule="nonzero" transform="rotate(-5.2 124.93 96.458)" cx="124.93" cy="96.458" r="3.143"/><circle fill="url(#a)" fill-rule="nonzero" transform="rotate(-5.2 143.545 92.963)" cx="143.545" cy="92.963" r="3.143"/><circle fill="#D6E2F3" fill-rule="nonzero" transform="rotate(-5.2 124.93 96.458)" cx="124.93" cy="96.458" r="2.245"/><circle fill="#D6E2F3" fill-rule="nonzero" transform="rotate(-5.2 143.545 92.963)" cx="143.545" cy="92.963" r="2.245"/><circle fill="#69F0AE" fill-rule="nonzero" transform="rotate(-5.2 171.995 98.487)" cx="171.995" cy="98.487" r="2.245"/><path d="M.117.326L.152.44C.537.226.117.326.117.326z" opacity=".2" transform="translate(176.431 142.76)" fill="url(#c)" fill-rule="nonzero"/><path d="M27.376 77.53l7.309-1.18-1.006-4.49v-.062h-.027l-5.18-23.794v-17.35a6.301 6.301 0 0 0-.037-.66c7.74-10.263 3.143-26.367 2.694-27.772-.08.04-.202.094-.373.162A9.455 9.455 0 0 0 30.402.53s-2.245-1.428-3.47.408c-1.069 1.603-.274 2.582-.054 2.81l-.153.05c.344.54.585 1.14.71 1.769a3.883 3.883 0 0 0-.243-.45 5.586 5.586 0 0 1-.449-.093l-.054-.05-.153.05c.777 1.135 1.051 3.142 1.015 5.521a7.793 7.793 0 0 0-.898-1.037 7.924 7.924 0 0 0-5.252-2.19h-.373c-.203 0-.407.013-.61.04h-.153l-.256.036-.292.054-.21.045-.364.098-.135.04c-.153.05-.3.1-.45.158a7.74 7.74 0 0 1-1.539.557c-.072 0-.144 0-.22.022a2.568 2.568 0 0 1-1.683-.48l-.162-.126a2.375 2.375 0 0 1-.175-.166 1.14 1.14 0 0 0-.076.49 1.504 1.504 0 0 0 .803 1.207c.148.077.31.123.476.135h.17-.04a3.89 3.89 0 0 1-.314.134h-.022a3.897 3.897 0 0 1-2.146.135l-.193-.045c-.095-.027-.193-.054-.283-.085.03.067.062.133.099.197l.035.059.081.125.05.063.09.112.053.059.113.112.044.04.167.14.058.04.121.085.08.05.109.063.09.044.112.05.094.04.126.045.157.045.116.031h.782c.231-.02.459-.076.673-.166l-.413.17-.206.073-.211.076-.211.063-.216.063-.211.054-.224.054-.207.04-.238.04-.197.032-.256.031h-1.078c.248.072.48.195.678.36.129.092.27.168.418.224.066.02.133.034.202.045h1.005c.41.041.806.168 1.163.372.19.122.358.274.498.45-.063.103-.125.201-.18.309-.053.108-.094.18-.138.274a5.27 5.27 0 0 0-.238.57 6.321 6.321 0 0 0-.386 2.177v.521c0 .108.012.216.035.323v.086c.018.131.042.262.072.39v.077c.024.107.051.214.081.318l.027.095c.076.253.167.502.274.745l.031.072c.051.11.104.218.157.323v.031c.066.12.135.238.207.355v.027c.066.108.136.212.211.314l.027.036a6.348 6.348 0 0 0 2.218 1.903 2.828 2.828 0 0 0-.05.292 2.855 2.855 0 0 0 0 .306v2.37a6.455 6.455 0 0 0-.395.229C13.028 22.536 4.651 4.44 4.651 4.44h-.202c.817-.61 0-3.268 0-3.268A3.834 3.834 0 0 0 2.878.65h-.723l-.09.027H2.02l-.134.05-.126.058-.045.022-.085.05-.059.273-.08.054-.05.04-.076.063-.05.045-.076.072-.045.05-.076.09-.036.044-.112.153c-1.226 1.836 0 2.86 0 2.86a18.29 18.29 0 0 0-.113 2.132C.767 19.96 14.923 30.209 15.645 30.721c-.318.826-2.95 8.143.032 17.279a.33.33 0 0 0 .036.063 26.523 26.523 0 0 0-7.955 25.086l.058.274h.13a2.06 2.06 0 0 1-.18.494c-.09.173-.2.334-.327.48a7.89 7.89 0 0 1-.472.49l-.18.17c-.713.683-1.436 1.347-.897 1.616h7.726v-3.371h.135s-.054-.103-.135-.305v-.036h-.027c-.404-1.042-1.347-4.265.162-9.23 1.836-6.128 8.979-9.19 8.979-9.19l.13.449h-.027l5.602 18.406c0 .072 0 .144-.022.22a2.994 2.994 0 0 1-.274.89c-.346.713-.943 1.552-1.203 2.18a2.114 2.114 0 0 0-.094.266.817.817 0 0 0-.032.314.364.364 0 0 0 .238.3h.104l.215-.035h.009zm-2.164-52.403a5.22 5.22 0 0 0-.449-.22V22.68a2.837 2.837 0 0 0-.05-.507c.485-.23.937-.522 1.348-.867-.27 1.374-.57 2.69-.844 3.82h-.005z" opacity=".2" transform="translate(145.455 140.965)" fill="url(#d)" fill-rule="nonzero"/><path d="M146.299 147.524s-1.347-1.131 0-3.17c1.346-2.038 3.847-.448 3.847-.448s.898 2.94 0 3.618c-.898.678-3.847 0-3.847 0z" fill="#CA7070" fill-rule="nonzero"/><path d="M160.287 223.241h-6.235a2.047 2.047 0 0 1-.588 1.603c-.84.97-2.528 2.141-1.733 2.541h8.556v-4.144z" fill="#00695C" fill-rule="nonzero"/><path d="M153.917 224.844c.42-.423.635-1.008.588-1.603h-.449a2.047 2.047 0 0 1-.588 1.603c-.84.97-2.527 2.141-1.733 2.541h.45c-.796-.4.892-1.567 1.732-2.541z" fill="#FFF" fill-rule="nonzero" opacity=".2"/><path d="M182.492 221.957l-5.837.948a2.972 2.972 0 0 1-.264 2.056c-.638 1.347-2.07 3.026-1.208 3.39l8.449-1.348-1.14-5.046zm-2.847-77.194s6.676 21.06-4.52 32.718l-3.233-2.473s6.618-22.986 2.914-28.382c6.536-2.177 4.84-1.863 4.84-1.863z" fill="#00695C" fill-rule="nonzero"/><path d="M175.03 146.622s-1.346-1.132 0-3.17c1.347-2.038 3.848-.449 3.848-.449s.898 2.94 0 3.619c-.898.678-3.848 0-3.848 0z" fill="#CA7070" fill-rule="nonzero"/><path d="M176.84 224.965a2.972 2.972 0 0 0 .264-2.06l5.388-.898v-.072l-5.837.97a2.972 2.972 0 0 1-.264 2.056c-.638 1.347-2.07 3.026-1.208 3.39l.355-.06c-.642-.448.691-2.06 1.302-3.326z" fill="#FFF" fill-rule="nonzero" opacity=".2"/><rect fill="#CA7070" fill-rule="nonzero" x="166.321" y="164.382" width="6.334" height="9.387" rx="3.167"/><path d="M172.346 176.364s6.536-22.703 2.976-28.283a16.638 16.638 0 0 1-.516-.103l-.059-.054-.166.054c3.704 5.387-2.913 28.381-2.913 28.381l3.232 2.474.283-.306-2.837-2.163z" fill="#FFF" fill-rule="nonzero" opacity=".2"/><circle fill="#CA7070" fill-rule="nonzero" cx="169.603" cy="160.651" r="7.012"/><path d="M167.111 170.604v-3.053c0-.223.024-.446.072-.664a7.012 7.012 0 0 1 2.81-13.24h-.395a7.012 7.012 0 0 0-3.21 13.249 3.143 3.143 0 0 0-.072.664v3.053a3.143 3.143 0 0 0 3.565 3.142 3.178 3.178 0 0 1-2.77-3.151z" fill="#FFF" fill-rule="nonzero" opacity=".2"/><path d="M176.727 195.6s-13.526 1.527-14.024 0c-3.507-10.747 0-19.227 0-19.227a7.012 7.012 0 1 1 14.024 0V195.6z" fill="#00695C" fill-rule="nonzero"/><path d="M176.727 195.6l6.11 28.054h-6.11l-6.334-20.812s-7.92 3.394-9.953 10.182c-2.034 6.787 0 10.63 0 10.63h-6.563l-.068-.305a29.18 29.18 0 0 1 8.89-27.749" fill="#263238" fill-rule="nonzero"/><path d="M163.493 195.6c-3.506-10.747 0-19.227 0-19.227 0-3.698 2.87-6.76 6.559-7h-.45a7.012 7.012 0 0 0-7.012 7.013s-3.506 8.485 0 19.228c.18.548 2.03.7 4.328.678-1.867-.04-3.282-.22-3.425-.692z" fill="#FFF" fill-rule="nonzero" opacity=".2"/><path d="M162.59 176.256s-18.096-12.669-16.287-28.732h4.072s9.724 21.06 15.955 23.08c6.231 2.02-3.74 5.652-3.74 5.652z" fill="#00695C" fill-rule="nonzero"/><path d="M170.51 203.336l6.217 20.43h.898l-6.334-20.812s-.292.126-.781.382zm-6.905-7.623h-.898a29.18 29.18 0 0 0-8.889 27.748l.068.306h.897l-.067-.306a29.18 29.18 0 0 1 8.889-27.748zm-16.625-47.96h-.677c-1.796 16.063 16.287 28.732 16.287 28.732l.45-.17c-2.097-1.55-17.752-13.568-16.06-28.562z" opacity=".2" fill="#FFF" fill-rule="nonzero"/><path d="M164.009 157.517c.39.903.665 1.852.817 2.824.449 1.967 1.464 3.928 3.21 4.938a7.125 7.125 0 0 0 3.142.858c1.67.103 3.48-.22 4.66-1.405a5.773 5.773 0 0 0 1.424-2.869 9.71 9.71 0 0 0-2.555-8.925 8.615 8.615 0 0 0-8.979-1.88 8.575 8.575 0 0 1-1.701.619 2.833 2.833 0 0 1-2.483-.826 1.567 1.567 0 0 0 1.513 2.029 4.368 4.368 0 0 1-3.349.18 2.842 2.842 0 0 0 3.592 1.432 9.571 9.571 0 0 1-4.04.826c.291 0 .861.538 1.216.646.445.07.896.102 1.347.094a2.613 2.613 0 0 1 2.186 1.46z" fill="#263238" fill-rule="nonzero"/><path d="M163.075 152.87a4.323 4.323 0 0 1-1.66.427 4.35 4.35 0 0 0 2.114-.426 1.585 1.585 0 0 1-1.59-1.71 2.667 2.667 0 0 1-.377-.32 1.567 1.567 0 0 0 1.513 2.03zm1.419-1.189a8.575 8.575 0 0 0 1.701-.62 7.802 7.802 0 0 1 2.694-.542 7.883 7.883 0 0 0-3.143.543 8.575 8.575 0 0 1-1.701.62c-.08 0-.162 0-.243.026.231.021.463.012.692-.027zm-3.587 4.288c-.355-.104-.925-.638-1.217-.647a9.554 9.554 0 0 0 4.04-.826 2.488 2.488 0 0 1-.897.189 9.576 9.576 0 0 1-3.592.637c.292 0 .862.539 1.217.647.308.074.626.1.943.076a1.966 1.966 0 0 1-.494-.076zm10.733 10.172a7.125 7.125 0 0 1-3.142-.857c-1.746-1.02-2.743-2.981-3.21-4.938a11.605 11.605 0 0 0-.817-2.824 2.613 2.613 0 0 0-2.213-1.45 4.52 4.52 0 0 0-.673 0h.22a2.613 2.613 0 0 1 2.213 1.45c.39.903.665 1.852.817 2.824.449 1.966 1.464 3.928 3.21 4.938a7.125 7.125 0 0 0 3.142.857h.786-.332zm-9.09-11.474a2.864 2.864 0 0 1-2.299-1.468 4.184 4.184 0 0 1-.525-.148 2.864 2.864 0 0 0 2.824 1.616zm-15.798-7.143s-1.347-1.131 0-3.17a2.168 2.168 0 0 1 1.679-1.027 2.2 2.2 0 0 0-2.128 1.028c-1.347 2.038 0 3.17 0 3.17a12.29 12.29 0 0 0 2.662.295 13.392 13.392 0 0 1-2.213-.296z" opacity=".2" fill="#FFF" fill-rule="nonzero"/><path d="M.456.398l.04-.135s-.51-.1-.04.135z" opacity=".2" transform="translate(16.162 147.25)" fill="url(#e)" fill-rule="nonzero"/><path d="M52.166 10.6a2.958 2.958 0 0 0-.162-.418c0-.045-.044-.081-.067-.121a2.519 2.519 0 0 0-.135-.234l-.09-.117a2.272 2.272 0 0 0-.147-.175l-.104-.103a2.14 2.14 0 0 0-.161-.135l-.113-.08-.18-.108-.111-.058-.202-.086-.104-.04a2.48 2.48 0 0 0-.291-.081 4.637 4.637 0 0 0-1.971.054s-1.881 2.774-1.159 3.77l-.237-.07s-13.976 15.595-21.859 18.49a7.76 7.76 0 0 0-.624-.385v-2.918a3.443 3.443 0 0 0 0-.369 3.412 3.412 0 0 0-.058-.345l.058-.032.233-.13.337-.206.216-.14c.161-.11.31-.227.449-.35l.175-.152c.107-.09.21-.184.31-.283l.179-.175c.126-.129.245-.26.36-.395l.125-.153a8.89 8.89 0 0 0 .31-.413l.125-.189c.09-.137.175-.278.256-.422l.08-.139c.1-.184.194-.377.275-.574l.072-.175c.062-.16.12-.32.175-.48 0-.06.04-.113.054-.171.062-.211.12-.422.166-.642 0-.045 0-.086.022-.13.036-.183.064-.369.085-.557v-.189c0-.229.036-.449.036-.696 0-1.746-.598-3.44-1.697-4.799.597-.934.988-1.486.988-1.486-.36-.247-.714-.471-1.064-.691l-.341-.202c-.234-.14-.45-.278-.7-.404l-.391-.207c-.211-.112-.418-.22-.624-.318l-.4-.184-.597-.26-.39-.158a18.99 18.99 0 0 0-.588-.215l-.369-.126a17.763 17.763 0 0 0-.601-.175l-.328-.09c-.224-.054-.449-.099-.669-.144l-.238-.05c-.3-.053-.597-.093-.898-.12a10.644 10.644 0 0 0-5.387.826c.09-2.146.45-3.915 1.203-5.01l-.184-.063-.062.063s-.22.049-.566.112c-.11.174-.207.356-.292.543.15-.76.442-1.484.858-2.137l-.185-.063c.265-.274 1.226-1.454-.062-3.39-1.482-2.217-4.193-.493-4.193-.493a11.475 11.475 0 0 0-.422 2.245 6.298 6.298 0 0 1-.45-.198 55.892 55.892 0 0 0-2.105 14.079C2.846 24.103.826 34.348.431 36.557l-.031.175-.04.247 12.708.296v20.256L3.816 77.1s3.52.112 8.817.79l-1.464 10.465-.489 2.936h8.808c.979-1.958-3.914-2.936-3.914-2.936h-.108l1.908-9.765c.844.141 1.712.29 2.604.45 1.307.252 2.633.402 3.964.448a21.16 21.16 0 0 0 3.3-.143c.646 5.292-.203 8.453-.364 8.978h-.05l-.49 2.936h8.809c.853-1.706-2.756-2.67-3.695-2.886l.04-.288c.454-3.301.57-6.64.346-9.966a12.063 12.063 0 0 0 3.143-1.872l.121-.108.036-.036-6.559-18.406c1.226-5.208-3.04-10.676-.763-13.41 2.276-2.734.898-6.222.628-6.819 6.16-2.694 18.609-9.428 22.101-21.1.257-.82.465-1.655.624-2.5 0 0 1.76-.714.997-3.269z" opacity=".2" transform="translate(6.734 144.557)" fill="url(#f)" fill-rule="nonzero"/><path d="M17.993 151.048s-6.675 21.06 4.521 32.719l3.232-2.474s-6.617-22.985-2.913-28.382c-6.537-2.177-4.84-1.863-4.84-1.863z" fill="#FF5252" fill-rule="nonzero"/><path d="M22.608 152.907s1.347-1.131 0-3.17c-1.346-2.038-3.847-.449-3.847-.449s-.898 2.941 0 3.619c.898.678 3.847 0 3.847 0z" fill="#F6B9AD" fill-rule="nonzero"/><rect fill="#F6B9AD" fill-rule="nonzero" transform="rotate(180 28.15 175.36)" x="24.983" y="170.667" width="6.334" height="9.387" rx="3.167"/><path d="M25.293 182.649s-6.537-22.703-2.977-28.283c.315-.058.517-.103.517-.103l.058-.054.166.054c-3.703 5.387 2.914 28.381 2.914 28.381l-3.233 2.474-.282-.305 2.837-2.164z" fill="#FFF" fill-rule="nonzero" opacity=".2"/><circle fill="#F6B9AD" fill-rule="nonzero" cx="28.036" cy="166.936" r="7.012"/><path d="M30.527 176.889v-3.053c0-.223-.024-.446-.071-.664a7.012 7.012 0 0 0-2.81-13.24h.394a7.012 7.012 0 0 1 3.21 13.249c.048.218.072.44.072.664v3.053a3.143 3.143 0 0 1-3.564 3.142 3.178 3.178 0 0 0 2.77-3.151z" fill="#FFF" fill-rule="nonzero" opacity=".2"/><path d="M20.911 201.886s13.527 1.526 14.025 0c1.616-4.939-2.694-10.277-.539-12.885 2.245-2.693.539-6.343.539-6.343a7.012 7.012 0 1 0-14.025 0v19.228z" fill="#FF5252" fill-rule="nonzero"/><path d="M34.415 189.001c2.245-2.693.539-6.343.539-6.343a7.012 7.012 0 0 0-7.012-7.013c-.153 0-.301 0-.45.023a7.008 7.008 0 0 1 6.564 6.99s1.706 3.65-.539 6.343c-2.172 2.608 2.155 7.942.54 12.885-.154.47-1.55.65-3.404.677 2.285.023 4.126-.13 4.301-.677 1.634-4.948-2.712-10.277-.539-12.885z" fill="#FFF" fill-rule="nonzero" opacity=".2"/><path d="M32.067 201.437c4.939 6.998 7.125 17.575 5.71 27.748l-.04.305h-4.215s1.306-3.847 0-10.63a16.786 16.786 0 0 0-6.393-10.182l-4.067 20.812h-3.924l3.924-28.053h9.005zm23.776-40.347s1.63-.681.93-3.03c-.701-2.347-3.547-1.557-3.547-1.557s-1.729 2.545-1.06 3.461c.669.916 3.677 1.127 3.677 1.127z" fill="#F6B9AD" fill-rule="nonzero"/><path d="M31.847 183.789s21.015-6.81 23.991-22.698l-3.892-1.194s-15.466 17.266-21.998 17.387c-6.532.121 1.9 6.505 1.9 6.505z" fill="#FF5252" fill-rule="nonzero"/><path d="M55.125 161.109l.65.197c-2.976 15.888-23.99 22.698-23.99 22.698l-.373-.291c2.483-.862 20.938-7.785 23.713-22.604zm-28.898 47.569l-4.068 20.812h.898l3.95-20.202a9.71 9.71 0 0 0-.78-.61zm5.84-7.241h-.898c4.939 6.998 7.125 17.575 5.71 27.748l-.04.305h.898l.04-.305c1.415-10.173-.762-20.75-5.71-27.748zm23.34-40.485s1.63-.683.93-3.03a2.168 2.168 0 0 0-1.302-1.478 2.2 2.2 0 0 1 1.733 1.608c.7 2.343-.93 3.03-.93 3.03a12.265 12.265 0 0 1-2.63-.494c.722.182 1.457.304 2.2.364z" fill="#FFF" fill-rule="nonzero" opacity=".2"/><path d="M20.911 201.122l-8.53 17.958a105.5 105.5 0 0 1 14.815 1.795c9.428 1.796 13.917-2.693 13.917-2.693l-6.083-17.06H20.911z" fill="#263238" fill-rule="nonzero"/><path d="M23.174 229.405s4.49.898 3.591 2.694h-8.08l.449-2.694h4.04zm14.366 0s4.49.898 3.591 2.694h-8.08l.448-2.694h4.04z" fill="#FF5252" fill-rule="nonzero"/><path d="M34.397 161.167s-10.774 15.264-5.836 21.549l-19.304-.449s5.387-34.568 25.14-21.1z" fill="#FCCC63" fill-rule="nonzero"/><path d="M34.397 161.167c-2.783-1.899-5.28-2.842-7.52-3.062a19.003 19.003 0 0 1 5.276 2.613s-10.775 15.264-5.837 21.55l-16.992-.396c-.045.256-.067.395-.067.395l19.304.449c-4.938-6.285 5.836-21.549 5.836-21.549zm.656 39.955h-1.347l6.083 17.06s-2.9 2.895-8.934 3.102c6.945.224 10.28-3.102 10.28-3.102l-6.082-17.06zm-11.879 28.283h-.898s4.49.898 3.592 2.694h.897c.898-1.796-3.591-2.694-3.591-2.694zm14.366 0h-.898s4.49.898 3.591 2.694h.898c.898-1.796-3.591-2.694-3.591-2.694z" fill="#FFF" fill-rule="nonzero" opacity=".2"/><path fill="#F5F5F5" fill-rule="nonzero" d="M224.745 75.277h171.942v6.51H224.745z"/><path fill="url(#a)" fill-rule="nonzero" d="M221.324 73.199H400V295.87H221.324z"/><path fill="#FFF" fill-rule="nonzero" d="M224.745 81.787h171.942v206.285H224.745z"/><circle fill="#FF5252" fill-rule="nonzero" cx="228.732" cy="78.644" r="1.571"/><circle fill="#FF0" fill-rule="nonzero" cx="233.051" cy="78.644" r="1.571"/><circle fill="#69F0AE" fill-rule="nonzero" cx="237.374" cy="78.644" r="1.571"/><path d="M235.52 90.99h150.84v4.04H235.52z" opacity=".2" fill="#D6E2F3" fill-rule="nonzero"/><path fill="url(#a)" fill-rule="nonzero" d="M234.622 108.498h65.095v69.136h-65.095z"/><path fill="#FFF" fill-rule="nonzero" d="M235.969 110.743h62.402v64.646h-62.402z"/><path fill="url(#a)" fill-rule="nonzero" d="M321.266 143.066h65.095v69.136h-65.095z"/><path fill="#FFF" fill-rule="nonzero" d="M322.613 145.311h62.402v64.646h-62.402z"/><path fill="url(#g)" fill-rule="nonzero" d="M235.969 228.364h153.086v47.587H235.969z"/><path fill="#D6E2F3" fill-rule="nonzero" opacity=".5" d="M239.111 231.506h147.25v42.649h-147.25z"/><path fill="#FFF" fill-rule="nonzero" opacity=".5" d="M242.703 235.547H386.36v-4.04H239.11v42.648h3.592z"/><path d="M288.031 124.907c-8.787-10.215-23.63-12.668-35.237-5.823-11.607 6.844-16.645 21.02-11.96 33.653 4.685 12.634 17.747 20.098 31.01 17.72 13.263-2.379 22.918-13.916 22.921-27.39a27.762 27.762 0 0 0-6.734-18.16zm-11.223 34.779a19.304 19.304 0 1 1 9.464-16.61 19.219 19.219 0 0 1-9.45 16.61h-.014z" fill="url(#h)" fill-rule="nonzero"/><path d="M280.884 131.062l6.128-5.275a26.42 26.42 0 0 0-20.067-9.208v8.08a18.366 18.366 0 0 1 13.94 6.403z" fill="#FF5252" fill-rule="nonzero"/><path d="M266.945 161.468a18.29 18.29 0 0 1-7.596-1.648l-3.336 7.367a26.487 26.487 0 0 0 24.463-1.346l-4.13-6.954a18.29 18.29 0 0 1-9.401 2.581z" fill="#69F0AE" fill-rule="nonzero"/><path d="M293.432 143.062a26.375 26.375 0 0 0-6.42-17.28l-6.128 5.275a18.375 18.375 0 0 1-4.538 27.834l4.13 6.954a26.487 26.487 0 0 0 12.956-22.783z" fill="#FF9800" fill-rule="nonzero"/><path d="M248.539 143.062c0-10.166 8.24-18.407 18.406-18.407v-8.08c-12.473 0-23.256 8.703-25.89 20.895-2.633 12.192 3.597 24.57 14.958 29.717l3.336-7.367a18.406 18.406 0 0 1-10.81-16.758z" fill="#D6E2F3" fill-rule="nonzero"/><path fill="url(#a)" fill-rule="nonzero" d="M331.143 154.738h47.587v8.081h-47.587z"/><path fill="#D6E2F3" fill-rule="nonzero" d="M331.591 155.187h46.689v7.183h-46.689z"/><path fill="#FF5252" fill-rule="nonzero" d="M331.591 167.309h34.119v7.183h-34.119z"/><path fill="#69F0AE" fill-rule="nonzero" d="M331.591 179.43h23.345v7.183h-23.345z"/><path fill="#FF9800" fill-rule="nonzero" d="M331.591 191.551h42.2v7.183h-42.2z"/><path fill="#F5F5F5" fill-rule="nonzero" d="M235.969 188.409h66.891v4.04h-66.891zm0 6.734h37.71v4.04h-37.71zm44.444 0h13.019v4.04h-13.019zm0 14.814h13.019v4.04h-13.019zm-44.444-1.346h37.71v4.04h-37.71zm0-6.734h66.891v4.04h-66.891zm84.399-92.93h66.891v4.04h-66.891zm0 6.734h37.71v4.04h-37.71zm44.445 0h13.019v4.04h-13.019zm0 14.815h13.019v4.04h-13.019zm-44.445-1.347h37.71v4.04h-37.71zm0-6.734h66.891v4.04h-66.891z"/><circle fill="url(#a)" fill-rule="nonzero" cx="341.468" cy="309.172" r="4.938"/><circle fill="#FF5252" fill-rule="nonzero" cx="341.468" cy="309.172" r="3.591"/><path fill="url(#a)" fill-rule="nonzero" d="M195.565 254.402h154.433v54.321H195.565z"/><path fill="#FFF" fill-rule="nonzero" d="M200.054 256.646h147.25v42.649h-147.25z"/><path d="M204.992 291.214h136.476" stroke="#D6E2F3" stroke-width="3" fill="url(#i)" fill-rule="nonzero"/><path fill="url(#a)" fill-rule="nonzero" d="M206.339 265.176h20.202v24.691h-20.202z"/><path fill="#D6E2F3" fill-rule="nonzero" d="M207.461 266.299h17.957v22.896h-17.957z"/><path fill="#69F0AE" fill-rule="nonzero" d="M319.919 282.685h17.957v7.183h-17.957z"/><path fill="#FF9800" fill-rule="nonzero" d="M286.249 273.257h17.957v16.162h-17.957z"/><path fill="#FF5252" fill-rule="nonzero" d="M246.743 275.951H264.7v13.468h-17.957zm-46.689 23.344h147.25v6.285h-147.25z"/><circle fill="url(#a)" fill-rule="nonzero" cx="206.339" cy="309.172" r="4.938"/><circle fill="#FF5252" fill-rule="nonzero" cx="206.339" cy="309.172" r="3.591"/><path fill="#FF5252" fill-rule="nonzero" d="M196.462 258.442h3.591v47.138h-3.591z"/><path fill="#000" fill-rule="nonzero" opacity=".2" d="M196.462 258.442h3.591v47.138h-3.591z"/><path d="M200.292 263.452v-.363c0-.072 0-.095-.027-.14-.027-.044-.032-.134-.054-.197s-.027-.085-.045-.13l-.08-.189-.055-.112a2.557 2.557 0 0 0-.116-.184l-.059-.085a2.972 2.972 0 0 0-.188-.234 4.319 4.319 0 0 0-1.253-.925c.368-.395.643-.867.804-1.382a3.11 3.11 0 0 0 .108-.422v-.13c.012-.087.02-.174.022-.26v-.365c0-.071 0-.094-.027-.139-.027-.045-.031-.134-.054-.197-.022-.063-.027-.086-.045-.13l-.08-.189-.054-.112a2.557 2.557 0 0 0-.117-.184l-.058-.086a2.972 2.972 0 0 0-.189-.233 4.52 4.52 0 0 0-1.594-1.077s-2.85 1.055-3.039 2.213c-2.092.449-14.285 2.985-22.658 2.783l-.063-.166a7.448 7.448 0 0 0-3.964-6.586v-2.82a3.054 3.054 0 0 0 0-.358 3.326 3.326 0 0 0-.053-.341l.053-.032.23-.126.332-.202.21-.139c.156-.108.306-.221.45-.34l.17-.15c.103-.089.202-.179.3-.273l.176-.17c.123-.126.24-.255.35-.387l.121-.152a7.85 7.85 0 0 0 .301-.404l.121-.184c.087-.135.17-.273.252-.413l.076-.135a6.35 6.35 0 0 0 .27-.557l.067-.17c.063-.153.12-.303.17-.45l.054-.165c.063-.207.117-.413.162-.624 0-.04 0-.086.022-.126.033-.18.06-.36.081-.543v-.184c0-.225.036-.45.036-.678 0-1.276-.33-2.53-.956-3.641.48-.117.772-.211.736-.256-.184-.247-.368-.48-.561-.705l-.184-.21-.4-.45-.215-.22c-.135-.134-.27-.26-.404-.381l-.211-.189c-.17-.144-.341-.283-.512-.417l-.112-.09c-.207-.153-.413-.296-.624-.45l-.234-.143a5.447 5.447 0 0 0-.413-.238l-.278-.143-.386-.184-.283-.126a6.619 6.619 0 0 0-.413-.157l-.256-.095a10.94 10.94 0 0 0-.62-.184l-.318-.071-.346-.072-.346-.054-.318-.036-.355-.031h-.66c-.194 0-.389.009-.584.026-4.592.378-8.615 4.387-8.615 10.775v5.27h7.183v2.398a7.448 7.448 0 0 0-4.327 6.756v20.431l-6.097 28.01h-.08l-1.2 5.346 8.602 1.392.373.058c.898-.386-.606-2.195-1.284-3.592a3.834 3.834 0 0 1-.18-.448 3.398 3.398 0 0 1-.17-.871l6.608-21.68h-.031l.157-.507s8.413 3.592 10.577 10.815c1.755 5.836.664 9.634.188 10.864h-.031v.072c-.094.234-.162.364-.162.364h.162v3.964h9.095c.844-.427-.947-1.67-1.84-2.694a2.545 2.545 0 0 1-.593-1.145h.153l.071-.323a31.214 31.214 0 0 0-9.364-29.526.346.346 0 0 0 .04-.076 33.423 33.423 0 0 0 1.576-8.108c6.954.664 16.206.188 23.124-5.172a21.549 21.549 0 0 0 1.89-1.607c.597-.045 1.644-.377 2.223-2.065.046-.138.082-.279.107-.422v-.13c.016-.095.027-.191.032-.288z" fill="url(#j)" fill-rule="nonzero"/><path d="M163.856 271.363s21.055 6.693 32.719-4.49l-2.474-3.237s-22.626 5.042-28.018 1.347c-5.392-3.695-2.227 6.38-2.227 6.38z" fill="#D6E2F3" fill-rule="nonzero"/><path d="M195.982 266.451l.413.539c-11.672 11.187-32.718 4.49-32.718 4.49s-.054-.171-.135-.45c2.51.75 21.558 5.872 32.44-4.579z" fill="#FFF" fill-rule="nonzero" opacity=".2"/><path d="M196.126 266.869s1.724.39 2.518-1.922c.795-2.312-1.975-3.33-1.975-3.33s-2.887 1.063-2.878 2.194c.01 1.132 2.335 3.058 2.335 3.058z" fill="#985454" fill-rule="nonzero"/><path d="M195.852 266.505s1.724.39 2.518-1.921a2.168 2.168 0 0 0-.202-1.958 2.2 2.2 0 0 1 .476 2.317c-.794 2.316-2.518 1.921-2.518 1.921a12.265 12.265 0 0 1-1.85-1.935c.48.568 1.008 1.095 1.576 1.576z" fill="#FFF" fill-rule="nonzero" opacity=".2"/><path d="M173.827 308.539h6.236c-.047.594.168 1.18.588 1.602.84.97 2.527 2.142 1.733 2.541h-8.557v-4.143z" fill="#D6E2F3" fill-rule="nonzero"/><path d="M180.198 310.141a2.047 2.047 0 0 1-.589-1.602h.45c-.047.594.167 1.18.587 1.602.84.97 2.528 2.142 1.733 2.541h-.449c.795-.4-.893-1.566-1.732-2.54z" fill="#FFF" fill-rule="nonzero" opacity=".2"/><path d="M151.618 307.255l5.837.956a2.972 2.972 0 0 0 .264 2.056c.638 1.347 2.07 3.026 1.208 3.39l-8.449-1.347 1.14-5.055z" fill="#D6E2F3" fill-rule="nonzero"/><path d="M157.275 310.263a2.972 2.972 0 0 1-.265-2.056l-5.41-.898v-.072l5.837.956a2.972 2.972 0 0 0 .264 2.056c.638 1.347 2.07 3.026 1.208 3.39l-.355-.059c.665-.44-.668-2.051-1.279-3.317z" fill="#FFF" fill-rule="nonzero" opacity=".2"/><rect fill="#985454" fill-rule="nonzero" transform="rotate(180 164.626 254.373)" x="161.459" y="249.679" width="6.334" height="9.387" rx="3.167"/><circle fill="#985454" fill-rule="nonzero" cx="164.512" cy="245.948" r="7.012"/><path d="M167.003 255.901v-3.053c0-.223-.024-.446-.071-.664a7.012 7.012 0 0 0-2.81-13.239h.394a7.012 7.012 0 0 1 3.21 13.248c.048.218.072.441.072.664v3.053a3.143 3.143 0 0 1-3.565 3.143 3.178 3.178 0 0 0 2.77-3.152z" fill="#FFF" fill-rule="nonzero" opacity=".2"/><path d="M157.387 280.898s13.527 1.526 14.025 0c3.506-10.748 0-19.228 0-19.228a7.012 7.012 0 1 0-14.025 0v19.228z" fill="#D6E2F3" fill-rule="nonzero"/><path d="M157.387 280.898l-6.11 28.054h6.11l6.335-20.813s7.919 3.394 9.953 10.182c2.033 6.788 0 10.63 0 10.63h6.572l.067-.305a29.18 29.18 0 0 0-8.889-27.748" fill="#263238" fill-rule="nonzero"/><path d="M170.622 280.898c3.506-10.748 0-19.228 0-19.228 0-3.697-2.87-6.76-6.56-6.999h.45a7.012 7.012 0 0 1 7.012 7.013s3.506 8.484 0 19.227c-.18.548-2.03.7-4.328.678 1.868-.04 3.273-.22 3.426-.691z" fill="#FFF" fill-rule="nonzero" opacity=".2"/><path d="M163.605 288.633l-6.218 20.431h-.898l6.335-20.813s.292.126.78.382zm6.905-7.623h.897a29.18 29.18 0 0 1 8.89 27.749l-.068.305h-.898l.067-.305a29.18 29.18 0 0 0-8.888-27.749z" opacity=".2" fill="#FFF" fill-rule="nonzero"/><path d="M162.958 266.873s21.055 6.694 32.719-4.49l-2.474-3.236s-22.626 5.042-28.018 1.347c-5.392-3.695-2.227 6.38-2.227 6.38z" fill="#D6E2F3" fill-rule="nonzero"/><path d="M195.084 261.962l.413.539c-11.672 11.187-32.718 4.489-32.718 4.489s-.054-.17-.135-.449c2.51.75 21.558 5.872 32.44-4.58z" fill="#FFF" fill-rule="nonzero" opacity=".2"/><path d="M195.228 262.38s1.724.39 2.518-1.922c.795-2.312-1.975-3.331-1.975-3.331s-2.887 1.064-2.878 2.195c.01 1.131 2.335 3.057 2.335 3.057z" fill="#985454" fill-rule="nonzero"/><path d="M194.954 262.016s1.724.39 2.519-1.922a2.168 2.168 0 0 0-.203-1.957 2.2 2.2 0 0 1 .476 2.316c-.794 2.317-2.518 1.922-2.518 1.922a12.265 12.265 0 0 1-1.85-1.935c.48.568 1.008 1.095 1.576 1.576z" fill="#FFF" fill-rule="nonzero" opacity=".2"/><path d="M165.037 243.623l-.449 9.428h-9.876v-5.006c0-10.052 10.626-13.868 16.61-5.791.148.22-6.285 1.369-6.285 1.369z" fill="#263238" fill-rule="nonzero"/><path d="M162.82 237.94c2.518.206 5.108 1.58 7.155 4.34.148.198-6.285 1.347-6.285 1.347l-.449 9.428h1.347l.449-9.428s6.433-1.149 6.285-1.346c-2.41-3.26-5.58-4.562-8.503-4.342z" fill="#FFF" fill-rule="nonzero" opacity=".2"/></g></svg>