<svg width="400" height="307" xmlns="http://www.w3.org/2000/svg"><defs><linearGradient x1="-.008%" y1="49.986%" x2="100%" y2="49.986%" id="a"><stop stop-color="gray" stop-opacity=".25" offset="0%"/><stop stop-color="gray" stop-opacity=".12" offset="54%"/><stop stop-color="gray" stop-opacity=".1" offset="100%"/></linearGradient><linearGradient x1=".004%" y1="50.008%" x2="100.012%" y2="50.008%" id="b"><stop stop-color="gray" stop-opacity=".25" offset="0%"/><stop stop-color="gray" stop-opacity=".12" offset="54%"/><stop stop-color="gray" stop-opacity=".1" offset="100%"/></linearGradient><linearGradient x1=".004%" y1="50.011%" x2="100.012%" y2="50.011%" id="c"><stop stop-color="gray" stop-opacity=".25" offset="0%"/><stop stop-color="gray" stop-opacity=".12" offset="54%"/><stop stop-color="gray" stop-opacity=".1" offset="100%"/></linearGradient><linearGradient x1="-.01%" y1="49.997%" x2="100.045%" y2="49.997%" id="d"><stop stop-color="gray" stop-opacity=".25" offset="0%"/><stop stop-color="gray" stop-opacity=".12" offset="54%"/><stop stop-color="gray" stop-opacity=".1" offset="100%"/></linearGradient><linearGradient x1="0%" y1="49.998%" x2="100.026%" y2="49.998%" id="e"><stop stop-color="gray" stop-opacity=".25" offset="0%"/><stop stop-color="gray" stop-opacity=".12" offset="54%"/><stop stop-color="gray" stop-opacity=".1" offset="100%"/></linearGradient><linearGradient x1="0%" y1="49.998%" x2="100.033%" y2="49.998%" id="f"><stop stop-color="gray" stop-opacity=".25" offset="0%"/><stop stop-color="gray" stop-opacity=".12" offset="54%"/><stop stop-color="gray" stop-opacity=".1" offset="100%"/></linearGradient><linearGradient x1="0%" y1="50.002%" x2="100%" y2="50.002%" id="g"><stop stop-color="gray" stop-opacity=".25" offset="0%"/><stop stop-color="gray" stop-opacity=".12" offset="54%"/><stop stop-color="gray" stop-opacity=".1" offset="100%"/></linearGradient><linearGradient x1=".003%" y1="50%" x2="100.019%" y2="50%" id="h"><stop stop-color="gray" stop-opacity=".25" offset="0%"/><stop stop-color="gray" stop-opacity=".12" offset="54%"/><stop stop-color="gray" stop-opacity=".1" offset="100%"/></linearGradient><linearGradient x1=".003%" y1="50%" x2="100.026%" y2="50%" id="i"><stop stop-color="gray" stop-opacity=".25" offset="0%"/><stop stop-color="gray" stop-opacity=".12" offset="54%"/><stop stop-color="gray" stop-opacity=".1" offset="100%"/></linearGradient><linearGradient x1="0%" y1="50%" x2="100%" y2="50%" id="j"><stop stop-color="gray" stop-opacity=".25" offset="0%"/><stop stop-color="gray" stop-opacity=".12" offset="54%"/><stop stop-color="gray" stop-opacity=".1" offset="100%"/></linearGradient><linearGradient x1=".013%" y1="50%" x2="100%" y2="50%" id="k"><stop stop-color="gray" stop-opacity=".25" offset="0%"/><stop stop-color="gray" stop-opacity=".12" offset="54%"/><stop stop-color="gray" stop-opacity=".1" offset="100%"/></linearGradient><linearGradient x1="0%" y1="50.064%" x2="100%" y2="50.064%" id="l"><stop stop-color="gray" stop-opacity=".25" offset="0%"/><stop stop-color="gray" stop-opacity=".12" offset="54%"/><stop stop-color="gray" stop-opacity=".1" offset="100%"/></linearGradient><linearGradient x1=".015%" y1="49.97%" x2="100.004%" y2="49.97%" id="m"><stop stop-color="gray" stop-opacity=".25" offset="0%"/><stop stop-color="gray" stop-opacity=".12" offset="54%"/><stop stop-color="gray" stop-opacity=".1" offset="100%"/></linearGradient><linearGradient x1="-.009%" y1="50.016%" x2="100%" y2="50.016%" id="n"><stop stop-color="gray" stop-opacity=".25" offset="0%"/><stop stop-color="gray" stop-opacity=".12" offset="54%"/><stop stop-color="gray" stop-opacity=".1" offset="100%"/></linearGradient><linearGradient x1="-.016%" y1="50.015%" x2="100.023%" y2="50.015%" id="o"><stop stop-color="gray" stop-opacity=".25" offset="0%"/><stop stop-color="gray" stop-opacity=".12" offset="54%"/><stop stop-color="gray" stop-opacity=".1" offset="100%"/></linearGradient><linearGradient x1="0%" y1="50.014%" x2="99.95%" y2="50.014%" id="p"><stop stop-color="gray" stop-opacity=".25" offset="0%"/><stop stop-color="gray" stop-opacity=".12" offset="54%"/><stop stop-color="gray" stop-opacity=".1" offset="100%"/></linearGradient><linearGradient x1="0%" y1="50.002%" x2="99.95%" y2="50.002%" id="q"><stop stop-color="gray" stop-opacity=".25" offset="0%"/><stop stop-color="gray" stop-opacity=".12" offset="54%"/><stop stop-color="gray" stop-opacity=".1" offset="100%"/></linearGradient><linearGradient x1="50.009%" y1="99.993%" x2="50.009%" y2="-.001%" id="r"><stop stop-color="gray" stop-opacity=".25" offset="0%"/><stop stop-color="gray" stop-opacity=".12" offset="54%"/><stop stop-color="gray" stop-opacity=".1" offset="100%"/></linearGradient><linearGradient x1="49.999%" y1="100%" x2="49.999%" y2="0%" id="s"><stop stop-color="gray" stop-opacity=".25" offset="0%"/><stop stop-color="gray" stop-opacity=".12" offset="54%"/><stop stop-color="gray" stop-opacity=".1" offset="100%"/></linearGradient><linearGradient x1="50%" y1="100%" x2="50%" y2="0%" id="t"><stop stop-color="gray" stop-opacity=".25" offset="0%"/><stop stop-color="gray" stop-opacity=".12" offset="54%"/><stop stop-color="gray" stop-opacity=".1" offset="100%"/></linearGradient></defs><g fill="none" fill-rule="evenodd"><path d="M330.505 269.899h-28.687v-16.162h28.687V269.9zm-27.475-1.212h26.263v-13.738H303.03v13.738zm56.162.403h-28.687v-16.16h28.687v16.16zm-27.475-1.211h26.263V254.14h-26.263v13.738zm56.162 1.211h-28.687v-16.16h28.687v16.16zm-27.475-1.211h26.263V254.14h-26.263v13.738zm27.475-14.949h-28.687v-16.162h28.687v16.161zm-27.475-1.213h26.263V237.98h-26.263v13.737zm-1.212 1.213h-28.687v-16.162h28.687v16.161zm-27.475-1.213h26.263V237.98h-26.263v13.737zM35.96 269.09H7.273v-16.16H35.96v16.16zm-27.475-1.21h26.262v-13.74H8.485v13.738zm56.161 1.21H35.96v-16.16h28.686v16.16zm-27.474-1.211h26.262V254.14H37.172v13.738zm56.161 1.211H64.646v-16.16h28.687v16.16zm-27.473-1.21h26.26v-13.74H65.86v13.738zm56.16 2.019H93.333v-16.162h28.687V269.9zm-27.475-1.212h26.263v-13.738H94.545v13.738z" fill="#D6E2F3" fill-rule="nonzero" opacity=".2"/><path d="M93.333 252.93H64.646v-16.162h28.687v16.161zm-27.474-1.213H92.12V237.98H65.86v13.737zm-1.213 1.213H35.96v-16.162h28.686v16.161zm-27.474-1.213h26.262V237.98H37.172v13.737z" fill="#D6E2F3" fill-rule="nonzero" opacity=".2"/><path d="M359.71 219.135s-5.31-18.032.993-31.305a28.48 28.48 0 0 0 2.303-17.866 47.9 47.9 0 0 0-2.53-8.388" stroke="#535461" stroke-width="2"/><path d="M364.404 153.176c0 2.21-4 8.618-4 8.618s-4-6.408-4-8.618a4.002 4.002 0 0 1 8.004 0h-.004zm6.614 12.254c-1.212 1.855-8.044 5.059-8.044 5.059s.125-7.556 1.325-9.41a4.002 4.002 0 1 1 6.72 4.347v.004zm-.291 20.922c-1.971.993-9.495.307-9.495.307s3.92-6.465 5.895-7.455a4.002 4.002 0 0 1 3.604 7.148h-.004zm-3.782 15.778c-1.777 1.312-9.292 1.906-9.292 1.906s2.771-7.026 4.549-8.343a4 4 0 0 1 4.76 6.432l-.017.004zm-12.371-31.209c1.584 1.54 8.97 3.136 8.97 3.136s-1.81-7.338-3.395-8.89a4.002 4.002 0 0 0-5.575 5.742v.012zm-4.19 18.505c1.972.994 9.495.307 9.495.307s-3.92-6.464-5.895-7.454a4.002 4.002 0 0 0-3.604 7.147h.004zm-1.604 18.55c1.778 1.313 9.293 1.907 9.293 1.907s-2.756-7.01-4.538-8.34a4 4 0 0 0-4.76 6.433h.005z" fill="#D6E2F3" fill-rule="nonzero"/><path d="M364.404 153.176c0 2.21-4 8.618-4 8.618s-4-6.408-4-8.618a4.002 4.002 0 0 1 8.004 0h-.004zm6.614 12.254c-1.212 1.855-8.044 5.059-8.044 5.059s.125-7.556 1.325-9.41a4.002 4.002 0 1 1 6.72 4.347v.004zm-.291 20.922c-1.971.993-9.495.307-9.495.307s3.92-6.465 5.895-7.455a4.002 4.002 0 0 1 3.604 7.148h-.004zm-3.782 15.778c-1.777 1.312-9.292 1.906-9.292 1.906s2.771-7.026 4.549-8.343a4 4 0 0 1 4.76 6.432l-.017.004zm-12.371-31.209c1.584 1.54 8.97 3.136 8.97 3.136s-1.81-7.338-3.395-8.89a4.002 4.002 0 0 0-5.575 5.742v.012zm-4.19 18.505c1.972.994 9.495.307 9.495.307s-3.92-6.464-5.895-7.454a4.002 4.002 0 0 0-3.604 7.147h.004zm-1.604 18.55c1.778 1.313 9.293 1.907 9.293 1.907s-2.756-7.01-4.538-8.34a4 4 0 0 0-4.76 6.433h.005z" fill="#000" fill-rule="nonzero" opacity=".25"/><path d="M68.202 219.273s-5.39-18.3 1.01-31.754a28.905 28.905 0 0 0 2.34-18.133 48.61 48.61 0 0 0-2.57-8.533" stroke="#535461" stroke-width="2"/><path d="M72.966 152.368c0 2.242-4.06 8.747-4.06 8.747s-4.066-6.525-4.066-8.747a4.06 4.06 0 1 1 8.122 0h.004zm6.711 12.404c-1.212 1.883-8.162 5.135-8.162 5.135s.125-7.677 1.346-9.547a4.06 4.06 0 1 1 6.816 4.412zM79.382 186c-2.02 1.01-9.637.311-9.637.311s3.98-6.553 5.98-7.564A4.061 4.061 0 1 1 79.382 186zm-3.826 16.012c-1.802 1.333-9.447 1.935-9.447 1.935s2.828-7.13 4.618-8.484a4.066 4.066 0 0 1 4.849 6.529l-.02.02zm-12.57-31.672c1.616 1.563 9.103 3.18 9.103 3.18s-1.834-7.443-3.443-9.007a4.06 4.06 0 1 0-5.656 5.826h-.004zm-4.251 18.795c2.02 1.01 9.637.311 9.637.311s-3.98-6.553-5.98-7.563a4.061 4.061 0 0 0-3.657 7.252zm-1.628 18.812c1.802 1.334 9.447 1.936 9.447 1.936s-2.829-7.131-4.619-8.485a4.066 4.066 0 1 0-4.848 6.53l.02.02z" fill="#D6E2F3" fill-rule="nonzero"/><path d="M72.966 152.368c0 2.242-4.06 8.747-4.06 8.747s-4.066-6.525-4.066-8.747a4.06 4.06 0 1 1 8.122 0h.004zm6.711 12.404c-1.212 1.883-8.162 5.135-8.162 5.135s.125-7.677 1.346-9.547a4.06 4.06 0 1 1 6.816 4.412zM79.382 186c-2.02 1.01-9.637.311-9.637.311s3.98-6.553 5.98-7.564A4.061 4.061 0 1 1 79.382 186zm-3.826 16.012c-1.802 1.333-9.447 1.935-9.447 1.935s2.828-7.13 4.618-8.484a4.066 4.066 0 0 1 4.849 6.529l-.02.02zm-12.57-31.672c1.616 1.563 9.103 3.18 9.103 3.18s-1.834-7.443-3.443-9.007a4.06 4.06 0 1 0-5.656 5.826h-.004zm-4.251 18.795c2.02 1.01 9.637.311 9.637.311s-3.98-6.553-5.98-7.563a4.061 4.061 0 0 0-3.657 7.252zm-1.628 18.812c1.802 1.334 9.447 1.936 9.447 1.936s-2.829-7.131-4.619-8.485a4.066 4.066 0 1 0-4.848 6.53l.02.02z" fill="#FFF" fill-rule="nonzero" opacity=".5"/><path d="M37.45 218.82s-4.105-13.927.772-24.21a22.028 22.028 0 0 0 1.782-13.818 37.046 37.046 0 0 0-1.956-6.485" stroke="#535461" stroke-width="2"/><path d="M41.083 167.818c0 1.71-3.095 6.667-3.095 6.667s-3.095-4.958-3.095-6.667a3.095 3.095 0 1 1 6.19 0zm5.115 9.467c-.93 1.434-6.222 3.915-6.222 3.915s.097-5.842 1.026-7.273a3.095 3.095 0 0 1 5.196 3.366v-.008zm-.222 16.178c-1.528.767-7.346.238-7.346.238s3.03-4.994 4.558-5.766a3.095 3.095 0 1 1 2.788 5.528zm-2.926 12.206c-1.373 1.018-7.2 1.474-7.2 1.474s2.146-5.434 3.52-6.464a3.095 3.095 0 0 1 3.68 4.978v.012zm-9.571-24.138c1.212 1.192 6.937 2.425 6.937 2.425s-1.398-5.657-2.626-6.87a3.096 3.096 0 1 0-4.311 4.445zm-3.241 14.315c1.528.768 7.346.239 7.346.239s-3.03-4.994-4.558-5.766a3.095 3.095 0 1 0-2.788 5.527zm-1.24 14.344c1.374 1.018 7.2 1.475 7.2 1.475s-2.145-5.435-3.52-6.465a3.095 3.095 0 1 0-3.68 4.978v.012z" fill="#D6E2F3" fill-rule="nonzero"/><path d="M41.083 167.818c0 1.71-3.095 6.667-3.095 6.667s-3.095-4.958-3.095-6.667a3.095 3.095 0 1 1 6.19 0zm5.115 9.467c-.93 1.434-6.222 3.915-6.222 3.915s.097-5.842 1.026-7.273a3.095 3.095 0 0 1 5.196 3.366v-.008zm-.222 16.178c-1.528.767-7.346.238-7.346.238s3.03-4.994 4.558-5.766a3.095 3.095 0 1 1 2.788 5.528zm-2.926 12.206c-1.373 1.018-7.2 1.474-7.2 1.474s2.146-5.434 3.52-6.464a3.095 3.095 0 0 1 3.68 4.978v.012zm-9.571-24.138c1.212 1.192 6.937 2.425 6.937 2.425s-1.398-5.657-2.626-6.87a3.096 3.096 0 1 0-4.311 4.445zm-3.241 14.315c1.528.768 7.346.239 7.346.239s-3.03-4.994-4.558-5.766a3.095 3.095 0 1 0-2.788 5.527zm-1.24 14.344c1.374 1.018 7.2 1.475 7.2 1.475s-2.145-5.435-3.52-6.465a3.095 3.095 0 1 0-3.68 4.978v.012z" fill="#000" fill-rule="nonzero" opacity=".25"/><g opacity=".7" fill-rule="nonzero"><path fill="#D6E2F3" opacity=".6" d="M0 32.323h400v204.04H0z"/><path d="M0 32.323v204.445h400V32.323H0zm17.778 17.778H191.11v75.556H17.778V50.1zm0 93.333H191.11v75.556H17.778v-75.556zm364.444 75.556H208.89v-75.556h173.333v75.556zm0-93.333H208.89V50.1h173.333v75.556z" fill="#000" opacity=".25"/></g><g opacity=".7" transform="translate(88.889 66.667)" fill-rule="nonzero"><path d="M57.822 178.537s-35.006-12.8-39.798 5.217l13.427 34.129 1.438 21.818h29.248V221.2s-4.315-18.489 6.716-29.863l-11.03-12.8z" fill="url(#a)"/><path d="M30.958.606c-1.487-.493-3.277-.933-4.49.049-.702.57-1.005 1.486-1.55 2.206-1.815 2.38-5.472 1.935-8.36 2.787-4.247 1.253-6.87 5.46-8.372 9.58-6.65 18.182.763 38.978-5.026 57.443-1.705 5.434-4.493 11.466-1.738 16.464.917 1.669 2.424 3.059 2.869 4.901.622 2.501-.578 5.782 1.52 7.305.654.473 1.482.623 2.266.808 4.719 1.245 8.295 4.918 11.89 8.182 3.597 3.265 7.92 6.425 12.797 6.21a20.89 20.89 0 0 0 4.638-.92l24.202-6.74c2.424-.675 5.059-1.491 6.465-3.56.86-1.264 1.131-2.828 1.35-4.331a114.11 114.11 0 0 0 1.183-17.346c0-1.915-.089-3.874-.808-5.656-.808-2.057-2.424-3.701-3.6-5.58-2.27-3.636-2.88-8.004-3.442-12.234-.893-6.736-1.786-13.604-.55-20.287.53-2.869 1.442-5.657 2.049-8.505a40.347 40.347 0 0 0 .46-14.113c-.566-3.9-1.778-7.855-4.444-10.788a11.277 11.277 0 0 0-6.707-3.637c-3.273-.404-4.901 1.48-7.819 2.182-4.315 1.08-10.634-3.05-14.783-4.42z" opacity=".1" transform="translate(32.727 76.364)" fill="url(#b)"/><path d="M63.685 76.004c-1.487-.493-3.277-.933-4.489.049-.703.57-1.006 1.486-1.552 2.206-1.814 2.38-5.47 1.935-8.36 2.787-4.246 1.253-6.868 5.46-8.37 9.58-6.651 18.182.763 38.978-5.027 57.443-1.705 5.434-4.493 11.466-1.738 16.464.918 1.669 2.425 3.059 2.87 4.901.621 2.501-.579 5.782 1.518 7.305.655.473 1.483.623 2.267.808 4.72 1.245 8.295 4.918 11.89 8.182 3.597 3.265 7.912 6.46 12.797 6.235 1.576-.13 3.132-.44 4.638-.922l24.202-6.739c2.425-.675 5.059-1.49 6.465-3.56.86-1.264 1.131-2.828 1.35-4.33a114.11 114.11 0 0 0 1.183-17.346c0-1.915-.089-3.875-.808-5.657-.808-2.056-2.424-3.7-3.6-5.58-2.27-3.636-2.88-8.004-3.442-12.234-.893-6.735-1.786-13.604-.55-20.287.53-2.869 1.443-5.656 2.049-8.505a40.347 40.347 0 0 0 .46-14.113c-.565-3.9-1.777-7.855-4.444-10.788a11.277 11.277 0 0 0-6.707-3.636c-3.273-.404-4.901 1.478-7.818 2.181-4.315 1.051-10.635-3.054-14.784-4.444z" fill="url(#c)"/><path d="M56.865 40.121s.48 18.012-5.273 17.54c-5.754-.473 16.287 29.862 16.287 29.862l18.699-9.955s-11.022-17.536-3.346-28.44c7.677-10.906-26.367-9.007-26.367-9.007z" fill="url(#d)"/><path d="M21.907 124.545s-3.834 26.073-13.426 18.962c-9.592-7.111-8.154-18.962-8.154-18.962S19.03 74.3 18.073 66.711C17.115 59.123 49.992.166 49.992.166L62.17 97.05s-36.429 13.272-40.263 27.494z" opacity=".1" transform="translate(2.828 68.687)" fill="url(#e)"/><path d="M23.778 193.232s-3.835 26.073-13.426 18.962c-9.592-7.111-8.154-18.962-8.154-18.962s18.703-50.246 17.741-57.834c-.961-7.588 31.92-66.545 31.92-66.545l12.177 96.884s-36.424 13.273-40.258 27.495z" fill="url(#f)"/><path d="M57.822 51.499S39.12 64.287 31.92 63.822l-5.588 1.52A30.67 30.67 0 0 0 4.198 88.965l-.089.452C1.24 104.59.28 146.308.28 146.308s.48 10.908 5.273 13.736l30.707 20.857s-.958-22.752 10.55-25.123c11.506-2.372-2.878-.95-2.878-.95l-21.099-12.323s.481-18.489 6.235-24.646c5.753-6.158 25.895-38.384 25.895-38.384l-5.754-19.907 8.614-8.069z" fill="url(#g)"/><path d="M2.885.388s11.778 3.083 20.024 4.59a8.299 8.299 0 0 1 5.996 4.525c2.489 5.135 6.283 14.424 5.628 22.17l7.192 27.967 20.606 24.647-18.695 8.537-21.09-23.228 17.26 44.085-32.13 1.422s-9.59-71.111-7.19-82.954L2.885.388z" opacity=".1" transform="translate(75.556 63.434)" fill="url(#h)"/><path d="M79.398 63.822s11.778 3.083 20.024 4.59a8.299 8.299 0 0 1 5.996 4.525c2.49 5.136 6.283 14.425 5.628 22.17l7.192 27.968 20.606 24.646-18.699 8.534-21.099-23.229 17.277 44.09-32.13 1.421s-9.591-71.11-7.191-82.953l2.396-31.762z" fill="url(#i)"/><path fill="url(#j)" d="M56.246 49.988l6.61 32.085-10.787 5.45-5.911-28.9zm18.118 34.456l5.034-20.622 6.477 12.09-3.358 9.955z"/><path d="M92.586 90.606s0 32.234 4.315 34.602" fill="url(#j)" opacity=".1"/><path d="M30.727 98.663s-9.951 31.745-7.135 35.07" fill="url(#k)" opacity=".1"/><path d="M28.812 142.267s19.184 12.4 21.818 12.598" fill="url(#l)" opacity=".1"/><path d="M.372.4S.444 3.176.186 6.517a22.069 22.069 0 0 0 20.323 13.334 22.5 22.5 0 0 0 3.535-.283c-.125-3.548.558-7.107 2.7-10.146C34.415-1.495.371.4.371.4z" opacity=".1" transform="translate(56.97 41.616)" fill="url(#m)"/><ellipse fill="url(#j)" cx="77.002" cy="37.754" rx="22.057" ry="21.806"/><path d="M46.15 28.182c2.67.355 6.06-.525 6.59-3.144.65-3.305-3.823-5.454-4.514-8.755-.258-1.237.049-2.53-.1-3.786-.3-2.53-2.368-4.477-4.473-5.948A34.695 34.695 0 0 0 20.776.521c-1.002.093-2.057.255-2.829.89-.88.714-1.212 1.878-1.822 2.827C14.057 7.543 9.41 7.931 6.077 9.992c-3.9 2.424-5.83 7.14-6.004 11.68-.174 4.542 1.135 8.999 2.424 13.362 1.103 3.71 2.259 7.52 4.679 10.558 2.42 3.038 6.436 5.16 10.238 4.246-1.741-1.24-.477-4.12 1.41-5.13 1.887-1.011 4.23-1.185 5.843-2.579 1.612-1.394 2.097-3.676 2.622-5.753.663-2.618 1.616-5.277 3.555-7.188 3.802-3.742 10.65-1.624 15.305-1.006z" opacity=".1" transform="translate(44.848 .404)" fill="url(#n)"/><path d="M90.505 28.113c2.67.356 6.06-.525 6.59-3.143.65-3.305-3.822-5.455-4.513-8.756-.259-1.236.048-2.53-.101-3.786-.3-2.529-2.368-4.476-4.473-5.947A34.695 34.695 0 0 0 65.148.448c-1.003.093-2.057.255-2.829.89-.88.715-1.212 1.878-1.822 2.828-2.069 3.305-6.715 3.693-10.049 5.753-3.899 2.424-5.83 7.14-6.004 11.681-.173 4.541 1.136 8.998 2.425 13.362 1.103 3.709 2.258 7.519 4.678 10.557 2.42 3.039 6.437 5.16 10.239 4.247-1.742-1.24-.477-4.122 1.41-5.132 1.887-1.01 4.23-1.183 5.842-2.577 1.613-1.394 2.097-3.677 2.623-5.754.662-2.618 1.616-5.277 3.555-7.188 3.798-3.737 10.647-1.624 15.29-1.002z" fill="url(#o)"/><path d="M7.33 1.907c-.324 2.255-1.043 6.158-2.397 8.622A68.954 68.954 0 0 0 .356 20.533s8.832 6.76 13.333 11.378a10.473 10.473 0 0 0 10.998 2.663c2.34-.84 4.388-2.465 4.933-5.511.857-4.804-.161-8.429-1.123-10.574a7.859 7.859 0 0 1-.032-6.465c.331-.727.719-1.297 1.151-1.438 0 0-8.63-1.895-9.11.473-.482 2.367-7.193 4.739-8.631.472l-.404-9.406A2.069 2.069 0 0 0 9.394.154a2.069 2.069 0 0 0-2.065 1.753z" opacity=".1" transform="translate(65.859 38.788)" fill="url(#p)"/><path d="M73.188 41.172c-.323 2.254-1.043 6.157-2.396 8.622a68.954 68.954 0 0 0-4.578 10.004s8.832 6.76 13.333 11.378a10.473 10.473 0 0 0 10.998 2.662c2.34-.84 4.388-2.464 4.934-5.51.856-4.805-.162-8.429-1.123-10.574a7.859 7.859 0 0 1-.033-6.465c.332-.727.72-1.297 1.152-1.438 0 0-8.63-1.895-9.111.472-.481 2.368-7.192 4.74-8.63.473l-.405-9.406a2.069 2.069 0 0 0-2.076-1.972 2.069 2.069 0 0 0-2.065 1.754z" fill="url(#q)"/></g><path d="M147.18 244.893s-33.604-12.428-38.206 5.063l12.889 33.13 1.37 21.2h28.08v-17.959s-4.141-17.951 6.465-29.002l-10.598-12.432z" fill="#535461" fill-rule="nonzero"/><path d="M152.808 146.263c-1.426-.477-3.147-.905-4.307.048-.675.554-.966 1.443-1.49 2.142-1.742 2.31-5.253 1.878-8.025 2.707-4.077 1.212-6.59 5.3-8.037 9.293-6.383 17.652.732 37.854-4.824 55.781-1.616 5.277-4.31 11.136-1.668 15.988.88 1.616 2.315 2.97 2.755 4.76.598 2.424-.553 5.616 1.459 7.095.626.46 1.422.602 2.173.808 4.53 1.212 7.964 4.776 11.415 7.947 3.45 3.172 7.604 6.239 12.282 6.033a19.798 19.798 0 0 0 4.445-.893l23.232-6.546c2.331-.658 4.849-1.45 6.21-3.458.808-1.212 1.087-2.74 1.297-4.206a112.093 112.093 0 0 0 1.136-16.845c0-1.858-.085-3.761-.768-5.49-.808-1.997-2.327-3.593-3.459-5.423-2.177-3.523-2.767-7.774-3.305-11.883-.856-6.541-1.713-13.212-.529-19.7.51-2.785 1.386-5.492 1.968-8.26a39.628 39.628 0 0 0 .444-13.704c-.541-3.786-1.709-7.629-4.263-10.477a10.792 10.792 0 0 0-6.44-3.532c-3.143-.404-4.707 1.439-7.507 2.122-4.141 1.014-10.21-2.974-14.194-4.307z" fill="#000" fill-rule="nonzero" opacity=".1"/><path d="M152.808 145.341c-1.426-.476-3.147-.905-4.307.049-.675.553-.966 1.442-1.49 2.141-1.742 2.311-5.253 1.88-8.025 2.707-4.077 1.213-6.59 5.301-8.037 9.293-6.383 17.653.732 37.855-4.824 55.782-1.616 5.277-4.31 11.135-1.668 15.988.88 1.616 2.315 2.97 2.755 4.76.598 2.424-.553 5.616 1.459 7.095.626.46 1.422.602 2.173.808 4.53 1.212 7.964 4.775 11.415 7.947 3.45 3.172 7.604 6.238 12.282 6.032a19.798 19.798 0 0 0 4.445-.892l23.236-6.542c2.332-.658 4.849-1.45 6.21-3.458.808-1.213 1.087-2.74 1.297-4.207A112.073 112.073 0 0 0 190.865 226c0-1.859-.085-3.762-.768-5.49-.808-1.997-2.327-3.593-3.459-5.423-2.177-3.523-2.767-7.774-3.305-11.883-.856-6.541-1.713-13.212-.529-19.701.51-2.784 1.386-5.49 1.968-8.259a39.628 39.628 0 0 0 .444-13.705c-.541-3.785-1.709-7.628-4.262-10.476a10.792 10.792 0 0 0-6.429-3.544c-3.143-.404-4.707 1.439-7.507 2.121-4.157 1.027-10.226-2.965-14.21-4.299z" fill="#E0E0E0" fill-rule="nonzero"/><path d="M146.263 110.48s.46 17.492-5.063 17.031c-5.523-.46 15.653 29.002 15.653 29.002l17.951-9.669s-10.586-17.03-3.232-27.62c7.353-10.59-25.31-8.743-25.31-8.743z" fill="#BE7C5E" fill-rule="nonzero"/><path d="M115.418 259.168s-3.68 25.317-12.889 18.412c-9.208-6.905-7.826-18.412-7.826-18.412s17.952-48.796 17.03-56.162c-.92-7.366 30.659-64.626 30.659-64.626l11.689 94.085s-34.982 12.893-38.663 26.703z" fill="#000" fill-rule="nonzero" opacity=".1"/><path d="M114.497 259.168s-3.68 25.317-12.889 18.412c-9.208-6.905-7.826-18.412-7.826-18.412s17.951-48.796 17.03-56.162c-.921-7.366 30.659-64.626 30.659-64.626l11.689 94.085s-34.982 12.893-38.663 26.703z" fill="#4D8AF0" fill-rule="nonzero"/><path d="M147.18 121.527s-17.952 12.429-24.857 11.968l-5.365 1.475a29.648 29.648 0 0 0-21.249 22.941l-.085.44c-2.763 14.732-3.68 55.24-3.68 55.24s.46 10.587 5.062 13.334l29.459 20.275s-.922-22.097 10.129-24.396c11.05-2.299-2.764-.921-2.764-.921l-20.254-11.972s.46-17.951 5.984-23.935c5.523-5.984 24.856-37.285 24.856-37.285l-5.523-19.354 8.287-7.81z" fill="#4D8AF0" fill-rule="nonzero"/><path d="M166.974 133.499s11.313 2.994 19.224 4.444a7.976 7.976 0 0 1 5.754 4.396c2.387 4.99 6.028 14.004 5.402 21.528l6.905 27.16 19.798 23.935-17.956 8.299-20.242-22.554 16.565 42.828-30.844 1.358s-9.208-69.05-6.905-80.558l2.299-30.836z" fill="#000" fill-rule="nonzero" opacity=".1"/><path d="M167.895 133.499s11.313 2.994 19.224 4.444a7.976 7.976 0 0 1 5.754 4.396c2.388 4.99 6.028 14.004 5.402 21.528l6.905 27.16 19.798 23.935-17.952 8.286-20.254-22.557 16.565 42.828-30.84 1.374s-9.208-69.05-6.905-80.558l2.303-30.836z" fill="#4D8AF0" fill-rule="nonzero"/><path fill="#E0E0E0" fill-rule="nonzero" d="M145.669 120.065l6.347 31.155-10.36 5.293-5.672-28.065zm17.394 33.458l4.832-20.024 6.214 11.737-3.22 9.67z"/><path d="M180.554 159.507s0 31.301 4.14 33.604m-63.522-25.794s-9.556 30.828-6.869 34.057m5.027 8.306s18.415 12.041 20.945 12.235m6.445-109.592s.072 2.695-.179 5.94a21.18 21.18 0 0 0 22.905 12.658c-.12-3.446.538-6.9 2.59-9.854 7.358-10.586-25.317-8.744-25.317-8.744z" fill="#000" fill-rule="nonzero" opacity=".1"/><circle fill="#BE7C5E" fill-rule="nonzero" cx="165.592" cy="108.182" r="21.176"/><path d="M179.026 99.28c2.566.344 5.835-.512 6.328-3.05.626-3.212-3.67-5.297-4.332-8.485-.25-1.212.049-2.456-.097-3.672-.287-2.457-2.274-4.348-4.295-5.774a33.022 33.022 0 0 0-21.96-5.85c-.96.092-1.975.246-2.718.86-.845.695-1.172 1.822-1.75 2.756-1.988 3.208-6.465 3.588-9.644 5.588-3.746 2.339-5.596 6.933-5.766 11.345-.17 4.412 1.09 8.74 2.335 12.974 1.059 3.604 2.17 7.3 4.493 10.25 2.323 2.95 6.182 5.01 9.826 4.121-1.672-1.212-.456-4.004 1.354-4.981 1.81-.978 4.04-1.148 5.612-2.505 1.572-1.358 2.02-3.572 2.517-5.588.639-2.546 1.56-5.124 3.414-6.982 3.645-3.677 10.202-1.608 14.683-1.006z" fill="#000" fill-rule="nonzero" opacity=".1"/><path d="M178.586 98.82c2.566.344 5.834-.513 6.327-3.05.626-3.212-3.669-5.297-4.331-8.485-.25-1.212.048-2.457-.097-3.673-.307-2.477-2.303-4.376-4.323-5.794a33.022 33.022 0 0 0-21.948-5.854c-.961.093-1.976.246-2.72.86-.843.695-1.17 1.822-1.749 2.756-1.987 3.208-6.464 3.588-9.644 5.588-3.745 2.34-5.596 6.933-5.766 11.345-.17 4.412 1.091 8.74 2.336 12.974 1.058 3.604 2.17 7.3 4.493 10.25 2.323 2.95 6.181 5.01 9.826 4.122-1.673-1.213-.457-4.004 1.353-4.982 1.81-.978 4.04-1.148 5.613-2.505 1.571-1.358 2.02-3.572 2.517-5.588.638-2.546 1.56-5.123 3.414-6.982 3.64-3.64 10.214-1.576 14.699-.982z" fill="#000" fill-rule="nonzero"/><path d="M161.931 111.038c-.31 2.19-1.002 5.98-2.303 8.372a67.337 67.337 0 0 0-4.396 9.697s8.485 6.566 12.788 11.05a9.972 9.972 0 0 0 10.558 2.586c2.246-.808 4.214-2.396 4.735-5.35.808-4.666-.153-8.185-1.075-10.27a7.713 7.713 0 0 1-.016-6.27c.32-.708.691-1.257 1.107-1.398 0 0-8.287-1.843-8.747.46-.46 2.303-6.905 4.602-8.287.46l-.38-9.135a1.996 1.996 0 0 0-1.996-1.915 1.992 1.992 0 0 0-1.988 1.713z" fill="#000" fill-rule="nonzero" opacity=".1"/><path d="M161.931 111.499c-.31 2.19-1.002 5.98-2.303 8.372a67.337 67.337 0 0 0-4.396 9.697s8.485 6.565 12.788 11.05a9.972 9.972 0 0 0 10.558 2.586c2.246-.808 4.214-2.396 4.735-5.35.808-4.666-.154-8.185-1.075-10.27a7.713 7.713 0 0 1-.028-6.287c.32-.707.69-1.257 1.107-1.398 0 0-8.287-1.843-8.747.46-.461 2.304-6.893 4.623-8.287.493l-.38-9.135a1.996 1.996 0 0 0-1.996-1.915 1.992 1.992 0 0 0-1.976 1.697z" fill="#000" fill-rule="nonzero"/><path d="M326.465 242.469s-8.32-8.328-11.378-19.394h.715l-.343-.962h.343l-1.083-3.079c3.067-3.014 5.334-5.935 5.701-7.596.622-2.796 1.24-17.923 1.616-28.436l.332.08c.808-1.381.977-3.122.92-4.702a18.234 18.234 0 0 0-.678-5.253l-1.499-15.01a10.238 10.238 0 0 0-3.94-7.05L301.98 139.28a9.66 9.66 0 0 1 2.982-2.643c.868-.46 1.878-.775 2.464-1.563 1.059-1.427.158-3.552.881-5.176.541-1.212 1.875-1.89 2.655-2.978 1.596-2.226.44-5.3-.752-7.765l-6.925-14.316c-1.92-3.963-3.855-7.96-6.538-11.45-8.214-10.7-24.02-16.02-36.905-11.382-3.672 1.321-7.054 3.859-8.622 7.43-.545 1.245-.873 2.602-1.664 3.705-1.766 2.461-5.213 2.926-7.677 4.695-3.148 2.275-4.315 6.558-3.875 10.417.44 3.858 2.21 7.422 3.956 10.909 1.834 3.636 3.729 7.381 6.739 10.137 1.406 1.289 3.127 2.485 3.576 4.34.384 1.591-.295 3.232-.154 4.88.06.686.26 1.352.59 1.956-6.8.852-11.624 6.5-13.786 14.905-.133.521-.186.808-.186.808l-.957 8.703c-.02.376 0 .74 0 1.099a11.446 11.446 0 0 0 1.212 5.656v30.558l-29.091 18.416c-4.364 1.94-3.394 17.45 5.333 20.356 8.728 2.905 16.49-15.479 16.49-15.479 5.312-.356 14.25-7.442 19.054-12.93a8.756 8.756 0 0 0 2.533 2.64c-3.467 7.813-10.323 23.979-9.228 27.26.658 1.98 17.685 2.161 36.089 1.773.47.262.964.48 1.474.65 1.964.655 3.88.227 5.657-.827 19.911-.57 39.16-1.596 39.16-1.596zm-24.57-59.253c.404-1.119 1.73-1.73 3.503-2.02v11.786l-3.503-9.766zm-1.693-41.414l.057-.085-.057.085z" fill="url(#r)" fill-rule="nonzero"/><path d="M256.51 168.485s-.922 32.683-1.843 36.828c-.922 4.146-14.263 16.55-21.176 17.03 0 0-7.366 17.491-15.653 14.732-8.286-2.76-9.208-17.491-5.062-19.334l27.628-17.495v-34.985l16.105 3.224z" fill="#FDB797" fill-rule="nonzero"/><path d="M255.818 208.53s-11.967 25.777-10.586 29.923c1.382 4.145 78.255 0 78.255 0s-14.27-14.271-11.507-29.924h-56.162z" fill="#3AD29F" fill-rule="nonzero"/><path d="M265.026 132.117s1.843 17.952-1.382 22.097c-3.224 4.146 12.89 6.465 14.271 6.465 1.382 0 16.113-5.063 18.873-6.465 2.76-1.402 5.063-11.507 5.063-11.507s-13.81 2.764-17.952-13.333l-18.873 2.743z" fill="#FDB797" fill-rule="nonzero"/><path d="M260.202 86.065c-3.487 1.256-6.703 3.664-8.19 7.058-.517 1.18-.828 2.469-1.58 3.52-1.676 2.335-4.95 2.775-7.272 4.444-2.99 2.161-4.097 6.226-3.681 9.895.416 3.669 2.097 7.05 3.753 10.347 1.742 3.463 3.544 7.01 6.4 9.629 1.334 1.212 2.97 2.36 3.394 4.12.364 1.512-.279 3.092-.145 4.64.331 3.825 4.905 5.607 8.723 6.031 1.66.186 3.56.194 4.731-.997.598-.615.901-1.447 1.277-2.215a10.614 10.614 0 0 1 18.933-.194c.897 1.722 1.419 3.815 3.047 4.849 2.493 1.616 5.83-.279 7.677-2.614 1.846-2.336 3.171-5.253 5.794-6.655.808-.44 1.785-.735 2.343-1.487 1.006-1.353.15-3.373.836-4.913.518-1.16 1.782-1.794 2.522-2.828 1.515-2.113.404-5.034-.716-7.374l-6.577-13.596c-1.823-3.765-3.66-7.56-6.206-10.877-7.819-10.133-22.829-15.187-35.063-10.783z" fill="#D6E2F3" fill-rule="nonzero"/><path d="M276.994 157.434s17.951 0 22.558-16.565l15.11 11.717a9.721 9.721 0 0 1 3.718 6.72l1.426 14.254s1.616 5.293-.23 8.517c0 0-19.103-4.849-19.564.69l13.333 37.286s-20.715.46-26.238-3.233c0 0-22.558 4.602-28.08-.46-5.524-5.063-11.047-4.602-6.465-16.114 0 0-9.208-9.208-5.063-22.097 4.145-12.888.23.23.23.23s-8.941-4.37-8.48-12.678l.92-8.287s.05-.275.178-.768c2.809-10.909 10.348-16.97 20.95-13.107 3.099 1.124 6.267-.165 6.267-.165s-3.459 14.982 9.43 14.06z" fill="#000" fill-rule="nonzero" opacity=".1"/><path d="M276.994 156.513s17.951 0 22.558-16.566l15.11 11.718a9.721 9.721 0 0 1 3.718 6.719l1.426 14.254s1.616 5.293-.23 8.518c0 0-19.103-4.849-19.564.69l13.333 37.285s-20.715.46-26.238-3.232c0 0-22.558 4.602-28.08-.46-5.524-5.063-11.047-4.603-6.465-16.114 0 0-9.208-9.208-5.063-22.097 4.145-12.889.23.23.23.23s-8.941-4.371-8.48-12.658l.92-8.287s.05-.275.178-.768c2.809-10.909 10.348-16.97 20.95-13.107 3.099 1.124 6.267-.165 6.267-.165s-3.459 14.961 9.43 14.04z" fill="#252A62" fill-rule="nonzero"/><path d="M319.576 172.166s-.921 32.682-1.843 36.828c-.92 4.145-14.27 16.566-21.175 17.03 0 0-7.366 17.491-15.653 14.732-8.287-2.76-9.208-17.491-5.063-19.334l27.62-17.49v-34.999l16.114 3.233z" fill="#FDB797" fill-rule="nonzero"/><path d="M299.798 173.317s10.586 7.184 19.798 6.586c0 0 .921-12.34-1.842-13.03-2.764-.691-14.752 0-17.956 6.444z" fill="#000" fill-rule="nonzero" opacity=".1"/><path d="M299.798 172.857s10.586 7.183 19.798 6.585c0 0 .921-12.339-1.842-13.03-2.764-.69-14.752 0-17.956 6.445z" fill="#252A62" fill-rule="nonzero"/><path d="M284.82 130.275l-18.873 2.763s.425 4.154.51 8.926a21.184 21.184 0 0 0 22.222-3.612c-1.592-1.944-2.954-4.57-3.859-8.077z" fill="#000" fill-rule="nonzero" opacity=".1"/><circle fill="#FDB797" fill-rule="nonzero" cx="273.774" cy="121.531" r="21.176"/><path d="M279.354 117.459a6.614 6.614 0 0 1-2.829.404 190.592 190.592 0 0 1-11.228-.404c-2.828-.19-5.859-.526-8.044-2.34-2.942-2.424-3.407-7.018-1.887-10.525 1.519-3.507 4.618-6.093 7.89-8.08a23.547 23.547 0 0 1 5.948-2.684c6.06-1.648 12.784.376 17.604 4.416 4.82 4.04 7.895 9.875 9.523 15.952.562 2.101 1.285 4.606 3.366 5.253-1.386 2.303-4.768 2.67-7.192 1.515-3.58-1.701-5.414-8.214-8.626-9.24-3.584-1.152-1.5 4.343-4.525 5.733z" fill="#000" fill-rule="nonzero" opacity=".1"/><path d="M279.354 116.998a6.614 6.614 0 0 1-2.829.404 190.592 190.592 0 0 1-11.228-.404c-2.828-.19-5.859-.525-8.044-2.34-2.942-2.424-3.407-7.018-1.887-10.525 1.519-3.507 4.618-6.093 7.89-8.08a23.547 23.547 0 0 1 5.944-2.675c6.06-1.649 12.784.376 17.604 4.416 4.82 4.04 7.895 9.875 9.523 15.951.562 2.101 1.285 4.607 3.366 5.253-1.386 2.303-4.768 2.67-7.192 1.515-3.58-1.7-5.414-8.214-8.626-9.24-3.58-1.16-1.495 4.327-4.521 5.725z" fill="#D6E2F3" fill-rule="nonzero"/><path d="M252.368 199.095a81.548 81.548 0 0 1 21.167-2.764m26.263-22.093s-6.905 5.063-5.063 7.827" fill="#000" fill-rule="nonzero" opacity=".1"/><path d="M226.388.17H.364v19.765h13.155V82.11h200.182V19.934h12.687z" opacity=".7" transform="translate(120.808 224.242)" fill="url(#s)" fill-rule="nonzero"/><path fill="#E0E0E0" fill-rule="nonzero" d="M136.364 235.923h196.101v70.432H136.364z"/><path fill="#000" fill-rule="nonzero" opacity=".1" d="M136.364 239.604h196.101v11.046H136.364z"/><path fill="#E0E0E0" fill-rule="nonzero" d="M123.475 228.097h221.418v18.873H123.475z"/><rect fill="#535461" fill-rule="nonzero" x="155.208" y="223.451" width="42.352" height="5.984" rx="2.992"/><rect x=".38" y=".368" width="105.261" height="72.78" rx="28.22" opacity=".7" transform="translate(180.606 156.364)" fill="url(#t)" fill-rule="nonzero"/><rect fill="#3E3F49" fill-rule="nonzero" x="182.861" y="158.073" width="99.713" height="71.434" rx="26.84"/><rect fill="#535461" fill-rule="nonzero" x="184.242" y="158.073" width="99.713" height="71.434" rx="26.84"/><circle fill="#E0E0E0" fill-rule="nonzero" cx="238.756" cy="193.301" r="3.224"/><path d="M106.901 237.301s2.723 3.996 10.8 5.22" fill="#000" fill-rule="nonzero" opacity=".1"/><path d="M178.99 32.323h-28.687V16.162h28.687v16.161zm-27.475-1.212h26.263V17.374h-26.263V31.11zm56.162 1.212H178.99V16.162h28.687v16.161zm-27.475-1.212h26.263V17.374h-26.263V31.11z" fill="#D6E2F3" fill-rule="nonzero" opacity=".2"/><path d="M236.364 32.323h-28.687V16.162h28.687v16.161zm-27.475-1.212h26.263V17.374h-26.263V31.11zm56.161 1.212h-28.686V16.162h28.687v16.161zm-27.474-1.212h26.262V17.374h-26.262V31.11zm-1.212-14.949h-28.687V0h28.687v16.162zm-27.475-1.213h26.263V1.212h-26.263V14.95zm-1.212 1.213H178.99V0h28.687v16.162zm-27.475-1.213h26.263V1.212h-26.263V14.95zM72.727 32.323H44.04V16.162h28.687v16.161zm-27.474-1.212h26.262V17.374H45.253V31.11zm56.161 1.212H72.727V16.162h28.687v16.161zM73.94 31.111h26.263V17.374H73.939V31.11zm27.474-14.949H72.727V0h28.687v16.162zM73.94 14.949h26.263V1.212H73.939V14.95zm249.292 17.374h-28.687V16.162h28.687v16.161zm-27.474-1.212h26.262V17.374h-26.262V31.11zm56.162 1.212h-28.688V16.162h28.687v16.161zm-27.476-1.212h26.263V17.374h-26.263V31.11zm27.476-14.949h-28.688V0h28.687v16.162zm-27.476-1.213h26.263V1.212h-26.263V14.95z" fill="#D6E2F3" fill-rule="nonzero" opacity=".2"/></g></svg>