<?xml version="1.0" encoding="UTF-8"?>
<svg width="640px" height="400px" viewBox="0 0 640 400" version="1.1" xmlns="http://www.w3.org/2000/svg" xmlns:xlink="http://www.w3.org/1999/xlink">
    <!-- Generator: Sketch 50.2 (55047) - http://www.bohemiancoding.com/sketch -->
    <title>undraw_building_blocks_n0nc</title>
    <desc>Created with Sketch.</desc>
    <defs>
        <linearGradient x1="50%" y1="100%" x2="50%" y2="8.04145242e-15%" id="linearGradient-1">
            <stop stop-color="#808080" stop-opacity="0.25" offset="0%"></stop>
            <stop stop-color="#808080" stop-opacity="0.12" offset="54%"></stop>
            <stop stop-color="#808080" stop-opacity="0.1" offset="100%"></stop>
        </linearGradient>
        <linearGradient x1="50.0139799%" y1="100.014927%" x2="50.0139799%" y2="0.00226217574%" id="linearGradient-2">
            <stop stop-color="#808080" stop-opacity="0.25" offset="0%"></stop>
            <stop stop-color="#808080" stop-opacity="0.12" offset="54%"></stop>
            <stop stop-color="#808080" stop-opacity="0.1" offset="100%"></stop>
        </linearGradient>
    </defs>
    <g id="Page-1" stroke="none" stroke-width="1" fill="none" fill-rule="evenodd">
        <g id="undraw_building_blocks_n0nc">
            <rect id="Rectangle-path" fill="#D6E2F3" fill-rule="nonzero" x="98.5069124" y="251.403994" width="63.2872504" height="25.1920123" rx="8.84"></rect>
            <rect id="Rectangle-path" fill="#D6E2F3" fill-rule="nonzero" x="161.794163" y="251.403994" width="63.2872504" height="25.1920123" rx="8.84"></rect>
            <rect id="Rectangle-path" fill="#000000" fill-rule="nonzero" opacity="0.1" x="161.794163" y="251.403994" width="63.2872504" height="25.1920123" rx="8.84"></rect>
            <rect id="Rectangle-path" fill="#D6E2F3" fill-rule="nonzero" x="225.081413" y="251.403994" width="63.2872504" height="25.1920123" rx="8.84"></rect>
            <rect id="Rectangle-path" fill="#D6E2F3" fill-rule="nonzero" x="288.368664" y="251.403994" width="63.2872504" height="25.1920123" rx="8.84"></rect>
            <rect id="Rectangle-path" fill="#000000" fill-rule="nonzero" opacity="0.1" x="288.368664" y="251.403994" width="63.2872504" height="25.1920123" rx="8.84"></rect>
            <rect id="Rectangle-path" fill="#D6E2F3" fill-rule="nonzero" x="351.655914" y="251.403994" width="63.2872504" height="25.1920123" rx="8.84"></rect>
            <rect id="Rectangle-path" fill="#D6E2F3" fill-rule="nonzero" x="414.943164" y="251.403994" width="63.2872504" height="25.1920123" rx="8.84"></rect>
            <rect id="Rectangle-path" fill="#000000" fill-rule="nonzero" opacity="0.1" x="414.943164" y="251.403994" width="63.2872504" height="25.1920123" rx="8.84"></rect>
            <rect id="Rectangle-path" fill="#D6E2F3" fill-rule="nonzero" transform="translate(446.586790, 238.807988) rotate(-180.000000) translate(-446.586790, -238.807988) " x="414.943164" y="226.211982" width="63.2872504" height="25.1920123" rx="8.84"></rect>
            <rect id="Rectangle-path" fill="#D6E2F3" fill-rule="nonzero" transform="translate(383.299539, 238.807988) rotate(-180.000000) translate(-383.299539, -238.807988) " x="351.655914" y="226.211982" width="63.2872504" height="25.1920123" rx="8.84"></rect>
            <rect id="Rectangle-path" fill="#000000" fill-rule="nonzero" opacity="0.1" transform="translate(383.299539, 238.807988) rotate(-180.000000) translate(-383.299539, -238.807988) " x="351.655914" y="226.211982" width="63.2872504" height="25.1920123" rx="8.84"></rect>
            <rect id="Rectangle-path" fill="#D6E2F3" fill-rule="nonzero" transform="translate(320.012289, 238.807988) rotate(-180.000000) translate(-320.012289, -238.807988) " x="288.368664" y="226.211982" width="63.2872504" height="25.1920123" rx="8.84"></rect>
            <rect id="Rectangle-path" fill="#D6E2F3" fill-rule="nonzero" transform="translate(256.725038, 238.807988) rotate(-180.000000) translate(-256.725038, -238.807988) " x="225.081413" y="226.211982" width="63.2872504" height="25.1920123" rx="8.84"></rect>
            <rect id="Rectangle-path" fill="#000000" fill-rule="nonzero" opacity="0.1" transform="translate(256.725038, 238.807988) rotate(-180.000000) translate(-256.725038, -238.807988) " x="225.081413" y="226.211982" width="63.2872504" height="25.1920123" rx="8.84"></rect>
            <rect id="Rectangle-path" fill="#D6E2F3" fill-rule="nonzero" transform="translate(193.437788, 238.807988) rotate(-180.000000) translate(-193.437788, -238.807988) " x="161.794163" y="226.211982" width="63.2872504" height="25.1920123" rx="8.84"></rect>
            <rect id="Rectangle-path" fill="#D6E2F3" fill-rule="nonzero" transform="translate(130.150538, 238.807988) rotate(-180.000000) translate(-130.150538, -238.807988) " x="98.5069124" y="226.211982" width="63.2872504" height="25.1920123" rx="8.84"></rect>
            <rect id="Rectangle-path" fill="#000000" fill-rule="nonzero" opacity="0.1" transform="translate(130.150538, 238.807988) rotate(-180.000000) translate(-130.150538, -238.807988) " x="98.5069124" y="226.211982" width="63.2872504" height="25.1920123" rx="8.84"></rect>
            <rect id="Rectangle-path" fill="#D6E2F3" fill-rule="nonzero" x="98.5069124" y="201.019969" width="63.2872504" height="25.1920123" rx="8.84"></rect>
            <rect id="Rectangle-path" fill="#D6E2F3" fill-rule="nonzero" x="161.794163" y="201.019969" width="63.2872504" height="25.1920123" rx="8.84"></rect>
            <rect id="Rectangle-path" fill="#000000" fill-rule="nonzero" opacity="0.1" x="161.794163" y="201.019969" width="63.2872504" height="25.1920123" rx="8.84"></rect>
            <rect id="Rectangle-path" fill="#D6E2F3" fill-rule="nonzero" x="225.081413" y="201.019969" width="63.2872504" height="25.1920123" rx="8.84"></rect>
            <rect id="Rectangle-path" fill="#D6E2F3" fill-rule="nonzero" x="288.368664" y="201.019969" width="63.2872504" height="25.1920123" rx="8.84"></rect>
            <rect id="Rectangle-path" fill="#000000" fill-rule="nonzero" opacity="0.1" x="288.368664" y="201.019969" width="63.2872504" height="25.1920123" rx="8.84"></rect>
            <rect id="Rectangle-path" fill="#D6E2F3" fill-rule="nonzero" x="351.655914" y="201.019969" width="63.2872504" height="25.1920123" rx="8.84"></rect>
            <rect id="Rectangle-path" fill="#D6E2F3" fill-rule="nonzero" x="414.943164" y="201.019969" width="63.2872504" height="25.1920123" rx="8.84"></rect>
            <rect id="Rectangle-path" fill="#000000" fill-rule="nonzero" opacity="0.1" x="414.943164" y="201.019969" width="63.2872504" height="25.1920123" rx="8.84"></rect>
            <rect id="Rectangle-path" fill="#D6E2F3" fill-rule="nonzero" transform="translate(446.586790, 188.423963) rotate(-180.000000) translate(-446.586790, -188.423963) " x="414.943164" y="175.827957" width="63.2872504" height="25.1920123" rx="8.84"></rect>
            <rect id="Rectangle-path" fill="#D6E2F3" fill-rule="nonzero" transform="translate(383.299539, 188.423963) rotate(-180.000000) translate(-383.299539, -188.423963) " x="351.655914" y="175.827957" width="63.2872504" height="25.1920123" rx="8.84"></rect>
            <rect id="Rectangle-path" fill="#000000" fill-rule="nonzero" opacity="0.1" transform="translate(383.299539, 188.423963) rotate(-180.000000) translate(-383.299539, -188.423963) " x="351.655914" y="175.827957" width="63.2872504" height="25.1920123" rx="8.84"></rect>
            <rect id="Rectangle-path" fill="#D6E2F3" fill-rule="nonzero" transform="translate(320.012289, 188.423963) rotate(-180.000000) translate(-320.012289, -188.423963) " x="288.368664" y="175.827957" width="63.2872504" height="25.1920123" rx="8.84"></rect>
            <rect id="Rectangle-path" fill="#D6E2F3" fill-rule="nonzero" transform="translate(256.725038, 188.423963) rotate(-180.000000) translate(-256.725038, -188.423963) " x="225.081413" y="175.827957" width="63.2872504" height="25.1920123" rx="8.84"></rect>
            <rect id="Rectangle-path" fill="#000000" fill-rule="nonzero" opacity="0.1" transform="translate(256.725038, 188.423963) rotate(-180.000000) translate(-256.725038, -188.423963) " x="225.081413" y="175.827957" width="63.2872504" height="25.1920123" rx="8.84"></rect>
            <rect id="Rectangle-path" fill="#D6E2F3" fill-rule="nonzero" transform="translate(193.437788, 188.423963) rotate(-180.000000) translate(-193.437788, -188.423963) " x="161.794163" y="175.827957" width="63.2872504" height="25.1920123" rx="8.84"></rect>
            <rect id="Rectangle-path" fill="#D6E2F3" fill-rule="nonzero" transform="translate(130.150538, 188.423963) rotate(-180.000000) translate(-130.150538, -188.423963) " x="98.5069124" y="175.827957" width="63.2872504" height="25.1920123" rx="8.84"></rect>
            <rect id="Rectangle-path" fill="#000000" fill-rule="nonzero" opacity="0.1" transform="translate(130.150538, 188.423963) rotate(-180.000000) translate(-130.150538, -188.423963) " x="98.5069124" y="175.827957" width="63.2872504" height="25.1920123" rx="8.84"></rect>
            <rect id="Rectangle-path" fill="#D6E2F3" fill-rule="nonzero" x="98.5069124" y="151.864823" width="63.2872504" height="25.1920123" rx="8.84"></rect>
            <rect id="Rectangle-path" fill="#D6E2F3" fill-rule="nonzero" x="161.794163" y="151.864823" width="63.2872504" height="25.1920123" rx="8.84"></rect>
            <rect id="Rectangle-path" fill="#000000" fill-rule="nonzero" opacity="0.1" x="161.794163" y="151.864823" width="63.2872504" height="25.1920123" rx="8.84"></rect>
            <rect id="Rectangle-path" fill="#D6E2F3" fill-rule="nonzero" x="225.081413" y="151.864823" width="63.2872504" height="25.1920123" rx="8.84"></rect>
            <rect id="Rectangle-path" fill="#D6E2F3" fill-rule="nonzero" x="288.368664" y="151.864823" width="63.2872504" height="25.1920123" rx="8.84"></rect>
            <rect id="Rectangle-path" fill="#000000" fill-rule="nonzero" opacity="0.1" x="288.368664" y="151.864823" width="63.2872504" height="25.1920123" rx="8.84"></rect>
            <rect id="Rectangle-path" fill="#D6E2F3" fill-rule="nonzero" x="351.655914" y="151.864823" width="63.2872504" height="25.1920123" rx="8.84"></rect>
            <rect id="Rectangle-path" fill="#D6E2F3" fill-rule="nonzero" x="414.943164" y="151.864823" width="63.2872504" height="25.1920123" rx="8.84"></rect>
            <rect id="Rectangle-path" fill="#000000" fill-rule="nonzero" opacity="0.1" x="414.943164" y="151.864823" width="63.2872504" height="25.1920123" rx="8.84"></rect>
            <rect id="Rectangle-path" fill="#D6E2F3" fill-rule="nonzero" transform="translate(446.586790, 139.268817) rotate(-180.000000) translate(-446.586790, -139.268817) " x="414.943164" y="126.672811" width="63.2872504" height="25.1920123" rx="8.84"></rect>
            <rect id="Rectangle-path" fill="#D6E2F3" fill-rule="nonzero" transform="translate(383.299539, 139.268817) rotate(-180.000000) translate(-383.299539, -139.268817) " x="351.655914" y="126.672811" width="63.2872504" height="25.1920123" rx="8.84"></rect>
            <rect id="Rectangle-path" fill="#000000" fill-rule="nonzero" opacity="0.1" transform="translate(383.299539, 139.268817) rotate(-180.000000) translate(-383.299539, -139.268817) " x="351.655914" y="126.672811" width="63.2872504" height="25.1920123" rx="8.84"></rect>
            <rect id="Rectangle-path" fill="#D6E2F3" fill-rule="nonzero" transform="translate(320.012289, 139.268817) rotate(-180.000000) translate(-320.012289, -139.268817) " x="288.368664" y="126.672811" width="63.2872504" height="25.1920123" rx="8.84"></rect>
            <rect id="Rectangle-path" fill="#D6E2F3" fill-rule="nonzero" transform="translate(256.725038, 139.268817) rotate(-180.000000) translate(-256.725038, -139.268817) " x="225.081413" y="126.672811" width="63.2872504" height="25.1920123" rx="8.84"></rect>
            <rect id="Rectangle-path" fill="#000000" fill-rule="nonzero" opacity="0.1" transform="translate(256.725038, 139.268817) rotate(-180.000000) translate(-256.725038, -139.268817) " x="225.081413" y="126.672811" width="63.2872504" height="25.1920123" rx="8.84"></rect>
            <rect id="Rectangle-path" fill="#D6E2F3" fill-rule="nonzero" transform="translate(193.437788, 139.268817) rotate(-180.000000) translate(-193.437788, -139.268817) " x="161.794163" y="126.672811" width="63.2872504" height="25.1920123" rx="8.84"></rect>
            <rect id="Rectangle-path" fill="#D6E2F3" fill-rule="nonzero" transform="translate(130.150538, 139.268817) rotate(-180.000000) translate(-130.150538, -139.268817) " x="98.5069124" y="126.672811" width="63.2872504" height="25.1920123" rx="8.84"></rect>
            <rect id="Rectangle-path" fill="#000000" fill-rule="nonzero" opacity="0.1" transform="translate(130.150538, 139.268817) rotate(-180.000000) translate(-130.150538, -139.268817) " x="98.5069124" y="126.672811" width="63.2872504" height="25.1920123" rx="8.84"></rect>
            <rect id="Rectangle-path" fill="#D6E2F3" fill-rule="nonzero" x="98.5069124" y="101.480799" width="63.2872504" height="25.1920123" rx="8.84"></rect>
            <rect id="Rectangle-path" fill="#D6E2F3" fill-rule="nonzero" x="161.794163" y="101.480799" width="63.2872504" height="25.1920123" rx="8.84"></rect>
            <rect id="Rectangle-path" fill="#000000" fill-rule="nonzero" opacity="0.1" x="161.794163" y="101.480799" width="63.2872504" height="25.1920123" rx="8.84"></rect>
            <rect id="Rectangle-path" fill="#D6E2F3" fill-rule="nonzero" x="225.081413" y="101.480799" width="63.2872504" height="25.1920123" rx="8.84"></rect>
            <rect id="Rectangle-path" fill="#D6E2F3" fill-rule="nonzero" x="288.368664" y="101.480799" width="63.2872504" height="25.1920123" rx="8.84"></rect>
            <rect id="Rectangle-path" fill="#000000" fill-rule="nonzero" opacity="0.1" x="288.368664" y="101.480799" width="63.2872504" height="25.1920123" rx="8.84"></rect>
            <rect id="Rectangle-path" fill="#D6E2F3" fill-rule="nonzero" x="351.655914" y="101.480799" width="63.2872504" height="25.1920123" rx="8.84"></rect>
            <rect id="Rectangle-path" fill="#D6E2F3" fill-rule="nonzero" x="414.943164" y="101.480799" width="63.2872504" height="25.1920123" rx="8.84"></rect>
            <rect id="Rectangle-path" fill="#000000" fill-rule="nonzero" opacity="0.1" x="414.943164" y="101.480799" width="63.2872504" height="25.1920123" rx="8.84"></rect>
            <rect id="Rectangle-path" fill="url(#linearGradient-1)" fill-rule="nonzero" x="410.02765" y="17.5545315" width="68.202765" height="27.1459293" rx="8.84"></rect>
            <rect id="Rectangle-path" fill="#D6E2F3" fill-rule="nonzero" transform="translate(444.129032, 31.127496) rotate(-180.000000) translate(-444.129032, -31.127496) " x="412.485407" y="18.53149" width="63.2872504" height="25.1920123" rx="8.84"></rect>
            <rect id="Rectangle-path" fill="#D6E2F3" fill-rule="nonzero" transform="translate(383.299539, 88.884793) rotate(-180.000000) translate(-383.299539, -88.884793) " x="351.655914" y="76.2887865" width="63.2872504" height="25.1920123" rx="8.84"></rect>
            <rect id="Rectangle-path" fill="#000000" fill-rule="nonzero" opacity="0.1" transform="translate(383.299539, 88.884793) rotate(-180.000000) translate(-383.299539, -88.884793) " x="351.655914" y="76.2887865" width="63.2872504" height="25.1920123" rx="8.84"></rect>
            <rect id="Rectangle-path" fill="#D6E2F3" fill-rule="nonzero" transform="translate(320.012289, 88.884793) rotate(-180.000000) translate(-320.012289, -88.884793) " x="288.368664" y="76.2887865" width="63.2872504" height="25.1920123" rx="8.84"></rect>
            <rect id="Rectangle-path" fill="#D6E2F3" fill-rule="nonzero" transform="translate(256.725038, 88.884793) rotate(-180.000000) translate(-256.725038, -88.884793) " x="225.081413" y="76.2887865" width="63.2872504" height="25.1920123" rx="8.84"></rect>
            <rect id="Rectangle-path" fill="#000000" fill-rule="nonzero" opacity="0.1" transform="translate(256.725038, 88.884793) rotate(-180.000000) translate(-256.725038, -88.884793) " x="225.081413" y="76.2887865" width="63.2872504" height="25.1920123" rx="8.84"></rect>
            <rect id="Rectangle-path" fill="#D6E2F3" fill-rule="nonzero" transform="translate(193.437788, 88.884793) rotate(-180.000000) translate(-193.437788, -88.884793) " x="161.794163" y="76.2887865" width="63.2872504" height="25.1920123" rx="8.84"></rect>
            <rect id="Rectangle-path" fill="#D6E2F3" fill-rule="nonzero" transform="translate(130.150538, 88.884793) rotate(-180.000000) translate(-130.150538, -88.884793) " x="98.5069124" y="76.2887865" width="63.2872504" height="25.1920123" rx="8.84"></rect>
            <rect id="Rectangle-path" fill="#000000" fill-rule="nonzero" opacity="0.1" transform="translate(130.150538, 88.884793) rotate(-180.000000) translate(-130.150538, -88.884793) " x="98.5069124" y="76.2887865" width="63.2872504" height="25.1920123" rx="8.84"></rect>
            <ellipse id="Oval" fill="#F5F5F5" fill-rule="nonzero" cx="306.605223" cy="329.745008" rx="306.605223" ry="69.7388633"></ellipse>
            <path d="M70.015361,298.445469 C70.015361,298.445469 75.5453149,279.760369 68.9831029,266.003072 C66.2016707,260.251799 65.3628922,253.752882 66.5929339,247.483871 C67.199993,244.511687 68.0782192,241.601406 69.2165899,238.789555" id="Shape" stroke="#535461" stroke-width="2"></path>
            <path d="M65.1490015,230.101382 C65.1490015,232.393241 69.296467,239.03533 69.296467,239.03533 C69.296467,239.03533 73.4439324,232.393241 73.4439324,230.101382 C73.4439324,227.810801 71.5870489,225.953917 69.296467,225.953917 C67.0058851,225.953917 65.1490015,227.810801 65.1490015,230.101382 Z" id="Shape" fill="#D6E2F3" fill-rule="nonzero"></path>
            <path d="M58.2918587,242.789555 C59.5207373,244.71275 66.6298003,248.030722 66.6298003,248.030722 C66.6298003,248.030722 66.500768,240.202765 65.2534562,238.27957 C64.0023736,236.371456 61.4449767,235.832251 59.530019,237.072833 C57.6150614,238.313414 57.0618156,240.867811 58.2918587,242.789555 Z" id="Shape" fill="#D6E2F3" fill-rule="nonzero"></path>
            <path d="M58.5929339,264.466974 C60.6390169,265.499232 68.4239631,264.786482 68.4239631,264.786482 C68.4239631,264.786482 64.3625192,258.095238 62.3164363,257.06298 C60.2808706,256.089222 57.8403112,256.921506 56.8238303,258.936077 C55.8073495,260.950649 56.5879646,263.408222 58.5806452,264.466974 L58.5929339,264.466974 Z" id="Shape" fill="#D6E2F3" fill-rule="nonzero"></path>
            <path d="M62.5130568,280.817204 C64.3563748,282.18126 72.1597542,282.795699 72.1597542,282.795699 C72.1597542,282.795699 69.2841782,275.514593 67.4470046,274.150538 C65.6053742,272.939966 63.1385679,273.381132 61.830671,275.154967 C60.522774,276.928802 60.8305878,279.41577 62.53149,280.817204 L62.5130568,280.817204 Z" id="Shape" fill="#D6E2F3" fill-rule="nonzero"></path>
            <path d="M75.3364055,248.473118 C73.6958525,250.070661 66.0399386,251.723502 66.0399386,251.723502 C66.0399386,251.723502 67.9139785,244.122888 69.5545315,242.506912 C70.6169987,241.47408 72.1497685,241.086523 73.5754612,241.49023 C75.001154,241.893938 76.103173,243.027577 76.4663984,244.464117 C76.8296238,245.900657 76.3988729,247.421853 75.3364055,248.454685 L75.3364055,248.473118 Z" id="Shape" fill="#D6E2F3" fill-rule="nonzero"></path>
            <path d="M79.6804916,267.637481 C77.6344086,268.669739 69.8494624,267.956989 69.8494624,267.956989 C69.8494624,267.956989 73.9109063,261.265745 75.9569892,260.233487 C77.9829402,259.319506 80.3692499,260.165013 81.3678267,262.150632 C82.3664035,264.136251 81.6222481,266.556084 79.6804916,267.637481 Z" id="Shape" fill="#D6E2F3" fill-rule="nonzero"></path>
            <path d="M81.3394777,286.88172 C79.4961598,288.245776 71.6927803,288.860215 71.6927803,288.860215 C71.6927803,288.860215 74.5683564,281.579109 76.40553,280.215054 C78.2471603,279.004482 80.7139667,279.445648 82.0218636,281.219483 C83.3297605,282.993318 83.0219468,285.480286 81.3210445,286.88172 L81.3394777,286.88172 Z" id="Shape" fill="#D6E2F3" fill-rule="nonzero"></path>
            <path d="M366.807988,192.552995 C366.807988,192.552995 387.016897,212.761905 375.606759,242.746544 C364.196621,272.731183 395.164363,322.623656 395.164363,322.623656 C395.164363,322.623656 394.832565,322.574501 394.218126,322.463902 C352.71275,315.109063 332.092166,267.637481 355.170507,232.380952 C363.74808,219.268817 370.795699,203.895545 366.807988,192.552995 Z" id="Shape" fill="#D6E2F3" fill-rule="nonzero"></path>
            <path d="M366.807988,192.552995 C366.807988,192.552995 387.016897,212.761905 375.606759,242.746544 C364.196621,272.731183 395.164363,322.623656 395.164363,322.623656 C395.164363,322.623656 394.832565,322.574501 394.218126,322.463902 C352.71275,315.109063 332.092166,267.637481 355.170507,232.380952 C363.74808,219.268817 370.795699,203.895545 366.807988,192.552995 Z" id="Shape" fill="#000000" fill-rule="nonzero" opacity="0.2"></path>
            <path d="M366.807988,192.552995 C366.807988,192.552995 378.218126,217.321045 366.807988,237.529954 C355.397849,257.738863 364.854071,314.445469 395.182796,322.592934" id="Shape" stroke="#535461"></path>
            <path d="M330.820276,274.27957 C330.820276,274.27957 353.880184,270.592934 355.981567,291.274962 C358.082949,311.956989 400.319508,314.801843 400.319508,314.801843 L399.526882,315.330261 C364.651306,338.22427 331.324117,329.910906 336.337942,299.514593 C338.205837,288.215054 338.039939,276.854071 330.820276,274.27957 Z" id="Shape" fill="#D6E2F3" fill-rule="nonzero"></path>
            <path d="M330.820276,274.27957 C330.820276,274.27957 353.880184,270.592934 355.981567,291.274962 C358.082949,311.956989 400.319508,314.801843 400.319508,314.801843 L399.526882,315.330261 C364.651306,338.22427 331.324117,329.910906 336.337942,299.514593 C338.205837,288.215054 338.039939,276.854071 330.820276,274.27957 Z" id="Shape" fill="#F5F5F5" fill-rule="nonzero" opacity="0.2"></path>
            <path d="M330.820276,274.27957 C330.820276,274.27957 348.718894,278.205837 347.250384,294.482335 C345.781874,310.758833 373.831029,330.267281 400.319508,314.801843" id="Shape" stroke="#535461"></path>
            <path d="M506.254992,321.849462 C506.254992,321.849462 472.030722,315.004608 462.900154,305.87404 C453.769585,296.743472 412.700461,280.774194 408.135177,292.184332 C403.569892,303.59447 346.53149,342.390169 385.351767,349.235023 C424.172043,356.079877 476.620584,358.359447 488.030722,353.800307 C499.44086,349.241167 506.254992,321.849462 506.254992,321.849462 Z" id="Shape" fill="#A8A8A8" fill-rule="nonzero"></path>
            <path d="M385.351767,344.995392 C424.141321,351.840246 476.620584,354.119816 488.030722,349.560676 C496.718894,346.082949 502.777266,329.388633 505.142857,321.615975 L506.285714,321.855607 C506.285714,321.855607 499.44086,349.235023 488.030722,353.806452 C476.620584,358.37788 424.129032,356.086022 385.351767,349.241167 C374.156682,347.262673 370.955453,342.623656 372.159754,336.749616 C373.06298,340.577573 376.989247,343.520737 385.351767,344.995392 Z" id="Shape" fill="#000000" fill-rule="nonzero" opacity="0.2"></path>
            <path d="M575.502304,17.9231951 C574.892086,16.403217 573.919697,15.0553719 572.669739,13.9969278 C563.483871,5.62826421 548.632873,8.16589862 537.228879,3.04761905 C534.599078,1.86789555 531.907834,0.233486943 529.056836,0.68202765 C525.075269,1.29646697 521.3702,5.84331797 517.898618,3.82795699 L518.144393,4.58371736 L517.898618,4.4546851 L520.454685,12.2334869 C521.437788,15.2196621 522.470046,18.2918587 524.374808,20.7803379 C518.644098,25.777501 515.842865,33.3426518 516.937107,40.8669665 C518.03135,48.3912811 522.87134,54.8451877 529.788018,58.0030722 C529.910906,58.2611367 530.02765,58.5253456 530.144393,58.7895545 L530.470046,58.9247312 C531.226342,60.6646955 531.790859,62.4818641 532.15361,64.344086 C529.198157,64.7557604 524.043011,68.030722 518.980031,72.8479263 L508.854071,72.5099846 C502.304604,72.2913354 495.966947,70.1360191 490.642089,66.3164363 L460.313364,44.5345622 C458.152925,44.7473395 456.117725,45.6475656 454.506912,47.1029186 C450.746544,43.1827957 447.551459,39.1152074 447.821813,36.6574501 C447.821813,36.6574501 433.726575,10.2795699 428.602151,23.4654378 C423.477727,36.6513057 438.211982,50.500768 438.211982,50.500768 L447.557604,62.6113671 C447.188533,64.7346928 446.954576,66.8792992 446.857143,69.0322581 C458.390169,82.2242704 498.746544,94.156682 498.746544,94.156682 L505.038402,94.4639017 L505.075269,94.7711214 C504.688094,96.4222967 504.498338,98.1136027 504.509985,99.8095238 C504.509985,100.0553 504.509985,100.30722 504.509985,100.565284 C504.509985,100.823349 504.509985,100.903226 504.509985,101.069124 C504.829493,122.107527 507.711214,186.47619 507.711214,186.47619 C508.270353,186.22427 508.854071,185.996928 509.443932,185.781874 L508.995392,191.502304 C508.995392,191.502304 482.089094,195.268817 462.230415,202.807988 C442.371736,210.347158 441.732719,219.139785 441.732719,219.139785 L441.732719,296.718894 C436.061444,299.631336 427.109063,303.477727 422.513057,301.407066 C417.52381,299.182796 414.789555,301.050691 414.291859,302.998464 C414.197091,303.383918 414.197091,303.786589 414.291859,304.172043 C414.333973,304.345353 414.397979,304.512596 414.482335,304.669739 L414.482335,304.706605 C414.573773,304.869126 414.687526,305.018038 414.820276,305.149002 C416.743472,307.03533 458.384025,323.360983 467.993856,320.847926 C468.291164,320.769922 468.582699,320.671375 468.866359,320.552995 C468.958525,320.516129 469.038402,320.466974 469.130568,320.423963 C469.222734,320.380952 469.486943,320.258065 469.652842,320.159754 C469.81874,320.061444 469.843318,320.030722 469.935484,319.969278 C470.02765,319.907834 470.22427,319.778802 470.359447,319.674347 C470.494624,319.569892 470.537634,319.514593 470.623656,319.434716 C470.709677,319.354839 470.875576,319.219662 470.986175,319.096774 C471.096774,318.973886 471.145929,318.912442 471.225806,318.820276 C471.305684,318.728111 471.447005,318.574501 471.545315,318.439324 C471.643625,318.304147 471.680492,318.236559 471.754224,318.138249 C471.827957,318.039939 471.950845,317.855607 472.036866,317.708141 C472.122888,317.560676 472.15361,317.499232 472.208909,317.388633 C472.264209,317.278034 472.380952,317.075269 472.460829,316.90937 C472.540707,316.743472 472.55914,316.694316 472.602151,316.583717 C472.645161,316.473118 472.75576,316.233487 472.823349,316.0553 C472.890937,315.877112 472.897081,315.840246 472.940092,315.729647 C472.983103,315.619048 473.075269,315.34255 473.130568,315.115207 C473.130568,315.010753 473.185868,314.906298 473.21659,314.801843 C473.271889,314.58679 473.333333,314.37788 473.382488,314.187404 C473.382488,314.089094 473.425499,313.990783 473.443932,313.892473 C473.493088,313.658986 473.542243,313.425499 473.579109,313.192012 C473.579109,313.105991 473.579109,313.013825 473.62212,312.927803 C473.665131,312.675883 473.701997,312.417819 473.732719,312.165899 L473.732719,311.9447 C473.763441,311.668203 473.794163,311.391705 473.81874,311.115207 L473.81874,310.943164 C473.843318,310.644137 473.861751,310.34511 473.87404,310.046083 L473.87404,309.923195 C473.87404,309.603687 473.87404,309.284178 473.87404,308.96467 L473.87404,308.903226 C473.862377,305.156792 473.450412,301.42233 472.645161,297.763441 L475.059908,231.69278 C487.642865,231.888417 500.227433,231.424905 512.761905,230.304147 L514.138249,261.837174 C514.138249,261.837174 514.138249,282.562212 521.185868,291.981567 C527.219662,300.043011 534.187404,335.698925 536.067588,345.81874 C533.480799,350.734255 528.528418,356.878648 519.90169,356.669739 C519.90169,356.669739 503.674347,355.268817 504.589862,359.741935 C504.615639,359.859183 504.650564,359.974231 504.694316,360.086022 C504.745463,360.214715 504.804986,360.339919 504.872504,360.460829 C504.940092,360.577573 505.013825,360.694316 505.099846,360.817204 L505.149002,360.890937 C505.241167,361.019969 505.345622,361.155146 505.462366,361.296467 L505.462366,361.327189 C505.572965,361.456221 505.689708,361.585253 505.81874,361.714286 L505.929339,361.824885 C506.076805,361.97235 506.22427,362.119816 506.396313,362.273425 C514.721966,369.812596 563.410138,371.066052 563.410138,371.066052 L563.410138,370.894009 C563.410138,370.844854 563.410138,370.78341 563.410138,370.715822 C563.410138,368.534562 563.09063,357.093702 560.178187,348.479263 L560.854071,348.479263 C560.854071,348.479263 553.806452,285.044547 548.043011,277.511521 C548.043011,277.511521 546.513057,244.061444 549.966206,223.102919 L550.580645,222.869432 C566.728111,216.835637 567.877112,201.978495 566.211982,191.066052 C569.284178,192.049155 571.078341,192.718894 571.078341,192.718894 C571.078341,192.718894 571.023041,192.245776 570.918587,191.403994 L571.078341,191.465438 C571.078341,191.465438 570.771121,189.46851 570.261137,186.359447 C569.105991,177.800307 566.869432,162.844854 564.485407,155.784946 C564.09831,154.230415 563.729647,152.903226 563.391705,151.90169 C562.015888,147.659264 561.071024,143.28901 560.571429,138.857143 C559.91846,133.112636 559.588192,127.336027 559.582181,121.554531 C559.634562,113.829957 560.22586,106.11845 561.351767,98.4761905 C562.328725,91.8033794 563.195084,84.2089094 563.133641,78.906298 C563.20132,77.0544644 563.071556,75.2006893 562.746544,73.3763441 C561.892473,69.4623656 558.113671,66.9185868 554.187404,65.296467 C553.935484,65.1920123 553.677419,65.1059908 553.419355,65.0076805 C553.517665,63.5268817 553.640553,61.843318 553.800307,60.0921659 C554.75101,60.7510429 555.930438,60.9909266 557.06298,60.7557604 C558.752688,60.3870968 559.963134,58.9800307 561.038402,57.6835637 C566.715822,50.7096774 572.546851,43.4408602 574.728111,34.7772657 C575.609221,30.9083427 576.02181,26.9474883 575.956989,22.9800307 C575.956989,22.7629288 575.956989,22.5458269 575.956989,22.328725 C576.061966,20.8449606 575.908112,19.3542426 575.502304,17.9231951 Z" id="Shape" fill="url(#linearGradient-2)" fill-rule="nonzero"></path>
            <path d="M523.809524,51.9201229 C523.809524,51.9201229 532.411674,64.8233487 530.568356,70.9677419 C528.725038,77.1121352 550.844854,73.4254992 550.844854,73.4254992 C550.844854,73.4254992 551.459293,49.4623656 555.760369,43.9324117 C560.061444,38.4024578 523.809524,51.9201229 523.809524,51.9201229 Z" id="Shape" fill="#F7C4A7" fill-rule="nonzero"></path>
            <path d="M466.973886,60.2150538 C466.973886,60.2150538 449.155146,45.46851 449.769585,39.9385561 C449.769585,39.9385561 436.25192,14.1321045 431.336406,27.0353303 C426.420891,39.9385561 440.552995,53.4562212 440.552995,53.4562212 L457.757296,76.1904762 L466.973886,60.2150538 Z" id="Shape" fill="#F7C4A7" fill-rule="nonzero"></path>
            <path d="M448.847926,291.551459 C448.847926,291.551459 432.258065,301.996928 425.499232,298.924731 C418.740399,295.852535 416.282642,300.768049 418.12596,302.611367 C419.969278,304.454685 459.907834,320.430108 469.124424,317.97235 C478.341014,315.514593 473.652842,295.385561 473.652842,295.385561 L448.847926,291.551459 Z" id="Shape" fill="#535461" fill-rule="nonzero"></path>
            <path d="M536.71275,336.40553 C536.71275,336.40553 532.718894,353.302611 518.894009,352.995392 C518.894009,352.995392 498.003072,351.152074 505.990783,358.525346 C513.978495,365.898618 560.675883,367.127496 560.675883,367.127496 C560.675883,367.127496 560.675883,341.935484 552.073733,336.40553 C543.471582,330.875576 536.71275,336.40553 536.71275,336.40553 Z" id="Shape" fill="#535461" fill-rule="nonzero"></path>
            <path d="M511.520737,217.204301 L513.364055,260.215054 C513.364055,260.215054 513.364055,280.491551 520.122888,289.708141 C526.88172,298.924731 534.869432,345.00768 534.869432,345.00768 L558.218126,345.00768 C558.218126,345.00768 551.459293,282.949309 545.929339,275.576037 C545.929339,275.576037 543.471582,220.890937 552.073733,208.602151 L511.520737,217.204301 Z" id="Shape" fill="#575988" fill-rule="nonzero"></path>
            <path d="M511.520737,217.204301 L513.364055,260.215054 C513.364055,260.215054 513.364055,280.491551 520.122888,289.708141 C526.88172,298.924731 534.869432,345.00768 534.869432,345.00768 L558.218126,345.00768 C558.218126,345.00768 551.459293,282.949309 545.929339,275.576037 C545.929339,275.576037 543.471582,220.890937 552.073733,208.602151 L511.520737,217.204301 Z" id="Shape" fill="#000000" fill-rule="nonzero" opacity="0.1"></path>
            <path d="M560.061444,178.494624 C560.061444,178.494624 574.193548,212.288786 548.387097,222.119816 C522.580645,231.950845 475.883257,230.721966 475.883257,230.721966 L473.425499,301.996928 C473.425499,301.996928 444.546851,305.683564 443.932412,296.466974 L443.932412,218.43318 C443.932412,218.43318 444.546851,209.831029 463.59447,202.457757 C482.642089,195.084485 508.448541,191.397849 508.448541,191.397849 L509.677419,175.422427 L560.061444,178.494624 Z" id="Shape" fill="#575988" fill-rule="nonzero"></path>
            <path d="M537.419355,67.1643625 C542.3274,66.6209736 547.293252,67.3225323 551.858679,69.2043011 C555.625192,70.7895545 559.231951,73.2780338 560.067588,77.1059908 C561.038402,81.640553 559.963134,91.8095238 558.728111,100.417819 C556.749637,113.907963 556.497737,127.595194 557.978495,141.149002 C558.592934,146.795699 559.483871,151.717358 560.682028,153.910906 C564.368664,160.669739 568.0553,192.620584 568.0553,192.620584 C568.0553,192.620584 527.502304,177.259601 507.225806,186.47619 C507.225806,186.47619 504.460829,123.49616 504.15361,102.912442 C503.913978,86.9738863 524.122888,68.8110599 530.88172,68.1966206 C534.83871,67.8402458 533.480799,67.5760369 537.419355,67.1643625 Z" id="Shape" fill="#000000" fill-rule="nonzero" opacity="0.1"></path>
            <path d="M537.419355,65.9354839 C542.3274,65.392095 547.293252,66.0936537 551.858679,67.9754224 C555.625192,69.5606759 559.231951,72.0491551 560.067588,75.8771121 C561.038402,80.4116743 559.963134,90.5806452 558.728111,99.1889401 C556.749637,112.679084 556.497737,126.366315 557.978495,139.920123 C558.456482,144.252859 559.362072,148.527658 560.682028,152.682028 C563.447005,160.976959 568.0553,191.391705 568.0553,191.391705 C568.0553,191.391705 527.502304,176.030722 507.225806,185.247312 C507.225806,185.247312 504.460829,122.267281 504.15361,101.683564 C503.913978,85.7450077 524.122888,67.5821813 530.88172,66.9677419 C534.83871,66.6113671 533.480799,66.3471582 537.419355,65.9354839 Z" id="Shape" fill="#E14B5A" fill-rule="nonzero"></path>
            <path d="M548.387097,99.8463902 L504.761905,97.3886329 C504.761905,97.3886329 501.984639,76 508.282642,76.2211982 L551.459293,77.7265745 C551.459293,77.7265745 560.675883,88.7864823 548.387097,99.8463902 Z" id="Shape" fill="#000000" fill-rule="nonzero" opacity="0.1"></path>
            <path d="M548.387097,98.6175115 L498.617512,96.1597542 C498.617512,96.1597542 459.907834,84.4854071 448.847926,71.5821813 C448.847926,71.5821813 449.462366,48.8479263 461.751152,47.6190476 L490.820276,68.9339478 C495.90098,72.660457 501.985687,74.7714778 508.282642,74.9923195 L551.459293,76.4976959 C551.459293,76.4976959 560.675883,87.5576037 548.387097,98.6175115 Z" id="Shape" fill="#E14B5A" fill-rule="nonzero"></path>
            <path d="M550.537634,54.6850998 C551.268817,48.8602151 553.910906,46.9247312 555.760369,44.546851 C560.061444,39.0168971 523.809524,52.5345622 523.809524,52.5345622 C525.683625,55.413136 527.327249,58.4353497 528.725038,61.5729647 C531.615156,62.9046109 534.759481,63.5942662 537.941628,63.59447 C543.262673,63.59447 546.715822,57.8371736 550.537634,54.6850998 Z" id="Shape" fill="#000000" fill-rule="nonzero" opacity="0.1"></path>
            <circle id="Oval" fill="#F7C4A7" fill-rule="nonzero" cx="537.941628" cy="40.8602151" r="22.1198157"></circle>
            <path d="M523.975422,25.3579109 C521.62212,22.7834101 520.485407,19.3548387 519.416283,16.030722 L516.958525,8.41781874 C520.288786,10.3840246 523.840246,5.96006144 527.662058,5.34562212 C530.396313,4.9093702 532.983103,6.50691244 535.502304,7.65591398 C546.439324,12.6574501 560.694316,10.1751152 569.493088,18.3655914 C570.695756,19.4070681 571.627701,20.7248637 572.208909,22.2058372 C572.614858,23.6014055 572.781068,25.0557377 572.700461,26.5069124 C572.772256,30.3850908 572.386594,34.2582113 571.551459,38.0460829 C569.462366,46.5192012 563.870968,53.6344086 558.420891,60.4546851 C557.388633,61.7511521 556.227343,63.1274962 554.605223,63.4900154 C551.44086,64.1966206 548.995392,60.7803379 547.772657,57.781874 C546.152702,53.8086203 544.958123,49.6749652 544.208909,45.4500768 C543.889401,43.6620584 543.637481,41.8187404 542.746544,40.2396313 C540.841782,36.8663594 536.147465,33.671275 533.296467,31.0537634 C530.445469,28.4362519 526.592934,28.2150538 523.975422,25.3579109 Z" id="Shape" fill="#000000" fill-rule="nonzero" opacity="0.1"></path>
            <path d="M523.975422,24.7434716 C521.62212,22.1689708 520.485407,18.7403994 519.416283,15.4162826 L516.958525,7.80337942 C520.288786,9.76958525 523.840246,5.34562212 527.662058,4.7311828 C530.396313,4.29493088 532.983103,5.89247312 535.502304,7.04147465 C546.439324,12.0430108 560.694316,9.56067588 569.493088,17.7511521 C570.695756,18.7926288 571.627701,20.1104244 572.208909,21.5913978 C572.614858,22.9869662 572.781068,24.4412984 572.700461,25.8924731 C572.772256,29.7706515 572.386594,33.643772 571.551459,37.4316436 C569.462366,45.9047619 563.870968,53.0199693 558.420891,59.8402458 C557.388633,61.1367127 556.227343,62.5130568 554.605223,62.875576 C551.44086,63.5821813 548.995392,60.1658986 547.772657,57.1674347 C546.152702,53.194181 544.958123,49.0605259 544.208909,44.8356375 C543.889401,43.047619 543.637481,41.2043011 542.746544,39.625192 C540.841782,36.2519201 536.147465,33.0568356 533.296467,30.4393241 C530.445469,27.8218126 526.592934,27.6006144 523.975422,24.7434716 Z" id="Shape" fill="#632652" fill-rule="nonzero"></path>
            <ellipse id="Oval" fill="#F7C4A7" fill-rule="nonzero" cx="543.778802" cy="43.3179724" rx="1.84331797" ry="3.99385561"></ellipse>
            <path d="M554.83871,149.923195 C554.83871,149.923195 553.609831,153.609831 547.465438,152.995392 C541.321045,152.380952 523.502304,151.152074 523.502304,152.995392" id="Shape" fill="#000000" fill-rule="nonzero" opacity="0.1"></path>
            <path d="M505.990783,357.910906 C504.884793,356.890937 504.331797,356.067588 504.202765,355.348694 C504.043011,356.147465 504.534562,357.192012 505.990783,358.525346 C513.978495,365.898618 560.675883,367.127496 560.675883,367.127496 C560.675883,367.127496 560.675883,366.912442 560.675883,366.513057 C560.374808,366.506912 513.953917,365.259601 505.990783,357.910906 Z" id="Shape" fill="#FFFFFF" fill-rule="nonzero" opacity="0.5"></path>
            <path d="M469.124424,316.743472 C459.907834,319.201229 419.969278,303.225806 418.12596,301.382488 C417.880306,301.133307 417.704439,300.823951 417.615975,300.485407 C417.399406,301.234415 417.593162,302.042121 418.12596,302.611367 C419.969278,304.454685 459.907834,320.430108 469.124424,317.97235 C473.867896,316.706605 474.924731,310.764977 474.83871,305.290323 C474.746544,310.390169 473.511521,315.563748 469.124424,316.743472 Z" id="Shape" fill="#FFFFFF" fill-rule="nonzero" opacity="0.5"></path>
            <path d="M308.50384,310.132104 C309.012858,310.132104 309.425499,309.719464 309.425499,309.210445 C309.425499,308.701427 309.012858,308.288786 308.50384,308.288786 C307.994822,308.288786 307.582181,308.701427 307.582181,309.210445 C307.582181,309.719464 307.994822,310.132104 308.50384,310.132104 Z" id="Shape" fill="#67647E" fill-rule="nonzero"></path>
            <path d="M56.2150538,293.831029 C56.2150538,293.831029 79.1459293,293.124424 86.0522273,288.202765 C92.9585253,283.281106 121.321045,277.407066 123.03533,285.296467 C124.749616,293.185868 157.499232,324.546851 131.588326,324.780338 C105.677419,325.013825 71.4408602,320.749616 64.5407066,316.546851 C57.640553,312.344086 56.2150538,293.831029 56.2150538,293.831029 Z" id="Shape" fill="#A8A8A8" fill-rule="nonzero"></path>
            <path d="M132.073733,322.009217 C106.187404,322.218126 71.9262673,317.978495 65.0261137,313.77573 C59.7726575,310.574501 57.6528418,299.096774 56.9831029,293.800307 L56.2150538,293.800307 C56.2150538,293.800307 57.6651306,312.294931 64.5652842,316.491551 C71.4654378,320.688172 105.726575,324.96467 131.588326,324.780338 C139.059908,324.718894 141.640553,322.064516 141.499232,318.12596 C140.485407,320.479263 137.634409,321.966206 132.073733,322.009217 Z" id="Shape" fill="#000000" fill-rule="nonzero" opacity="0.2"></path>
            <rect id="Rectangle-path" fill="#D6E2F3" fill-rule="nonzero" transform="translate(607.569892, 340.190476) rotate(-180.000000) translate(-607.569892, -340.190476) " x="575.926267" y="327.59447" width="63.2872504" height="25.1920123" rx="8.84"></rect>
            <rect id="Rectangle-path" fill="#000000" fill-rule="nonzero" opacity="0.1" transform="translate(607.569892, 340.190476) rotate(-180.000000) translate(-607.569892, -340.190476) " x="575.926267" y="327.59447" width="63.2872504" height="25.1920123" rx="8.84"></rect>
            <rect id="Rectangle-path" fill="#D6E2F3" fill-rule="nonzero" x="575.926267" y="303.631336" width="63.2872504" height="25.1920123" rx="8.84"></rect>
            <rect id="Rectangle-path" fill="#D6E2F3" fill-rule="nonzero" transform="translate(607.569892, 291.035330) rotate(-180.000000) translate(-607.569892, -291.035330) " x="575.926267" y="278.439324" width="63.2872504" height="25.1920123" rx="8.84"></rect>
            <rect id="Rectangle-path" fill="#000000" fill-rule="nonzero" opacity="0.1" transform="translate(607.569892, 291.035330) rotate(-180.000000) translate(-607.569892, -291.035330) " x="575.926267" y="278.439324" width="63.2872504" height="25.1920123" rx="8.84"></rect>
            <rect id="Rectangle-path" fill="#D6E2F3" fill-rule="nonzero" x="575.926267" y="253.247312" width="63.2872504" height="25.1920123" rx="8.84"></rect>
        </g>
    </g>
</svg>