<?xml version="1.0" encoding="UTF-8"?>
<svg width="400px" height="320px" viewBox="0 0 400 320" version="1.1" xmlns="http://www.w3.org/2000/svg" xmlns:xlink="http://www.w3.org/1999/xlink">
    <!-- Generator: Sketch 50.2 (55047) - http://www.bohemiancoding.com/sketch -->
    <title>undraw_data_xmfy</title>
    <desc>Created with Sketch.</desc>
    <defs>
        <linearGradient x1="50%" y1="100%" x2="50%" y2="0%" id="linearGradient-1">
            <stop stop-color="#808080" stop-opacity="0.25" offset="0%"></stop>
            <stop stop-color="#808080" stop-opacity="0.12" offset="54%"></stop>
            <stop stop-color="#808080" stop-opacity="0.1" offset="100%"></stop>
        </linearGradient>
        <linearGradient x1="49.9285714%" y1="100.071429%" x2="49.9285714%" y2="0.0714285714%" id="linearGradient-2">
            <stop stop-color="#808080" stop-opacity="0.25" offset="0%"></stop>
            <stop stop-color="#808080" stop-opacity="0.12" offset="54%"></stop>
            <stop stop-color="#808080" stop-opacity="0.1" offset="100%"></stop>
        </linearGradient>
        <linearGradient x1="20%" y1="26.6450864%" x2="20%" y2="0.64508637%" id="linearGradient-3">
            <stop stop-color="#808080" stop-opacity="0.25" offset="0%"></stop>
            <stop stop-color="#808080" stop-opacity="0.12" offset="54%"></stop>
            <stop stop-color="#808080" stop-opacity="0.1" offset="100%"></stop>
        </linearGradient>
        <linearGradient x1="50.0349437%" y1="100.017363%" x2="50.0349437%" y2="-0.00121488599%" id="linearGradient-4">
            <stop stop-color="#808080" stop-opacity="0.25" offset="0%"></stop>
            <stop stop-color="#808080" stop-opacity="0.12" offset="54%"></stop>
            <stop stop-color="#808080" stop-opacity="0.1" offset="100%"></stop>
        </linearGradient>
        <linearGradient x1="23.800009%" y1="31.2277712%" x2="23.800009%" y2="0.227771172%" id="linearGradient-5">
            <stop stop-color="#808080" stop-opacity="0.25" offset="0%"></stop>
            <stop stop-color="#808080" stop-opacity="0.12" offset="54%"></stop>
            <stop stop-color="#808080" stop-opacity="0.1" offset="100%"></stop>
        </linearGradient>
        <linearGradient x1="50.0140677%" y1="100%" x2="50.0140677%" y2="-0.00389417185%" id="linearGradient-6">
            <stop stop-color="#808080" stop-opacity="0.25" offset="0%"></stop>
            <stop stop-color="#808080" stop-opacity="0.12" offset="54%"></stop>
            <stop stop-color="#808080" stop-opacity="0.1" offset="100%"></stop>
        </linearGradient>
        <linearGradient x1="50%" y1="100%" x2="50%" y2="-5.36258668e-14%" id="linearGradient-7">
            <stop stop-color="#808080" stop-opacity="0.25" offset="0%"></stop>
            <stop stop-color="#808080" stop-opacity="0.12" offset="54%"></stop>
            <stop stop-color="#808080" stop-opacity="0.1" offset="100%"></stop>
        </linearGradient>
        <linearGradient x1="50.0273059%" y1="99.999138%" x2="50.0273059%" y2="0.0062036416%" id="linearGradient-8">
            <stop stop-color="#808080" stop-opacity="0.25" offset="0%"></stop>
            <stop stop-color="#808080" stop-opacity="0.12" offset="54%"></stop>
            <stop stop-color="#808080" stop-opacity="0.1" offset="100%"></stop>
        </linearGradient>
        <linearGradient x1="50%" y1="0%" x2="50%" y2="0%" id="linearGradient-9">
            <stop stop-color="#808080" stop-opacity="0.25" offset="0%"></stop>
            <stop stop-color="#808080" stop-opacity="0.12" offset="54%"></stop>
            <stop stop-color="#808080" stop-opacity="0.1" offset="100%"></stop>
        </linearGradient>
        <linearGradient x1="0.0174947516%" y1="49.9860514%" x2="100%" y2="49.9860514%" id="linearGradient-10">
            <stop stop-color="#808080" stop-opacity="0.25" offset="0%"></stop>
            <stop stop-color="#808080" stop-opacity="0.12" offset="54%"></stop>
            <stop stop-color="#808080" stop-opacity="0.1" offset="100%"></stop>
        </linearGradient>
    </defs>
    <g id="Page-1" stroke="none" stroke-width="1" fill="none" fill-rule="evenodd">
        <g id="undraw_data_xmfy">
            <ellipse id="Oval" fill="#F2F2F2" fill-rule="nonzero" cx="166.105499" cy="311.582492" rx="30.0785634" ry="7.6318743"></ellipse>
            <ellipse id="Oval" fill="#F2F2F2" fill-rule="nonzero" cx="168.350168" cy="227.182941" rx="30.0785634" ry="7.6318743"></ellipse>
            <ellipse id="Oval" fill="#F2F2F2" fill-rule="nonzero" cx="30.0785634" cy="230.774411" rx="30.0785634" ry="7.6318743"></ellipse>
            <rect id="Rectangle-path" fill="#F5F5F5" fill-rule="nonzero" x="10.1548822" y="1.79573513" width="171.941639" height="6.50953984"></rect>
            <rect id="Rectangle-path" fill="url(#linearGradient-1)" fill-rule="nonzero" x="7.01234568" y="0" width="177.777778" height="218.181818"></rect>
            <rect id="Rectangle-path" fill="#FFFFFF" fill-rule="nonzero" x="10.1548822" y="8.30527497" width="171.941639" height="206.285073"></rect>
            <circle id="Oval" fill="#FF5252" fill-rule="nonzero" cx="13.6924804" cy="5.1627385" r="1.57126824"></circle>
            <circle id="Oval" fill="#FFFF00" fill-rule="nonzero" cx="18.0112233" cy="5.1627385" r="1.57126824"></circle>
            <circle id="Oval" fill="#69F0AE" fill-rule="nonzero" cx="22.3344557" cy="5.1627385" r="1.57126824"></circle>
            <g id="Group" opacity="0.2" transform="translate(14.814815, 16.161616)" fill="#D6E2F3" fill-rule="nonzero">
                <rect id="Rectangle-path" x="0.278338945" y="0" width="66.8911336" height="4.04040404"></rect>
            </g>
            <rect id="Rectangle-path" fill="#F5F5F5" fill-rule="nonzero" x="62.6801347" y="32.7721661" width="66.8911336" height="4.04040404"></rect>
            <rect id="Rectangle-path" fill="#D6E2F3" fill-rule="nonzero" opacity="0.5" x="15.0931538" y="162.962963" width="66.8911336" height="4.04040404"></rect>
            <rect id="Rectangle-path" fill="url(#linearGradient-1)" fill-rule="nonzero" x="90.962963" y="162.514029" width="22.4466891" height="4.9382716"></rect>
            <rect id="Rectangle-path" fill="url(#linearGradient-1)" fill-rule="nonzero" x="90.962963" y="187.654321" width="22.4466891" height="4.9382716"></rect>
            <rect id="Rectangle-path" fill="url(#linearGradient-1)" fill-rule="nonzero" x="136.754209" y="187.654321" width="22.4466891" height="4.9382716"></rect>
            <rect id="Rectangle-path" fill="#D6E2F3" fill-rule="nonzero" x="91.8608305" y="162.962963" width="21.0998878" height="4.04040404"></rect>
            <rect id="Rectangle-path" fill="#D6E2F3" fill-rule="nonzero" x="91.8608305" y="188.103255" width="21.0998878" height="4.04040404"></rect>
            <rect id="Rectangle-path" fill="#D6E2F3" fill-rule="nonzero" x="137.203143" y="188.103255" width="21.0998878" height="4.04040404"></rect>
            <rect id="Rectangle-path" fill="#F5F5F5" fill-rule="nonzero" x="15.0931538" y="175.533109" width="66.8911336" height="4.04040404"></rect>
            <rect id="Rectangle-path" fill="#D6E2F3" fill-rule="nonzero" opacity="0.5" x="91.8608305" y="175.533109" width="66.8911336" height="4.04040404"></rect>
            <rect id="Rectangle-path" fill="#F5F5F5" fill-rule="nonzero" x="91.8608305" y="200.673401" width="66.8911336" height="4.04040404"></rect>
            <rect id="Rectangle-path" fill="#D6E2F3" fill-rule="nonzero" opacity="0.5" x="15.0931538" y="188.103255" width="66.8911336" height="4.04040404"></rect>
            <rect id="Rectangle-path" fill="#F5F5F5" fill-rule="nonzero" x="15.0931538" y="200.673401" width="66.8911336" height="4.04040404"></rect>
            <rect id="Rectangle-path" fill="#F5F5F5" fill-rule="nonzero" x="62.6801347" y="39.5061728" width="37.7104377" height="4.04040404"></rect>
            <rect id="Rectangle-path" fill="#F5F5F5" fill-rule="nonzero" x="107.124579" y="39.5061728" width="13.0190797" height="4.04040404"></rect>
            <rect id="Rectangle-path" fill="#F5F5F5" fill-rule="nonzero" x="62.6801347" y="52.9741863" width="37.7104377" height="4.04040404"></rect>
            <rect id="Rectangle-path" fill="#F5F5F5" fill-rule="nonzero" x="107.124579" y="52.9741863" width="13.0190797" height="4.04040404"></rect>
            <rect id="Rectangle-path" fill="#F5F5F5" fill-rule="nonzero" x="62.6801347" y="46.2401796" width="66.8911336" height="4.04040404"></rect>
            <g id="Group" opacity="0.2" transform="translate(109.090909, 16.161616)" fill="#D6E2F3" fill-rule="nonzero">
                <rect id="Rectangle-path" x="0.278338945" y="0" width="66.8911336" height="4.04040404"></rect>
            </g>
            <rect id="Rectangle-path" fill="url(#linearGradient-1)" fill-rule="nonzero" x="147.079686" y="32.3232323" width="8.08080808" height="4.9382716"></rect>
            <rect id="Rectangle-path" fill="url(#linearGradient-1)" fill-rule="nonzero" x="147.079686" y="39.0572391" width="8.08080808" height="4.9382716"></rect>
            <rect id="Rectangle-path" fill="url(#linearGradient-1)" fill-rule="nonzero" x="147.079686" y="45.7912458" width="8.08080808" height="4.9382716"></rect>
            <rect id="Rectangle-path" fill="#FF5252" fill-rule="nonzero" x="147.52862" y="32.7721661" width="7.18294052" height="4.04040404"></rect>
            <rect id="Rectangle-path" fill="#FF9800" fill-rule="nonzero" x="147.52862" y="39.5061728" width="7.18294052" height="4.04040404"></rect>
            <rect id="Rectangle-path" fill="#69F0AE" fill-rule="nonzero" x="147.52862" y="46.2401796" width="7.18294052" height="4.04040404"></rect>
            <rect id="Rectangle-path" fill="url(#linearGradient-1)" fill-rule="nonzero" x="147.079686" y="52.5252525" width="8.08080808" height="4.9382716"></rect>
            <rect id="Rectangle-path" fill="#D6E2F3" fill-rule="nonzero" x="147.52862" y="52.9741863" width="7.18294052" height="4.04040404"></rect>
            <rect id="Rectangle-path" fill="url(#linearGradient-1)" fill-rule="nonzero" x="13.7463524" y="81.7059484" width="164.758698" height="67.3400673"></rect>
            <rect id="Rectangle-path" fill="#D6E2F3" fill-rule="nonzero" opacity="0.5" x="15.0931538" y="83.0527497" width="161.167228" height="63.7485971"></rect>
            <polygon id="Shape" fill="#FFFFFF" fill-rule="nonzero" opacity="0.5" points="20.0314254 87.9910213 176.260382 87.9910213 176.260382 83.0527497 15.0931538 83.0527497 15.0931538 146.801347 20.0314254 146.801347"></polygon>
            <rect id="Rectangle-path" fill="url(#linearGradient-1)" fill-rule="nonzero" transform="translate(100.383573, 118.981159) rotate(-5.200000) translate(-100.383573, -118.981159) " x="17.3308232" y="84.8621919" width="166.105499" height="68.2379349"></rect>
            <rect id="Rectangle-path" fill="#FFFFFF" fill-rule="nonzero" transform="translate(100.564560, 118.508505) rotate(-5.200000) translate(-100.564560, -118.508505) " x="19.980946" y="86.6342062" width="161.167228" height="63.7485971"></rect>
            <path d="M29.4051627,146.16835 L26.6217733,110.805836 C26.6217733,110.805836 40.9876543,95.5420875 69.9887767,106.855219 C98.989899,118.16835 112.664422,110.181818 117.378227,102.540965 C122.092031,94.9001122 146.558923,86.379349 154.487093,99.1604938 C162.415264,111.941639 171.923681,97.5712682 171.923681,97.5712682 L175.138047,132.888889 L29.4051627,146.16835 Z" id="Shape" fill="#D6E2F3" fill-rule="nonzero" opacity="0.5"></path>
            <path d="M44.0089787,103.102132 L44.2789787,105.786756" id="Shape" stroke="#D6E2F3"></path>
            <path d="M44.7227834,110.931538 L47.2996633,139.241302" id="Shape" stroke="#D6E2F3" stroke-dasharray="11.51"></path>
            <path d="M47.5331089,141.813692 L47.8081089,144.493827" id="Shape" stroke="#D6E2F3"></path>
            <path d="M71.6139169,107.483726 L71.8889169,110.163861" id="Shape" stroke="#D6E2F3"></path>
            <path d="M72.3905724,116.004489 L74.2536476,136.435466" id="Shape" stroke="#D6E2F3" stroke-dasharray="13.06"></path>
            <path d="M74.5185185,139.353535 L74.7885185,142.038159" id="Shape" stroke="#D6E2F3"></path>
            <path d="M99.7800224,112.278339 L100.080022,114.958474" id="Shape" stroke="#D6E2F3"></path>
            <path d="M100.484848,119.335578 L102.002245,134.64422" id="Shape" stroke="#D6E2F3" stroke-dasharray="9.789999999999999"></path>
            <path d="M102.222222,136.830527 L102.517222,139.515152" id="Shape" stroke="#D6E2F3"></path>
            <path d="M125.095398,96.4489338 L125.365398,99.1335578" id="Shape" stroke="#D6E2F3"></path>
            <path d="M125.795735,104.175084 L128.323232,131.914703" id="Shape" stroke="#D6E2F3" stroke-dasharray="11.28"></path>
            <path d="M128.552189,134.433221 L128.827189,137.117845" id="Shape" stroke="#D6E2F3"></path>
            <path d="M143.367003,92.7452301 L143.637003,95.4253648" id="Shape" stroke="#D6E2F3"></path>
            <path d="M144.094276,100.758698 L146.765432,130.087542" id="Shape" stroke="#D6E2F3" stroke-dasharray="11.93"></path>
            <path d="M147.007856,132.754209 L147.282856,135.434343" id="Shape" stroke="#D6E2F3"></path>
            <circle id="Oval" fill="#FF9800" fill-rule="nonzero" transform="translate(43.924522, 102.929571) rotate(-5.200000) translate(-43.924522, -102.929571) " cx="43.9245217" cy="102.929571" r="2.24466891"></circle>
            <circle id="Oval" fill="#FF5252" fill-rule="nonzero" transform="translate(71.399165, 107.643408) rotate(-5.200000) translate(-71.399165, -107.643408) " cx="71.3991647" cy="107.643408" r="2.24466891"></circle>
            <circle id="Oval" fill="#69F0AE" fill-rule="nonzero" transform="translate(99.773717, 112.271731) rotate(-5.200000) translate(-99.773717, -112.271731) " cx="99.7737173" cy="112.271731" r="2.24466891"></circle>
            <circle id="Oval" fill="url(#linearGradient-2)" fill-rule="nonzero" transform="translate(124.930339, 96.458461) rotate(-5.200000) translate(-124.930339, -96.458461) " cx="124.930339" cy="96.4584613" r="3.14253648"></circle>
            <circle id="Oval" fill="url(#linearGradient-1)" fill-rule="nonzero" transform="translate(143.544633, 92.963258) rotate(-5.200000) translate(-143.544633, -92.963258) " cx="143.544633" cy="92.9632576" r="3.14253648"></circle>
            <circle id="Oval" fill="#D6E2F3" fill-rule="nonzero" transform="translate(124.930339, 96.458461) rotate(-5.200000) translate(-124.930339, -96.458461) " cx="124.930339" cy="96.4584613" r="2.24466891"></circle>
            <circle id="Oval" fill="#D6E2F3" fill-rule="nonzero" transform="translate(143.544633, 92.963258) rotate(-5.200000) translate(-143.544633, -92.963258) " cx="143.544633" cy="92.9632576" r="2.24466891"></circle>
            <circle id="Oval" fill="#69F0AE" fill-rule="nonzero" transform="translate(171.995333, 98.487426) rotate(-5.200000) translate(-171.995333, -98.487426) " cx="171.995333" cy="98.4874261" r="2.24466891"></circle>
            <g id="Group" opacity="0.2" transform="translate(176.430976, 142.760943)" fill="url(#linearGradient-3)" fill-rule="nonzero">
                <path d="M0.116722783,0.325604393 L0.151722783,0.440604393 C0.536722783,0.225604393 0.116722783,0.325604393 0.116722783,0.325604393 Z" id="Shape"></path>
            </g>
            <g id="Group" opacity="0.2" transform="translate(145.454545, 140.965208)" fill="url(#linearGradient-4)" fill-rule="nonzero">
                <path d="M27.375982,77.5308642 L34.684624,76.3501684 L33.6790123,71.8608305 L33.6790123,71.7979798 L33.6520763,71.7979798 L28.4713805,48.0044893 L28.4713805,30.6531987 C28.4707795,30.4327495 28.458792,30.2124784 28.4354658,29.993266 C36.1750842,19.7306397 31.5780022,3.62738496 31.1290685,2.22222222 C31.0482604,2.26262626 30.9270483,2.31649832 30.7564534,2.38383838 C30.7003834,1.75552231 30.5815722,1.13439497 30.4017957,0.529741863 C30.4017957,0.529741863 28.1571268,-0.897867565 26.9315376,0.938271605 C25.8630752,2.54096521 26.657688,3.51964085 26.8776655,3.74859708 L26.7250281,3.7979798 C27.0689937,4.33855044 27.3095148,4.93833099 27.4343434,5.5667789 C27.3634639,5.41198185 27.2824811,5.26201366 27.1919192,5.11784512 C26.9090909,5.0684624 26.7429854,5.02356902 26.7429854,5.02356902 L26.6891134,4.97418631 L26.5364759,5.02356902 C27.3131313,6.15937149 27.5869809,8.1661055 27.5510662,10.5454545 C27.2828391,10.1740576 26.9823864,9.82703474 26.6531987,9.50841751 C25.2340717,8.15289261 23.3624039,7.37223117 21.4006734,7.31762065 L21.0280584,7.31762065 C20.8245417,7.31762065 20.6210251,7.33108866 20.4175084,7.35802469 L20.2648709,7.35802469 L20.0089787,7.39393939 L19.7171717,7.44781145 L19.5061728,7.49270483 L19.1425365,7.59147026 L19.0078563,7.6318743 C18.8552189,7.68125701 18.7070707,7.73063973 18.5589226,7.78900112 C18.066769,8.0284855 17.5506002,8.21508877 17.0190797,8.34567901 C16.9472503,8.34567901 16.8754209,8.34567901 16.7991021,8.3681257 C16.1989921,8.41014506 15.6031773,8.24013921 15.1156004,7.88776655 L14.9539843,7.7620651 C14.8928454,7.70969973 14.8344086,7.65425967 14.7789001,7.5959596 C14.7179183,7.75151123 14.6918643,7.91856339 14.7025814,8.08529742 C14.7362407,8.48101883 14.9250607,8.84736193 15.2278339,9.1043771 C15.3128378,9.17800448 15.4062692,9.24129673 15.5061728,9.29292929 C15.6537582,9.37029172 15.8158044,9.41615387 15.9820426,9.42760943 L16.1526375,9.42760943 L16.1122334,9.42760943 C16.0089787,9.47699214 15.9057239,9.52188552 15.7979798,9.56228956 L15.7755331,9.56228956 C15.6588103,9.6026936 15.5465769,9.63860831 15.4253648,9.67003367 C14.8370485,9.81870818 14.2221405,9.8279318 13.6296296,9.6969697 L13.4365881,9.65207632 C13.342312,9.62514029 13.2435466,9.59820426 13.1537598,9.5667789 C13.1832837,9.63426737 13.2162488,9.70019755 13.2525253,9.76430976 L13.28844,9.82267116 L13.369248,9.94837262 L13.4186308,10.0112233 L13.5084175,10.1234568 L13.5622896,10.1818182 L13.674523,10.2940516 L13.7194164,10.3344557 L13.8855219,10.4736251 L13.9438833,10.5140292 L14.0650954,10.5993266 L14.1459035,10.6487093 L14.2536476,10.71156 L14.3434343,10.7564534 L14.4556678,10.8058361 L14.5499439,10.8462402 L14.6756453,10.8911336 L14.8327722,10.9360269 L14.9494949,10.9674523 L15.0617284,10.9674523 L15.1649832,10.9674523 L15.2817059,10.9674523 L15.7306397,10.9674523 C15.9623568,10.9473069 16.1895351,10.8912696 16.4040404,10.8013468 L15.9910213,10.9719416 L15.7845118,11.043771 L15.5735129,11.1200898 L15.362514,11.1829405 L15.1470258,11.2457912 L14.9360269,11.2996633 L14.71156,11.3535354 L14.5050505,11.3939394 L14.2671156,11.4343434 L14.0695847,11.4657688 L13.8136925,11.4971942 L13.6296296,11.4971942 L13.3378227,11.4971942 L13.1851852,11.4971942 L12.7362514,11.4971942 C12.9843904,11.5693098 13.2151057,11.6915431 13.4141414,11.8563412 C13.5427806,11.9492839 13.6831729,12.0247636 13.8316498,12.0808081 C13.8979586,12.100085 13.9654377,12.1150803 14.03367,12.1257015 L14.0920314,12.1257015 L14.2356902,12.1257015 L14.8417508,12.1257015 L15.0392817,12.1257015 C15.4486903,12.1670537 15.8448346,12.2940034 16.2020202,12.4983165 C16.3912371,12.6201241 16.5595141,12.771725 16.7003367,12.9472503 C16.637486,13.0505051 16.5746352,13.1492705 16.5207632,13.2570146 C16.4668911,13.3647587 16.4264871,13.4365881 16.3815937,13.5308642 C16.291807,13.7164235 16.2124953,13.9064721 16.1436588,14.1010101 C15.8880275,14.7984627 15.7573337,15.535515 15.7575758,16.2783389 C15.7575758,16.4175084 15.7575758,16.5521886 15.7575758,16.6868687 C15.7575758,16.7227834 15.7575758,16.7631874 15.7575758,16.7991021 C15.7575758,16.9068462 15.7695473,17.0145903 15.7934905,17.1223345 L15.7934905,17.2076319 C15.8114478,17.3393191 15.8353909,17.4695099 15.8653199,17.5982043 L15.8653199,17.674523 C15.889263,17.7822671 15.916199,17.8885148 15.9461279,17.993266 L15.973064,18.0875421 C16.0485502,18.3414752 16.1400159,18.5903818 16.2469136,18.8327722 L16.2783389,18.9046016 C16.3292181,19.0153386 16.3815937,19.1230827 16.4354658,19.2278339 L16.4354658,19.2592593 C16.5013094,19.3789749 16.5701459,19.4971942 16.6419753,19.6139169 L16.6419753,19.640853 C16.7078189,19.7485971 16.7781519,19.8533483 16.8529742,19.9551066 L16.8799102,19.9910213 C17.0411555,20.2131305 17.2166063,20.4245713 17.4051627,20.624018 C17.8942589,21.1392313 18.4663676,21.5686922 19.0976431,21.8945006 C19.0761008,21.9908411 19.0596173,22.0882434 19.0482604,22.1863075 C19.0428166,22.287993 19.0428166,22.389897 19.0482604,22.4915825 L19.0482604,24.8619529 C18.9135802,24.9337823 18.781893,25.010101 18.6531987,25.0909091 C13.0280584,22.5364759 4.65095398,4.43995511 4.65095398,4.43995511 L4.44893378,4.43995511 C5.26599327,3.82940516 4.44893378,1.17171717 4.44893378,1.17171717 C3.96934757,0.885783301 3.43309399,0.708053542 2.87766554,0.650953984 L2.42873176,0.650953984 L2.34792368,0.650953984 L2.28956229,0.650953984 L2.20875421,0.650953984 L2.15488215,0.650953984 L2.0650954,0.677890011 L2.02020202,0.677890011 L1.88552189,0.727272727 L1.75982043,0.785634119 L1.71492705,0.808080808 L1.62962963,0.857463524 L1.57126824,1.13131313 L1.49046016,1.18518519 L1.44107744,1.22558923 L1.3647587,1.28843996 L1.31537598,1.33333333 L1.23905724,1.40516274 L1.19416386,1.45454545 L1.11784512,1.54433221 L1.08193042,1.58922559 L0.96969697,1.74186308 C-0.255892256,3.57800224 0.96969697,4.60157127 0.96969697,4.60157127 C0.890787131,5.30959064 0.853312127,6.02161572 0.857463524,6.73400673 C0.767676768,19.959596 14.9225589,30.2087542 15.6453423,30.7205387 C15.3265993,31.5465769 12.6958474,38.8641975 15.6767677,48 C15.6860842,48.0223597 15.6981486,48.0434723 15.7126824,48.0628507 C8.80673498,54.4269352 5.78103485,63.9684771 7.75757576,73.1492705 L7.81593715,73.4231201 L7.94612795,73.4231201 C7.93278421,73.4837918 7.91630114,73.5437302 7.89674523,73.6026936 C7.86208313,73.7108538 7.81853788,73.815963 7.76655443,73.9169473 C7.67687147,74.0895695 7.56684831,74.2508363 7.43883277,74.3973064 C7.2996633,74.5589226 7.13804714,74.7205387 6.9674523,74.8866442 L6.78787879,75.0572391 C6.07407407,75.7396184 5.35129068,76.4040404 5.89001122,76.6734007 L13.6161616,76.6734007 L13.6161616,73.301908 L13.7508418,73.301908 C13.7508418,73.301908 13.6969697,73.1986532 13.6161616,72.996633 L13.6161616,72.9607183 L13.5892256,72.9607183 C13.1851852,71.9191919 12.2424242,68.6958474 13.7508418,63.7306397 C15.5869809,57.6026936 22.7295174,54.5409652 22.7295174,54.5409652 L22.8597082,54.989899 L22.8327722,54.989899 L28.4354658,73.3961841 C28.4354658,73.4680135 28.4354658,73.5398429 28.4130191,73.6161616 C28.3877041,73.7899815 28.3471437,73.9612367 28.291807,74.1279461 C28.2488412,74.2567075 28.1978625,74.3826549 28.1391695,74.5050505 C27.7934905,75.2188552 27.1964085,76.0583614 26.9360269,76.6868687 C26.8987602,76.7729697 26.8672652,76.8614556 26.8417508,76.9517396 C26.8109378,77.0534502 26.8002633,77.1601952 26.8103255,77.2659933 C26.8260214,77.403329 26.9182262,77.5198898 27.0482604,77.5667789 L27.1515152,77.5667789 L27.3670034,77.5308642 L27.375982,77.5308642 Z M25.2121212,25.1268238 C25.0714553,25.0490086 24.9218107,24.9756828 24.7631874,24.9068462 L24.7631874,22.6801347 C24.7619793,22.5098972 24.7454517,22.3401139 24.7138047,22.1728395 C25.1975857,21.9421652 25.6501351,21.6510251 26.0606061,21.3063973 C25.7912458,22.6801347 25.4904602,23.9955107 25.2166105,25.1268238 L25.2121212,25.1268238 Z" id="Shape"></path>
            </g>
            <path d="M146.298541,147.52413 C146.298541,147.52413 144.95174,146.392817 146.298541,144.354658 C147.645342,142.316498 150.145903,143.905724 150.145903,143.905724 C150.145903,143.905724 151.043771,146.84624 150.145903,147.52413 C149.248036,148.20202 146.298541,147.52413 146.298541,147.52413 Z" id="Shape" fill="#CA7070" fill-rule="nonzero"></path>
            <path d="M160.287318,223.241302 L154.051627,223.241302 C154.098333,223.835684 153.883592,224.420894 153.463524,224.843996 C152.624018,225.813692 150.936027,226.98541 151.73064,227.384961 L160.287318,227.384961 L160.287318,223.241302 Z" id="cbb1ca8a-3a06-4d8d-9881-c3637d2b9b50" fill="#00695C" fill-rule="nonzero"></path>
            <path d="M153.916947,224.843996 C154.337015,224.420894 154.551756,223.835684 154.505051,223.241302 L154.056117,223.241302 C154.102822,223.835684 153.888081,224.420894 153.468013,224.843996 C152.628507,225.813692 150.940516,226.98541 151.735129,227.384961 L152.184063,227.384961 C151.38945,226.98541 153.077441,225.818182 153.916947,224.843996 Z" id="Shape" fill="#FFFFFF" fill-rule="nonzero" opacity="0.2"></path>
            <path d="M182.491582,221.957351 L176.655443,222.904602 C176.816808,223.599549 176.722794,224.329355 176.390572,224.960718 C175.753086,226.30752 174.320988,227.986532 175.182941,228.350168 L183.631874,227.003367 L182.491582,221.957351 Z" id="ec846da8-b8c9-4838-98ee-b96510078eab" fill="#00695C" fill-rule="nonzero"></path>
            <path d="M179.645342,144.763187 C179.645342,144.763187 186.320988,165.822671 175.124579,177.481481 L171.892256,175.007856 C171.892256,175.007856 178.50954,152.022447 174.805836,146.626263 C181.342312,144.448934 179.645342,144.763187 179.645342,144.763187 Z" id="Shape" fill="#00695C" fill-rule="nonzero"></path>
            <path d="M175.030303,146.621773 C175.030303,146.621773 173.683502,145.49046 175.030303,143.452301 C176.377104,141.414141 178.877666,143.003367 178.877666,143.003367 C178.877666,143.003367 179.775533,145.943883 178.877666,146.621773 C177.979798,147.299663 175.030303,146.621773 175.030303,146.621773 Z" id="Shape" fill="#CA7070" fill-rule="nonzero"></path>
            <path d="M176.839506,224.965208 C177.17282,224.332571 177.26686,223.600968 177.104377,222.904602 L182.491582,222.006734 L182.491582,221.934905 L176.655443,222.904602 C176.816808,223.599549 176.722794,224.329355 176.390572,224.960718 C175.753086,226.30752 174.320988,227.986532 175.182941,228.350168 L175.537598,228.291807 C174.895623,227.842873 176.228956,226.231201 176.839506,224.965208 Z" id="Shape" fill="#FFFFFF" fill-rule="nonzero" opacity="0.2"></path>
            <rect id="Rectangle-path" fill="#CA7070" fill-rule="nonzero" x="166.320988" y="164.381594" width="6.33445567" height="9.38720539" rx="3.16722783"></rect>
            <path d="M172.345679,176.363636 C172.345679,176.363636 178.882155,153.661055 175.32211,148.080808 C175.007856,148.022447 174.805836,147.977553 174.805836,147.977553 L174.747475,147.923681 L174.581369,147.977553 C178.285073,153.364759 171.667789,176.359147 171.667789,176.359147 L174.900112,178.832772 L175.182941,178.527497 L172.345679,176.363636 Z" id="Shape" fill="#FFFFFF" fill-rule="nonzero" opacity="0.2"></path>
            <circle id="Oval" fill="#CA7070" fill-rule="nonzero" cx="169.602694" cy="160.650954" r="7.01234568"></circle>
            <path d="M167.111111,170.603816 L167.111111,167.551066 C167.11137,167.327669 167.135449,167.104936 167.182941,166.886644 C164.367795,165.440807 162.86995,162.288536 163.527101,159.19279 C164.184251,156.097043 166.833522,153.825102 169.993266,153.647587 L169.598204,153.647587 C166.360628,153.646569 163.543218,155.862148 162.780842,159.008683 C162.018465,162.155218 163.50933,165.414652 166.388328,166.895623 C166.340836,167.113914 166.316757,167.336647 166.316498,167.560045 L166.316498,170.612795 C166.308233,171.524794 166.696587,172.395396 167.380718,172.998534 C168.064849,173.601672 168.977262,173.877842 169.881033,173.755331 C168.297019,173.550033 167.111399,172.201078 167.111111,170.603816 Z" id="Shape" fill="#FFFFFF" fill-rule="nonzero" opacity="0.2"></path>
            <path d="M176.727273,195.600449 C176.727273,195.600449 163.200898,197.126824 162.702581,195.600449 C159.196409,184.852974 162.702581,176.372615 162.702581,176.372615 C162.702581,172.499803 165.842115,169.360269 169.714927,169.360269 C173.587739,169.360269 176.727273,172.499803 176.727273,176.372615 L176.727273,195.600449 Z" id="Shape" fill="#00695C" fill-rule="nonzero"></path>
            <path d="M176.727273,195.600449 L182.837262,223.654321 L176.727273,223.654321 L170.392817,202.841751 C170.392817,202.841751 162.473625,206.23569 160.439955,213.023569 C158.406285,219.811448 160.439955,223.654321 160.439955,223.654321 L153.876543,223.654321 L153.809203,223.349046 C151.61181,213.176198 154.998785,202.603022 162.698092,195.600449" id="Shape" fill="#263238" fill-rule="nonzero"></path>
            <path d="M163.492705,195.600449 C159.986532,184.852974 163.492705,176.372615 163.492705,176.372615 C163.492069,172.675371 166.36212,169.612804 170.051627,169.373737 C169.903479,169.373737 169.750842,169.373737 169.602694,169.373737 C165.729882,169.373737 162.590348,172.513271 162.590348,176.386083 C162.590348,176.386083 159.084175,184.870932 162.590348,195.613917 C162.769921,196.161616 164.619529,196.314254 166.91807,196.291807 C165.050505,196.251403 163.636364,196.071829 163.492705,195.600449 Z" id="Shape" fill="#FFFFFF" fill-rule="nonzero" opacity="0.2"></path>
            <path d="M162.590348,176.255892 C162.590348,176.255892 144.493827,163.586981 146.30303,147.52413 L150.37486,147.52413 C150.37486,147.52413 160.098765,168.583614 166.329966,170.603816 C172.561167,172.624018 162.590348,176.255892 162.590348,176.255892 Z" id="Shape" fill="#00695C" fill-rule="nonzero"></path>
            <g id="Group" opacity="0.2" transform="translate(153.086420, 195.286195)" fill="#FFFFFF" fill-rule="nonzero">
                <path d="M17.4231201,8.04938272 L23.640853,28.4803591 L24.5387205,28.4803591 L18.2042649,7.667789 C18.2042649,7.667789 17.9124579,7.79349046 17.4231201,8.04938272 Z" id="Shape"></path>
                <path d="M10.5185185,0.426487093 L9.62065095,0.426487093 C1.92134345,7.42906034 -1.46563092,18.0022364 0.731762065,28.1750842 L0.799102132,28.4803591 L1.6969697,28.4803591 L1.62962963,28.1750842 C-0.567763353,18.0022364 2.81921101,7.42906034 10.5185185,0.426487093 Z" id="Shape"></path>
            </g>
            <path d="M146.98092,147.753086 L146.30303,147.753086 C144.507295,163.815937 162.590348,176.484848 162.590348,176.484848 L163.039282,176.314254 C160.942761,174.765432 145.28844,162.747475 146.98092,147.753086 Z" id="Shape" fill="#FFFFFF" fill-rule="nonzero" opacity="0.2"></path>
            <path d="M164.008979,157.517396 C164.399928,158.420221 164.674483,159.369096 164.826038,160.34119 C165.274972,162.30752 166.289562,164.26936 168.035915,165.279461 C169.003155,165.804126 170.078778,166.097618 171.178451,166.136925 C172.848485,166.24018 174.657688,165.916947 175.838384,164.731762 C176.57377,163.928856 177.067123,162.934367 177.261504,161.863075 C177.979272,158.64743 177.017513,155.28719 174.707071,152.938272 C172.324597,150.63744 168.834042,149.906169 165.728395,151.057239 C165.184697,151.323222 164.614365,151.530889 164.026936,151.676768 C163.114193,151.82297 162.187526,151.51464 161.544332,150.85073 C161.396643,151.328771 161.486148,151.8486 161.785212,152.249719 C162.084276,152.650838 162.55693,152.885001 163.057239,152.87991 C162.00926,153.383025 160.803962,153.447652 159.708193,153.059484 C160.346058,154.403215 161.912202,155.027715 163.299663,154.491582 C162.028887,155.057253 160.650084,155.339142 159.259259,155.317621 C159.551066,155.317621 160.121212,155.856341 160.47587,155.964085 C160.921185,156.034818 161.371845,156.066365 161.822671,156.058361 C162.760826,156.116052 163.595697,156.673203 164.008979,157.517396 Z" id="Shape" fill="#263238" fill-rule="nonzero"></path>
            <g id="Group" opacity="0.2" transform="translate(158.922559, 150.392817)" fill="#FFFFFF" fill-rule="nonzero">
                <path d="M4.15263749,2.47811448 C3.63298684,2.72976977 3.06819166,2.87478475 2.49158249,2.90460157 C3.22102184,2.94201754 3.94815512,2.79535584 4.60606061,2.47811448 C4.16226922,2.48077066 3.73769897,2.29721479 3.43561704,1.97209272 C3.13353512,1.64697064 2.98162485,1.21007715 3.01683502,0.767676768 C2.88154638,0.673320382 2.75530389,0.56661542 2.63973064,0.448933782 C2.4920413,0.926974914 2.58154618,1.44680457 2.88061027,1.84792318 C3.17967436,2.24904178 3.65232803,2.48320519 4.15263749,2.47811448 Z" id="Shape"></path>
                <path d="M5.57126824,1.28843996 C6.15869747,1.14256104 6.72902971,0.934893891 7.27272727,0.668911336 C8.13138964,0.329919203 9.04339725,0.145997669 9.96632997,0.125701459 C8.89274933,0.0907848344 7.82335822,0.275636726 6.82379349,0.668911336 C6.28009593,0.934893891 5.70976369,1.14256104 5.12233446,1.28843996 C5.04152637,1.28843996 4.96071829,1.28843996 4.87991021,1.31537598 C5.1105626,1.3361549 5.34293171,1.32710156 5.57126824,1.28843996 Z" id="Shape"></path>
                <path d="M1.98428732,5.57575758 C1.62962963,5.47250281 1.05948373,4.9382716 0.767676768,4.92929293 C2.15850154,4.95081382 3.53730406,4.66892531 4.80808081,4.10325477 C4.52295101,4.22084287 4.21855783,4.28476544 3.91021324,4.29180696 C2.7649606,4.73245675 1.54568728,4.94887777 0.318742985,4.92929293 C0.610549944,4.92929293 1.18069585,5.46801347 1.53535354,5.57575758 C1.84362777,5.65068242 2.16180265,5.67643944 2.47811448,5.65207632 C2.31092969,5.64774084 2.14498102,5.62209422 1.98428732,5.57575758 Z" id="Shape"></path>
                <path d="M12.7182941,15.7485971 C11.6186207,15.70929 10.5429976,15.4157985 9.57575758,14.8911336 C7.82940516,13.8720539 6.83277217,11.9102132 6.36588103,9.95286195 C6.21432588,8.98076872 5.93977057,8.03189352 5.54882155,7.12906846 C5.12844684,6.28027656 4.28162503,5.72546227 3.335578,5.67901235 C3.11142326,5.66227111 2.88633207,5.66227111 2.66217733,5.67901235 L2.88215488,5.67901235 C3.82820191,5.72546227 4.67502372,6.28027656 5.09539843,7.12906846 C5.48634745,8.03189352 5.76090276,8.98076872 5.91245791,9.95286195 C6.36139169,11.9191919 7.37598204,13.8810325 9.12233446,14.8911336 C10.0895745,15.4157985 11.1651976,15.70929 12.2648709,15.7485971 C12.5252525,15.7485971 12.7856341,15.7485971 13.0505051,15.7485971 L12.7182941,15.7485971 Z" id="Shape"></path>
                <path d="M3.62738496,4.27384961 C2.66244628,4.20411126 1.79792384,3.65196509 1.328844,2.80583614 C1.15072236,2.76793671 0.975265045,2.71844875 0.80359147,2.65768799 C1.31781308,3.73062391 2.44180491,4.37392607 3.62738496,4.27384961 Z" id="Shape"></path>
            </g>
            <path d="M146.751964,147.52413 C146.751964,147.52413 145.405163,146.392817 146.751964,144.354658 C147.114842,143.763002 147.739024,143.380816 148.430976,143.326599 C147.582178,143.226822 146.752414,143.6277 146.30303,144.354658 C144.956229,146.392817 146.30303,147.52413 146.30303,147.52413 C147.176944,147.719792 148.069659,147.81915 148.965208,147.820426 C148.220498,147.783448 147.480177,147.684338 146.751964,147.52413 Z" id="Shape" fill="#FFFFFF" fill-rule="nonzero" opacity="0.2"></path>
            <g id="Group" opacity="0.2" transform="translate(16.161616, 147.250281)" fill="url(#linearGradient-5)" fill-rule="nonzero">
                <path d="M0.455790128,0.397540557 L0.495790128,0.262540557 C0.495790128,0.262540557 -0.0142098719,0.162540557 0.455790128,0.397540557 Z" id="Shape"></path>
            </g>
            <g id="Group" opacity="0.2" transform="translate(6.734007, 144.556678)" fill="url(#linearGradient-6)" fill-rule="nonzero">
                <path d="M52.1661055,10.5993266 C52.1228559,10.4562749 52.0688292,10.3167059 52.0044893,10.1818182 C52.0044893,10.1369248 51.959596,10.1010101 51.9371493,10.0606061 C51.8964546,9.98044287 51.8514969,9.90251614 51.8024691,9.82716049 L51.7126824,9.71043771 C51.6662793,9.649619 51.6168335,9.59118315 51.5645342,9.53535354 L51.4612795,9.43209877 C51.4074074,9.38271605 51.3535354,9.33782267 51.2996633,9.29741863 L51.1874299,9.21661055 L51.0078563,9.10886644 L50.8956229,9.05050505 L50.6936027,8.96520763 L50.5903479,8.92480359 C50.4945754,8.89188178 50.3973064,8.86494575 50.298541,8.84399551 C49.6453334,8.72048728 48.9732067,8.73885976 48.3277217,8.89786756 C48.3277217,8.89786756 46.4466891,11.6722783 47.1694725,12.6689113 L46.9315376,12.5970819 C46.9315376,12.5970819 32.956229,28.1930415 25.0729517,31.0886644 C24.872428,30.9509914 24.664422,30.822297 24.4489338,30.7025814 L24.4489338,27.7845118 C24.4554979,27.661891 24.4554979,27.5390069 24.4489338,27.4163861 C24.4354165,27.3002358 24.415937,27.1848572 24.3905724,27.0707071 L24.4489338,27.0392817 L24.6823793,26.9090909 L25.0190797,26.7025814 L25.2345679,26.5634119 C25.3961841,26.4526749 25.5458287,26.3359521 25.6835017,26.2132435 L25.8585859,26.0606061 C25.96633,25.9708193 26.0695847,25.8765432 26.1683502,25.7777778 L26.3479237,25.6026936 C26.4736251,25.4739993 26.5933408,25.342312 26.7070707,25.2076319 L26.8327722,25.0549944 C26.9405163,24.9203143 27.043771,24.7826412 27.1425365,24.6419753 L27.2682379,24.4534231 C27.3580247,24.3157501 27.4433221,24.1750842 27.5241302,24.0314254 L27.6049383,23.8922559 C27.7037037,23.708193 27.7979798,23.5151515 27.8787879,23.3176207 L27.9506173,23.1425365 C28.013468,22.9839132 28.0718294,22.8237935 28.1257015,22.6621773 C28.1257015,22.6038159 28.1661055,22.5499439 28.1795735,22.4915825 C28.2424242,22.2805836 28.3007856,22.0695847 28.345679,21.8496072 C28.345679,21.8047138 28.345679,21.7643098 28.3681257,21.7194164 C28.4040404,21.53685 28.4324729,21.3512907 28.4534231,21.1627385 C28.4534231,21.0998878 28.4534231,21.037037 28.4534231,20.9741863 C28.4534231,20.7452301 28.4893378,20.5252525 28.4893378,20.2783389 C28.4895517,18.5315769 27.8905594,16.8376012 26.7923681,15.4792368 C27.3894501,14.5454545 27.7800224,13.993266 27.7800224,13.993266 C27.4208754,13.7463524 27.0662177,13.5218855 26.7160494,13.301908 L26.3748597,13.0998878 C26.1414141,12.9607183 25.9259259,12.8215488 25.674523,12.6958474 L25.2839506,12.4893378 C25.0729517,12.3771044 24.8664422,12.2693603 24.6599327,12.1705948 L24.2603816,11.986532 L23.6632997,11.7261504 L23.2727273,11.5690236 C23.0751964,11.4927048 22.8776655,11.4208754 22.684624,11.3535354 L22.3164983,11.2278339 C22.1144781,11.1649832 21.9124579,11.1066218 21.714927,11.0527497 L21.3872054,10.962963 C21.1627385,10.9090909 20.9382716,10.8641975 20.7182941,10.8193042 L20.4803591,10.7699214 C20.1795735,10.7160494 19.8832772,10.6756453 19.5824916,10.6487093 C17.7454996,10.4518629 15.8889034,10.736541 14.1952862,11.4747475 C14.285073,9.328844 14.64422,7.56004489 15.3984287,6.46464646 L15.2143659,6.40179574 L15.1515152,6.46464646 C15.1515152,6.46464646 14.9315376,6.51402918 14.5858586,6.57687991 C14.4767709,6.75134804 14.379291,6.93281062 14.2940516,7.12008979 C14.4449452,6.36078959 14.7357081,5.63616588 15.1515152,4.98316498 L14.9674523,4.92031425 C15.2323232,4.64646465 16.1930415,3.4657688 14.9046016,1.5308642 C13.4231201,-0.686868687 10.71156,1.03703704 10.71156,1.03703704 C10.4965938,1.76936377 10.3552278,2.52131068 10.2895623,3.28170595 C10.0830527,3.19640853 9.9349046,3.1335578 9.84062851,3.08417508 C8.54161247,7.66810832 7.83404204,12.3993256 7.73512907,17.1627385 C2.84624018,24.1032548 0.826038159,34.3479237 0.430976431,36.5566779 L0.399551066,36.7317621 C0.372615039,36.8933782 0.359147026,36.9786756 0.359147026,36.9786756 L13.0684624,37.2749719 C13.0684624,37.3198653 13.0684624,37.3602694 13.0684624,37.4051627 L13.0684624,57.5308642 L3.81593715,77.0998878 C3.81593715,77.0998878 7.335578,77.2121212 12.6329966,77.8900112 L11.1694725,88.3546577 L10.6801347,91.2906846 L19.4882155,91.2906846 C20.4668911,89.3333333 15.5735129,88.3546577 15.5735129,88.3546577 L15.4657688,88.3546577 L17.3737374,78.5903479 C18.2177329,78.7310138 19.0856715,78.8806584 19.9775533,79.0392817 C21.2851662,79.2922016 22.6105818,79.4423053 23.9416386,79.4882155 C25.0435909,79.5267291 26.1468664,79.4786953 27.2413019,79.3445567 C27.8877666,84.637486 27.0392817,87.7979798 26.8776655,88.3232323 L26.8282828,88.3232323 L26.338945,91.2592593 L35.1470258,91.2592593 C36,89.5533109 32.3905724,88.5881033 31.4523008,88.372615 L31.4927048,88.0852974 C31.9457476,84.7835179 32.0615708,81.4442018 31.8383838,78.1189675 C32.974968,77.6583224 34.0346607,77.0270483 34.9809203,76.2469136 L35.1021324,76.1391695 L35.1380471,76.1032548 L28.5791246,57.6969697 C29.8047138,52.4893378 25.5398429,47.0213244 27.8159371,44.2873176 C30.0920314,41.5533109 28.7138047,38.0650954 28.4444444,37.4680135 C34.6038159,34.7744108 47.0527497,28.040404 50.5454545,16.3681257 C50.8019832,15.5474698 51.0103442,14.7125268 51.1694725,13.8675645 C51.1694725,13.8675645 52.9292929,13.1537598 52.1661055,10.5993266 Z" id="Shape"></path>
            </g>
            <path d="M17.993266,151.04826 C17.993266,151.04826 11.3176207,172.107744 22.5140292,183.766554 L25.7463524,181.292929 C25.7463524,181.292929 19.1290685,158.30752 22.8327722,152.911336 C16.2962963,150.734007 17.993266,151.04826 17.993266,151.04826 Z" id="Shape" fill="#FF5252" fill-rule="nonzero"></path>
            <path d="M22.6083053,152.906846 C22.6083053,152.906846 23.9551066,151.775533 22.6083053,149.737374 C21.2615039,147.699214 18.7609428,149.28844 18.7609428,149.28844 C18.7609428,149.28844 17.8630752,152.228956 18.7609428,152.906846 C19.6588103,153.584736 22.6083053,152.906846 22.6083053,152.906846 Z" id="Shape" fill="#F6B9AD" fill-rule="nonzero"></path>
            <rect id="Rectangle-path" fill="#F6B9AD" fill-rule="nonzero" transform="translate(28.150393, 175.360269) rotate(180.000000) translate(-28.150393, -175.360269) " x="24.983165" y="170.666667" width="6.33445567" height="9.38720539" rx="3.16722783"></rect>
            <path d="M25.2929293,182.648709 C25.2929293,182.648709 18.7564534,159.946128 22.3164983,154.365881 C22.630752,154.30752 22.8327722,154.262626 22.8327722,154.262626 L22.8911336,154.208754 L23.0572391,154.262626 C19.3535354,159.649832 25.9708193,182.64422 25.9708193,182.64422 L22.7384961,185.117845 L22.4556678,184.81257 L25.2929293,182.648709 Z" id="Shape" fill="#FFFFFF" fill-rule="nonzero" opacity="0.2"></path>
            <circle id="Oval" fill="#F6B9AD" fill-rule="nonzero" cx="28.0359147" cy="166.936027" r="7.01234568"></circle>
            <path d="M30.5274972,176.888889 L30.5274972,173.836139 C30.5272384,173.612742 30.5031592,173.390008 30.4556678,173.171717 C33.2708137,171.72588 34.7686583,168.573609 34.1115077,165.477862 C33.4543571,162.382116 30.805086,160.110175 27.6453423,159.93266 L28.040404,159.93266 C31.2779804,159.931642 34.0953901,162.147221 34.8577665,165.293756 C35.6201428,168.440291 34.129278,171.699725 31.2502806,173.180696 C31.297772,173.398987 31.3218512,173.62172 31.32211,173.845118 L31.32211,176.897868 C31.3303757,177.809867 30.9420214,178.680469 30.2578906,179.283607 C29.5737598,179.886745 28.6613465,180.162915 27.7575758,180.040404 C29.3415893,179.835106 30.5272096,178.486151 30.5274972,176.888889 Z" id="Shape" fill="#FFFFFF" fill-rule="nonzero" opacity="0.2"></path>
            <path d="M20.9113356,201.885522 C20.9113356,201.885522 34.4377104,203.411897 34.9360269,201.885522 C36.5521886,196.94725 32.2424242,191.609428 34.3973064,189.001122 C36.6419753,186.30752 34.9360269,182.657688 34.9360269,182.657688 C34.9360269,178.784876 31.7964928,175.645342 27.9236813,175.645342 C24.0508697,175.645342 20.9113356,178.784876 20.9113356,182.657688 L20.9113356,201.885522 Z" id="Shape" fill="#FF5252" fill-rule="nonzero"></path>
            <path d="M34.4152637,189.001122 C36.6599327,186.30752 34.9539843,182.657688 34.9539843,182.657688 C34.9539843,178.784876 31.8144502,175.645342 27.9416386,175.645342 C27.7890011,175.645342 27.640853,175.645342 27.4927048,175.667789 C31.1815489,175.90221 34.0540862,178.961403 34.0561167,182.657688 C34.0561167,182.657688 35.7620651,186.30752 33.5173962,189.001122 C31.3445567,191.609428 35.6722783,196.942761 34.0561167,201.885522 C33.9034792,202.356902 32.5072952,202.536476 30.6531987,202.563412 C32.9382716,202.585859 34.7789001,202.433221 34.9539843,201.885522 C36.5881033,196.938272 32.2424242,191.609428 34.4152637,189.001122 Z" id="Shape" fill="#FFFFFF" fill-rule="nonzero" opacity="0.2"></path>
            <path d="M32.0673401,201.436588 C37.0056117,208.435466 39.1919192,219.012346 37.7777778,229.185185 L37.7373737,229.49046 L33.5218855,229.49046 C33.5218855,229.49046 34.8282828,225.643098 33.5218855,218.859708 C32.7211429,214.792881 30.4440272,211.166126 27.1290685,208.67789 L23.0617284,229.49046 L19.1380471,229.49046 L23.0617284,201.436588 L32.0673401,201.436588 Z" id="Shape" fill="#F6B9AD" fill-rule="nonzero"></path>
            <path d="M55.8428732,161.090909 C55.8428732,161.090909 57.4725028,160.40853 56.7721661,158.060606 C56.0718294,155.712682 53.2255892,156.502806 53.2255892,156.502806 C53.2255892,156.502806 51.4971942,159.04826 52.1661055,159.964085 C52.8350168,160.87991 55.8428732,161.090909 55.8428732,161.090909 Z" id="Shape" fill="#F6B9AD" fill-rule="nonzero"></path>
            <path d="M31.8473625,183.789001 C31.8473625,183.789001 52.8619529,176.978676 55.8383838,161.090909 L51.9461279,159.896745 C51.9461279,159.896745 36.4803591,177.162738 29.9483726,177.283951 C23.4163861,177.405163 31.8473625,183.789001 31.8473625,183.789001 Z" id="Shape" fill="#FF5252" fill-rule="nonzero"></path>
            <path d="M55.1245791,161.108866 L55.7755331,161.306397 C52.7991021,177.194164 31.7845118,184.004489 31.7845118,184.004489 L31.4118967,183.712682 C33.8945006,182.85073 52.3501684,175.928171 55.1245791,161.108866 Z" id="Shape" fill="#FFFFFF" fill-rule="nonzero" opacity="0.2"></path>
            <g id="Group" opacity="0.2" transform="translate(21.997755, 201.122334)" fill="#FFFFFF" fill-rule="nonzero">
                <path d="M4.22895623,7.55555556 L0.161616162,28.3681257 L1.05948373,28.3681257 L5.01010101,8.1661055 C4.76028566,7.94942038 4.49956433,7.74563819 4.22895623,7.55555556 Z" id="Shape"></path>
                <path d="M10.0695847,0.314253648 L9.17171717,0.314253648 C14.1099888,7.31313131 16.2962963,17.8900112 14.8821549,28.0628507 L14.8417508,28.3681257 L15.7396184,28.3681257 L15.7800224,28.0628507 C17.1941639,17.8900112 15.016835,7.31313131 10.0695847,0.314253648 Z" id="Shape"></path>
            </g>
            <path d="M55.4074074,160.95174 C55.4074074,160.95174 57.037037,160.26936 56.3367003,157.921437 C56.1641493,157.249104 55.6801507,156.700016 55.0347924,156.444444 C55.8756026,156.598022 56.5513362,157.224739 56.7676768,158.051627 C57.4680135,160.395062 55.8383838,161.08193 55.8383838,161.08193 C54.9460766,161.013791 54.0639071,160.848196 53.2076319,160.588103 C53.9295075,160.770252 54.6653156,160.891886 55.4074074,160.95174 Z" id="Shape" fill="#FFFFFF" fill-rule="nonzero" opacity="0.2"></path>
            <path d="M20.9113356,201.122334 L12.3815937,219.079686 C17.3560627,219.327808 22.3067166,219.927887 27.1964085,220.875421 C36.624018,222.671156 41.1133558,218.181818 41.1133558,218.181818 L35.030303,201.122334 L20.9113356,201.122334 Z" id="Shape" fill="#263238" fill-rule="nonzero"></path>
            <path d="M23.1739618,229.405163 C23.1739618,229.405163 27.6632997,230.30303 26.7654321,232.098765 L18.684624,232.098765 L19.1335578,229.405163 L23.1739618,229.405163 Z" id="Shape" fill="#FF5252" fill-rule="nonzero"></path>
            <path d="M37.5398429,229.405163 C37.5398429,229.405163 42.0291807,230.30303 41.1313131,232.098765 L33.0505051,232.098765 L33.4994388,229.405163 L37.5398429,229.405163 Z" id="Shape" fill="#FF5252" fill-rule="nonzero"></path>
            <path d="M34.3973064,161.167228 C34.3973064,161.167228 23.6228956,176.430976 28.5611672,182.716049 L9.25701459,182.267116 C9.25701459,182.267116 14.64422,147.699214 34.3973064,161.167228 Z" id="Shape" fill="#FCCC63" fill-rule="nonzero"></path>
            <path d="M34.3973064,161.167228 C31.6139169,159.268238 29.1178451,158.325477 26.8776655,158.105499 C28.7610274,158.697157 30.5406982,159.578662 32.1526375,160.718294 C32.1526375,160.718294 21.3782267,175.982043 26.3164983,182.267116 L9.32435466,181.872054 C9.27946128,182.127946 9.25701459,182.267116 9.25701459,182.267116 L28.5611672,182.716049 C23.6228956,176.430976 34.3973064,161.167228 34.3973064,161.167228 Z" id="Shape" fill="#FFFFFF" fill-rule="nonzero" opacity="0.2"></path>
            <path d="M35.0527497,201.122334 L33.7059484,201.122334 L39.7890011,218.181818 C39.7890011,218.181818 36.8888889,221.077441 30.8552189,221.283951 C37.8002245,221.508418 41.1358025,218.181818 41.1358025,218.181818 L35.0527497,201.122334 Z" id="Shape" fill="#FFFFFF" fill-rule="nonzero" opacity="0.2"></path>
            <path d="M23.1739618,229.405163 L22.2760943,229.405163 C22.2760943,229.405163 26.7654321,230.30303 25.8675645,232.098765 L26.7654321,232.098765 C27.6632997,230.30303 23.1739618,229.405163 23.1739618,229.405163 Z" id="Shape" fill="#FFFFFF" fill-rule="nonzero" opacity="0.2"></path>
            <path d="M37.5398429,229.405163 L36.6419753,229.405163 C36.6419753,229.405163 41.1313131,230.30303 40.2334456,232.098765 L41.1313131,232.098765 C42.0291807,230.30303 37.5398429,229.405163 37.5398429,229.405163 Z" id="Shape" fill="#FFFFFF" fill-rule="nonzero" opacity="0.2"></path>
            <rect id="Rectangle-path" fill="#F5F5F5" fill-rule="nonzero" x="224.74523" y="75.2772166" width="171.941639" height="6.50953984"></rect>
            <rect id="Rectangle-path" fill="url(#linearGradient-1)" fill-rule="nonzero" x="221.324355" y="73.1986532" width="178.675645" height="222.671156"></rect>
            <rect id="Rectangle-path" fill="#FFFFFF" fill-rule="nonzero" x="224.74523" y="81.7867565" width="171.941639" height="206.285073"></rect>
            <circle id="Oval" fill="#FF5252" fill-rule="nonzero" cx="228.731762" cy="78.64422" r="1.57126824"></circle>
            <circle id="Oval" fill="#FFFF00" fill-rule="nonzero" cx="233.050505" cy="78.64422" r="1.57126824"></circle>
            <circle id="Oval" fill="#69F0AE" fill-rule="nonzero" cx="237.373737" cy="78.64422" r="1.57126824"></circle>
            <g id="Group" opacity="0.2" transform="translate(235.241302, 90.684624)" fill="#D6E2F3" fill-rule="nonzero">
                <rect id="Rectangle-path" x="0.278338945" y="0.305274972" width="150.841751" height="4.04040404"></rect>
            </g>
            <rect id="Rectangle-path" fill="url(#linearGradient-1)" fill-rule="nonzero" x="234.621773" y="108.498316" width="65.0953984" height="69.1358025"></rect>
            <rect id="Rectangle-path" fill="#FFFFFF" fill-rule="nonzero" x="235.968575" y="110.742985" width="62.4017957" height="64.6464646"></rect>
            <rect id="Rectangle-path" fill="url(#linearGradient-1)" fill-rule="nonzero" x="321.265993" y="143.066218" width="65.0953984" height="69.1358025"></rect>
            <rect id="Rectangle-path" fill="#FFFFFF" fill-rule="nonzero" x="322.612795" y="145.310887" width="62.4017957" height="64.6464646"></rect>
            <rect id="Rectangle-path" fill="url(#linearGradient-7)" fill-rule="nonzero" x="235.968575" y="228.363636" width="153.08642" height="47.5869809"></rect>
            <rect id="Rectangle-path" fill="#D6E2F3" fill-rule="nonzero" opacity="0.5" x="239.111111" y="231.506173" width="147.250281" height="42.6487093"></rect>
            <polygon id="Shape" fill="#FFFFFF" fill-rule="nonzero" opacity="0.5" points="242.702581 235.546577 386.361392 235.546577 386.361392 231.506173 239.111111 231.506173 239.111111 274.154882 242.702581 274.154882"></polygon>
            <path d="M288.031425,124.906846 C279.243554,114.692217 264.400817,112.239316 252.793817,119.083504 C241.186818,125.927692 236.149217,140.103239 240.834232,152.737161 C245.519246,165.371083 258.581286,172.834774 271.84435,170.456441 C285.107415,168.078109 294.762202,156.540836 294.765432,143.066218 C294.773431,136.400988 292.383205,129.955347 288.031425,124.906846 Z M276.808081,159.685746 C269.274154,164.149882 259.679056,162.983376 253.434216,156.844114 C247.189377,150.704851 245.859454,141.131035 250.194494,133.522094 C254.529534,125.913153 263.443385,122.17552 271.908826,124.417142 C280.374268,126.658763 286.270266,134.317996 286.271605,143.075196 C286.292729,149.89679 282.696247,156.218398 276.821549,159.685746 L276.808081,159.685746 Z" id="Shape" fill="url(#linearGradient-8)" fill-rule="nonzero"></path>
            <path d="M280.8844,131.061728 L287.012346,125.786756 C281.98781,119.935651 274.657421,116.5722 266.945006,116.579114 L266.945006,124.659933 C272.302826,124.658463 277.394155,126.996703 280.8844,131.061728 Z" id="Shape" fill="#FF5252" fill-rule="nonzero"></path>
            <path d="M266.945006,161.468013 C264.324219,161.469389 261.733743,160.907507 259.349046,159.820426 L256.013468,167.18743 C263.897709,170.763199 273.031826,170.260312 280.47587,165.840629 L276.345679,158.886644 C273.503373,160.581754 270.254396,161.473904 266.945006,161.468013 Z" id="Shape" fill="#69F0AE" fill-rule="nonzero"></path>
            <path d="M293.432099,143.061728 C293.440125,136.717246 291.160904,130.582474 287.012346,125.782267 L280.8844,131.057239 C284.446515,135.175399 285.998748,140.661302 285.122437,146.035312 C284.246127,151.409322 281.031532,156.117924 276.345679,158.891134 L280.47587,165.845118 C288.51274,161.069324 293.436755,152.410497 293.432099,143.061728 Z" id="Shape" fill="#FF9800" fill-rule="nonzero"></path>
            <path d="M248.538721,143.061728 C248.538721,132.896218 256.779495,124.655443 266.945006,124.655443 L266.945006,116.574635 C254.471769,116.575025 243.689027,125.277785 241.055731,137.469889 C238.422436,149.661992 244.652252,162.039187 256.013468,167.18743 L259.349046,159.820426 C252.769319,156.839402 248.541516,150.285253 248.538721,143.061728 Z" id="Shape" fill="#D6E2F3" fill-rule="nonzero"></path>
            <rect id="Rectangle-path" fill="url(#linearGradient-1)" fill-rule="nonzero" x="331.142536" y="154.738496" width="47.5869809" height="8.08080808"></rect>
            <rect id="Rectangle-path" fill="#D6E2F3" fill-rule="nonzero" x="331.59147" y="155.18743" width="46.6891134" height="7.18294052"></rect>
            <rect id="Rectangle-path" fill="#FF5252" fill-rule="nonzero" x="331.59147" y="167.308642" width="34.1189675" height="7.18294052"></rect>
            <rect id="Rectangle-path" fill="#69F0AE" fill-rule="nonzero" x="331.59147" y="179.429854" width="23.3445567" height="7.18294052"></rect>
            <rect id="Rectangle-path" fill="#FF9800" fill-rule="nonzero" x="331.59147" y="191.551066" width="42.1997755" height="7.18294052"></rect>
            <rect id="Rectangle-path" fill="#F5F5F5" fill-rule="nonzero" x="235.968575" y="188.40853" width="66.8911336" height="4.04040404"></rect>
            <rect id="Rectangle-path" fill="#F5F5F5" fill-rule="nonzero" x="235.968575" y="195.142536" width="37.7104377" height="4.04040404"></rect>
            <rect id="Rectangle-path" fill="#F5F5F5" fill-rule="nonzero" x="280.413019" y="195.142536" width="13.0190797" height="4.04040404"></rect>
            <rect id="Rectangle-path" fill="#F5F5F5" fill-rule="nonzero" x="280.413019" y="209.957351" width="13.0190797" height="4.04040404"></rect>
            <rect id="Rectangle-path" fill="#F5F5F5" fill-rule="nonzero" x="235.968575" y="208.61055" width="37.7104377" height="4.04040404"></rect>
            <rect id="Rectangle-path" fill="#F5F5F5" fill-rule="nonzero" x="235.968575" y="201.876543" width="66.8911336" height="4.04040404"></rect>
            <rect id="Rectangle-path" fill="#F5F5F5" fill-rule="nonzero" x="320.368126" y="108.94725" width="66.8911336" height="4.04040404"></rect>
            <rect id="Rectangle-path" fill="#F5F5F5" fill-rule="nonzero" x="320.368126" y="115.681257" width="37.7104377" height="4.04040404"></rect>
            <rect id="Rectangle-path" fill="#F5F5F5" fill-rule="nonzero" x="364.81257" y="115.681257" width="13.0190797" height="4.04040404"></rect>
            <rect id="Rectangle-path" fill="#F5F5F5" fill-rule="nonzero" x="364.81257" y="130.496072" width="13.0190797" height="4.04040404"></rect>
            <rect id="Rectangle-path" fill="#F5F5F5" fill-rule="nonzero" x="320.368126" y="129.14927" width="37.7104377" height="4.04040404"></rect>
            <rect id="Rectangle-path" fill="#F5F5F5" fill-rule="nonzero" x="320.368126" y="122.415264" width="66.8911336" height="4.04040404"></rect>
            <circle id="Oval" fill="url(#linearGradient-1)" fill-rule="nonzero" cx="341.468013" cy="309.171717" r="4.9382716"></circle>
            <circle id="Oval" fill="#FF5252" fill-rule="nonzero" cx="341.468013" cy="309.171717" r="3.59147026"></circle>
            <rect id="Rectangle-path" fill="url(#linearGradient-1)" fill-rule="nonzero" x="195.564534" y="254.401796" width="154.433221" height="54.3209877"></rect>
            <rect id="Rectangle-path" fill="#FFFFFF" fill-rule="nonzero" x="200.053872" y="256.646465" width="147.250281" height="42.6487093"></rect>
            <path d="M204.992144,291.214366 L341.468013,291.214366" id="Shape" stroke="#D6E2F3" stroke-width="3" fill="url(#linearGradient-9)" fill-rule="nonzero"></path>
            <rect id="Rectangle-path" fill="url(#linearGradient-1)" fill-rule="nonzero" x="206.338945" y="265.176207" width="20.2020202" height="24.691358"></rect>
            <rect id="Rectangle-path" fill="#D6E2F3" fill-rule="nonzero" x="207.461279" y="266.298541" width="17.9573513" height="22.8956229"></rect>
            <rect id="Rectangle-path" fill="#69F0AE" fill-rule="nonzero" x="319.919192" y="282.684624" width="17.9573513" height="7.18294052"></rect>
            <rect id="Rectangle-path" fill="#FF9800" fill-rule="nonzero" x="286.249158" y="273.257015" width="17.9573513" height="16.1616162"></rect>
            <rect id="Rectangle-path" fill="#FF5252" fill-rule="nonzero" x="246.742985" y="275.950617" width="17.9573513" height="13.4680135"></rect>
            <rect id="Rectangle-path" fill="#FF5252" fill-rule="nonzero" x="200.053872" y="299.295174" width="147.250281" height="6.28507295"></rect>
            <circle id="Oval" fill="url(#linearGradient-1)" fill-rule="nonzero" cx="206.338945" cy="309.171717" r="4.9382716"></circle>
            <circle id="Oval" fill="#FF5252" fill-rule="nonzero" cx="206.338945" cy="309.171717" r="3.59147026"></circle>
            <rect id="Rectangle-path" fill="#FF5252" fill-rule="nonzero" x="196.462402" y="258.4422" width="3.59147026" height="47.1380471"></rect>
            <rect id="Rectangle-path" fill="#000000" fill-rule="nonzero" opacity="0.2" x="196.462402" y="258.4422" width="3.59147026" height="47.1380471"></rect>
            <path d="M200.291807,263.452301 C200.291807,263.402918 200.291807,263.358025 200.291807,263.308642 C200.291807,263.259259 200.291807,263.160494 200.291807,263.088664 C200.291807,263.016835 200.291807,262.994388 200.264871,262.949495 C200.237935,262.904602 200.233446,262.814815 200.210999,262.751964 C200.188552,262.689113 200.184063,262.666667 200.166105,262.621773 C200.148148,262.57688 200.112233,262.496072 200.085297,262.433221 L200.031425,262.320988 C199.995511,262.258137 199.955107,262.195286 199.914703,262.136925 L199.856341,262.051627 C199.797462,261.970687 199.734531,261.892772 199.667789,261.818182 C199.309754,261.43658 198.88535,261.123221 198.415264,260.893378 C198.783028,260.498269 199.057615,260.025797 199.218855,259.510662 C199.265362,259.372915 199.30138,259.231847 199.326599,259.088664 C199.326599,259.043771 199.326599,258.998878 199.326599,258.958474 C199.338707,258.872141 199.346199,258.785223 199.349046,258.698092 C199.349046,258.648709 199.349046,258.603816 199.349046,258.554433 C199.349046,258.505051 199.349046,258.406285 199.349046,258.334456 C199.349046,258.262626 199.349046,258.24018 199.32211,258.195286 C199.295174,258.150393 199.290685,258.060606 199.268238,257.997755 C199.245791,257.934905 199.241302,257.912458 199.223345,257.867565 C199.205387,257.822671 199.169473,257.741863 199.142536,257.679012 L199.088664,257.566779 C199.05275,257.503928 199.012346,257.441077 198.971942,257.382716 L198.91358,257.297419 C198.854701,257.216478 198.79177,257.138564 198.725028,257.063973 C198.277242,256.594646 197.733699,256.22718 197.131313,255.986532 C197.131313,255.986532 194.280584,257.041526 194.092031,258.199776 C192,258.648709 179.806958,261.185185 171.434343,260.983165 L171.371493,260.817059 C171.372618,258.056816 169.847077,255.522309 167.407407,254.231201 L167.407407,251.411897 C167.413814,251.292267 167.413814,251.17238 167.407407,251.05275 C167.395371,250.938164 167.377389,250.82428 167.353535,250.71156 L167.407407,250.680135 L167.636364,250.554433 L167.968575,250.352413 L168.179574,250.213244 C168.335204,250.105499 168.484848,249.99177 168.628507,249.872054 L168.799102,249.723906 C168.902357,249.634119 169.001122,249.544332 169.099888,249.450056 L169.274972,249.279461 C169.397681,249.15376 169.514403,249.025065 169.62514,248.893378 L169.746352,248.740741 C169.851104,248.609053 169.951366,248.474373 170.047138,248.3367 L170.16835,248.152637 C170.255144,248.017957 170.338945,247.880284 170.419753,247.739618 L170.496072,247.604938 C170.594837,247.425365 170.684624,247.236813 170.765432,247.04826 L170.832772,246.877666 C170.895623,246.725028 170.952488,246.575383 171.003367,246.428732 L171.057239,246.262626 C171.12009,246.056117 171.173962,245.849607 171.218855,245.638608 C171.218855,245.598204 171.218855,245.553311 171.241302,245.512907 C171.274224,245.333333 171.30116,245.152263 171.32211,244.969697 C171.32211,244.906846 171.32211,244.848485 171.32211,244.785634 C171.32211,244.561167 171.358025,244.3367 171.358025,244.107744 C171.357912,242.832059 171.028547,241.577997 170.401796,240.466891 C170.882155,240.350168 171.173962,240.255892 171.138047,240.210999 C170.953984,239.964085 170.769921,239.73064 170.57688,239.506173 L170.392817,239.295174 C170.258137,239.142536 170.127946,238.998878 169.993266,238.84624 L169.777778,238.626263 C169.643098,238.491582 169.508418,238.365881 169.373737,238.244669 L169.162738,238.056117 C168.992144,237.912458 168.821549,237.773288 168.650954,237.638608 L168.538721,237.548822 C168.332211,237.396184 168.125701,237.252525 167.914703,237.099888 L167.681257,236.956229 C167.546577,236.870932 167.407407,236.790123 167.268238,236.718294 L166.989899,236.574635 L166.603816,236.390572 L166.320988,236.264871 C166.186308,236.20651 166.047138,236.157127 165.907969,236.107744 L165.652076,236.013468 C165.445567,235.946128 165.239057,235.883277 165.032548,235.829405 L164.713805,235.757576 L164.368126,235.685746 L164.022447,235.631874 L163.703704,235.59596 L163.349046,235.564534 L163.043771,235.564534 L162.689113,235.564534 C162.494575,235.564534 162.300037,235.573513 162.105499,235.59147 C157.512907,235.968575 153.49046,239.977553 153.49046,246.365881 L153.49046,251.636364 L160.673401,251.636364 L160.673401,254.03367 C158.037297,255.24987 156.348138,257.886991 156.345679,260.790123 L156.345679,281.2211 L150.249158,309.230079 L150.16835,309.230079 L148.969697,314.57688 L157.571268,315.968575 L157.943883,316.026936 C158.841751,315.640853 157.337823,313.83165 156.659933,312.435466 C156.590689,312.289749 156.530712,312.139806 156.480359,311.986532 C156.385669,311.704926 156.328315,311.41212 156.309764,311.1156 L162.91807,289.436588 L162.886644,289.436588 L163.043771,288.929293 C163.043771,288.929293 171.45679,292.520763 173.620651,299.744108 C175.375982,305.580247 174.285073,309.378227 173.809203,310.608305 L173.777778,310.608305 L173.777778,310.680135 C173.683502,310.91358 173.616162,311.043771 173.616162,311.043771 L173.777778,311.043771 L173.777778,315.007856 L182.873176,315.007856 C183.717172,314.581369 181.925926,313.337823 181.032548,312.314254 C180.740065,311.989826 180.53599,311.595591 180.439955,311.169473 L180.592593,311.169473 L180.664422,310.84624 C182.990961,300.040236 179.428994,288.809625 171.299663,281.319865 C171.316268,281.296215 171.329842,281.270575 171.340067,281.243547 C172.198512,278.616509 172.727805,275.893139 172.915825,273.135802 C179.869809,273.800224 189.122334,273.324355 196.040404,267.964085 C196.70075,267.465099 197.3318,266.928482 197.930415,266.356902 C198.527497,266.312009 199.573513,265.979798 200.152637,264.291807 C200.199144,264.15406 200.235162,264.012991 200.260382,263.869809 C200.260382,263.824916 200.260382,263.780022 200.260382,263.739618 C200.276499,263.644547 200.286992,263.548608 200.291807,263.452301 Z" id="Shape" fill="url(#linearGradient-10)" fill-rule="nonzero"></path>
            <path d="M163.856341,271.362514 C163.856341,271.362514 184.911336,278.056117 196.574635,266.873176 L194.10101,263.636364 C194.10101,263.636364 171.474747,268.67789 166.083053,264.983165 C160.691358,261.28844 163.856341,271.362514 163.856341,271.362514 Z" id="Shape" fill="#D6E2F3" fill-rule="nonzero"></path>
            <path d="M195.982043,266.451178 L196.395062,266.989899 C184.722783,278.177329 163.676768,271.479237 163.676768,271.479237 C163.676768,271.479237 163.622896,271.308642 163.542088,271.030303 C166.051627,271.780022 185.099888,276.902357 195.982043,266.451178 Z" id="Shape" fill="#FFFFFF" fill-rule="nonzero" opacity="0.2"></path>
            <path d="M196.125701,266.868687 C196.125701,266.868687 197.849607,267.259259 198.64422,264.94725 C199.438833,262.635241 196.668911,261.616162 196.668911,261.616162 C196.668911,261.616162 193.782267,262.680135 193.791246,263.811448 C193.800224,264.942761 196.125701,266.868687 196.125701,266.868687 Z" id="Shape" fill="#985454" fill-rule="nonzero"></path>
            <path d="M195.851852,266.505051 C195.851852,266.505051 197.575758,266.895623 198.37037,264.583614 C198.619995,263.936409 198.544901,263.208839 198.16835,262.626263 C198.76384,263.240247 198.949443,264.143746 198.64422,264.942761 C197.849607,267.259259 196.125701,266.864198 196.125701,266.864198 C195.440421,266.28864 194.820193,265.639809 194.276094,264.929293 C194.756656,265.497412 195.283733,266.024489 195.851852,266.505051 Z" id="Shape" fill="#FFFFFF" fill-rule="nonzero" opacity="0.2"></path>
            <path d="M173.82716,308.538721 L180.062851,308.538721 C180.016145,309.133103 180.230886,309.718313 180.650954,310.141414 C181.49046,311.111111 183.178451,312.282828 182.383838,312.682379 L173.82716,312.682379 L173.82716,308.538721 Z" id="4635430b-7803-4f1f-9770-b56b2b482545" fill="#D6E2F3" fill-rule="nonzero"></path>
            <path d="M180.197531,310.141414 C179.777463,309.718313 179.562722,309.133103 179.609428,308.538721 L180.058361,308.538721 C180.011656,309.133103 180.226397,309.718313 180.646465,310.141414 C181.485971,311.111111 183.173962,312.282828 182.379349,312.682379 L181.930415,312.682379 C182.725028,312.282828 181.037037,311.1156 180.197531,310.141414 Z" id="Shape" fill="#FFFFFF" fill-rule="nonzero" opacity="0.2"></path>
            <path d="M151.618406,307.25477 L157.454545,308.210999 C157.293181,308.905947 157.387195,309.635752 157.719416,310.267116 C158.356902,311.613917 159.789001,313.292929 158.927048,313.656566 L150.478114,312.309764 L151.618406,307.25477 Z" id="a892faa3-7b18-4010-9d55-72c2aac7ddb8" fill="#D6E2F3" fill-rule="nonzero"></path>
            <path d="M157.274972,310.262626 C156.942751,309.631263 156.848737,308.901457 157.010101,308.20651 L151.600449,307.308642 L151.600449,307.236813 L157.436588,308.193042 C157.275224,308.887989 157.369238,309.617795 157.701459,310.249158 C158.338945,311.59596 159.771044,313.274972 158.909091,313.638608 L158.554433,313.580247 C159.218855,313.140292 157.885522,311.52862 157.274972,310.262626 Z" id="Shape" fill="#FFFFFF" fill-rule="nonzero" opacity="0.2"></path>
            <rect id="Rectangle-path" fill="#985454" fill-rule="nonzero" transform="translate(164.626263, 254.372615) rotate(180.000000) translate(-164.626263, -254.372615) " x="161.459035" y="249.679012" width="6.33445567" height="9.38720539" rx="3.16722783"></rect>
            <circle id="Oval" fill="#985454" fill-rule="nonzero" cx="164.511785" cy="245.948373" r="7.01234568"></circle>
            <path d="M167.003367,255.901235 L167.003367,252.848485 C167.003108,252.625087 166.979029,252.402354 166.931538,252.184063 C169.746684,250.738226 171.244528,247.585954 170.587378,244.490208 C169.930227,241.394462 167.280956,239.122521 164.121212,238.945005 L164.516274,238.945006 C167.75385,238.943987 170.57126,241.159566 171.333636,244.306101 C172.096013,247.452637 170.605148,250.71207 167.72615,252.193042 C167.773642,252.411333 167.797721,252.634066 167.79798,252.857464 L167.79798,255.910213 C167.806246,256.822212 167.417891,257.692815 166.73376,258.295953 C166.04963,258.899091 165.137216,259.175261 164.233446,259.05275 C165.817459,258.847452 167.003079,257.498497 167.003367,255.901235 Z" id="Shape" fill="#FFFFFF" fill-rule="nonzero" opacity="0.2"></path>
            <path d="M157.387205,280.897868 C157.387205,280.897868 170.91358,282.424242 171.411897,280.897868 C174.91807,270.150393 171.411897,261.670034 171.411897,261.670034 C171.411897,257.797222 168.272363,254.657688 164.399551,254.657688 C160.526739,254.657688 157.387205,257.797222 157.387205,261.670034 L157.387205,280.897868 Z" id="Shape" fill="#D6E2F3" fill-rule="nonzero"></path>
            <path d="M157.387205,280.897868 L151.277217,308.95174 L157.387205,308.95174 L163.721661,288.139169 C163.721661,288.139169 171.640853,291.533109 173.674523,298.320988 C175.708193,305.108866 173.674523,308.95174 173.674523,308.95174 L180.246914,308.95174 L180.314254,308.646465 C182.511647,298.473617 179.124672,287.900441 171.425365,280.897868" id="Shape" fill="#263238" fill-rule="nonzero"></path>
            <path d="M170.621773,280.897868 C174.127946,270.150393 170.621773,261.670034 170.621773,261.670034 C170.622409,257.972789 167.752358,254.910222 164.062851,254.671156 C164.210999,254.671156 164.363636,254.671156 164.511785,254.671156 C168.384596,254.671156 171.52413,257.81069 171.52413,261.683502 C171.52413,261.683502 175.030303,270.16835 171.52413,280.911336 C171.344557,281.459035 169.494949,281.611672 167.196409,281.589226 C169.063973,281.548822 170.469136,281.369248 170.621773,280.897868 Z" id="Shape" fill="#FFFFFF" fill-rule="nonzero" opacity="0.2"></path>
            <g id="Group" opacity="0.2" transform="translate(156.228956, 280.583614)" fill="#FFFFFF" fill-rule="nonzero">
                <path d="M7.37598204,8.04938272 L1.15824916,28.4803591 L0.260381594,28.4803591 L6.59483726,7.667789 C6.59483726,7.667789 6.88664422,7.79349046 7.37598204,8.04938272 Z" id="Shape"></path>
                <path d="M14.2805836,0.426487093 L15.1784512,0.426487093 C22.8777587,7.42906034 26.264733,18.0022364 24.0673401,28.1750842 L24,28.4803591 L23.1021324,28.4803591 L23.1694725,28.1750842 C25.3668655,18.0022364 21.9798911,7.42906034 14.2805836,0.426487093 Z" id="Shape"></path>
            </g>
            <path d="M162.958474,266.873176 C162.958474,266.873176 184.013468,273.566779 195.676768,262.383838 L193.203143,259.147026 C193.203143,259.147026 170.57688,264.188552 165.185185,260.493827 C159.79349,256.799102 162.958474,266.873176 162.958474,266.873176 Z" id="Shape" fill="#D6E2F3" fill-rule="nonzero"></path>
            <path d="M195.084175,261.961841 L195.497194,262.500561 C183.824916,273.687991 162.7789,266.989899 162.7789,266.989899 C162.7789,266.989899 162.725028,266.819304 162.64422,266.540965 C165.15376,267.290685 184.20202,272.413019 195.084175,261.961841 Z" id="Shape" fill="#FFFFFF" fill-rule="nonzero" opacity="0.2"></path>
            <path d="M195.227834,262.379349 C195.227834,262.379349 196.95174,262.769921 197.746352,260.457912 C198.540965,258.145903 195.771044,257.126824 195.771044,257.126824 C195.771044,257.126824 192.8844,258.190797 192.893378,259.32211 C192.902357,260.453423 195.227834,262.379349 195.227834,262.379349 Z" id="Shape" fill="#985454" fill-rule="nonzero"></path>
            <path d="M194.953984,262.015713 C194.953984,262.015713 196.67789,262.406285 197.472503,260.094276 C197.722127,259.447071 197.647034,258.719501 197.270483,258.136925 C197.865973,258.75091 198.051575,259.654408 197.746352,260.453423 C196.95174,262.769921 195.227834,262.37486 195.227834,262.37486 C194.542554,261.799302 193.922325,261.150471 193.378227,260.439955 C193.858789,261.008074 194.385865,261.535151 194.953984,262.015713 Z" id="Shape" fill="#FFFFFF" fill-rule="nonzero" opacity="0.2"></path>
            <path d="M165.037037,243.622896 L164.588103,253.050505 L154.71156,253.050505 L154.71156,248.044893 C154.71156,237.993266 165.337823,234.177329 171.32211,242.253648 C171.470258,242.473625 165.037037,243.622896 165.037037,243.622896 Z" id="Shape" fill="#263238" fill-rule="nonzero"></path>
            <path d="M162.819304,237.939394 C165.337823,238.145903 167.928171,239.519641 169.975309,242.280584 C170.123457,242.478114 163.690236,243.627385 163.690236,243.627385 L163.241302,253.054994 L164.588103,253.054994 L165.037037,243.627385 C165.037037,243.627385 171.470258,242.478114 171.32211,242.280584 C168.911336,239.021324 165.741863,237.719416 162.819304,237.939394 Z" id="Shape" fill="#FFFFFF" fill-rule="nonzero" opacity="0.2"></path>
        </g>
    </g>
</svg>