<?xml version="1.0" encoding="UTF-8"?>
<svg width="400px" height="307px" viewBox="0 0 400 307" version="1.1" xmlns="http://www.w3.org/2000/svg" xmlns:xlink="http://www.w3.org/1999/xlink">
    <!-- Generator: Sketch 50.2 (55047) - http://www.bohemiancoding.com/sketch -->
    <title>undraw_co-workers_ujs6</title>
    <desc>Created with Sketch.</desc>
    <defs>
        <linearGradient x1="-0.0079491256%" y1="49.9857218%" x2="100%" y2="49.9857218%" id="linearGradient-1">
            <stop stop-color="#808080" stop-opacity="0.25" offset="0%"></stop>
            <stop stop-color="#808080" stop-opacity="0.12" offset="54%"></stop>
            <stop stop-color="#808080" stop-opacity="0.1" offset="100%"></stop>
        </linearGradient>
        <linearGradient x1="0.00387688081%" y1="50.0080662%" x2="100.011897%" y2="50.0080662%" id="linearGradient-2">
            <stop stop-color="#808080" stop-opacity="0.25" offset="0%"></stop>
            <stop stop-color="#808080" stop-opacity="0.12" offset="54%"></stop>
            <stop stop-color="#808080" stop-opacity="0.1" offset="100%"></stop>
        </linearGradient>
        <linearGradient x1="0.00387688081%" y1="50.0110849%" x2="100.011897%" y2="50.0110849%" id="linearGradient-3">
            <stop stop-color="#808080" stop-opacity="0.25" offset="0%"></stop>
            <stop stop-color="#808080" stop-opacity="0.12" offset="54%"></stop>
            <stop stop-color="#808080" stop-opacity="0.1" offset="100%"></stop>
        </linearGradient>
        <linearGradient x1="-0.00991994667%" y1="49.9972838%" x2="100.044963%" y2="49.9972838%" id="linearGradient-4">
            <stop stop-color="#808080" stop-opacity="0.25" offset="0%"></stop>
            <stop stop-color="#808080" stop-opacity="0.12" offset="54%"></stop>
            <stop stop-color="#808080" stop-opacity="0.1" offset="100%"></stop>
        </linearGradient>
        <linearGradient x1="-0.000323723424%" y1="49.9984052%" x2="100.026101%" y2="49.9984052%" id="linearGradient-5">
            <stop stop-color="#808080" stop-opacity="0.25" offset="0%"></stop>
            <stop stop-color="#808080" stop-opacity="0.12" offset="54%"></stop>
            <stop stop-color="#808080" stop-opacity="0.1" offset="100%"></stop>
        </linearGradient>
        <linearGradient x1="-0.000323744549%" y1="49.9984052%" x2="100.032629%" y2="49.9984052%" id="linearGradient-6">
            <stop stop-color="#808080" stop-opacity="0.25" offset="0%"></stop>
            <stop stop-color="#808080" stop-opacity="0.12" offset="54%"></stop>
            <stop stop-color="#808080" stop-opacity="0.1" offset="100%"></stop>
        </linearGradient>
        <linearGradient x1="0%" y1="50.0015612%" x2="100%" y2="50.0015612%" id="linearGradient-7">
            <stop stop-color="#808080" stop-opacity="0.25" offset="0%"></stop>
            <stop stop-color="#808080" stop-opacity="0.12" offset="54%"></stop>
            <stop stop-color="#808080" stop-opacity="0.1" offset="100%"></stop>
        </linearGradient>
        <linearGradient x1="0.00260978606%" y1="50%" x2="100.019477%" y2="50%" id="linearGradient-8">
            <stop stop-color="#808080" stop-opacity="0.25" offset="0%"></stop>
            <stop stop-color="#808080" stop-opacity="0.12" offset="54%"></stop>
            <stop stop-color="#808080" stop-opacity="0.1" offset="100%"></stop>
        </linearGradient>
        <linearGradient x1="0.00260995551%" y1="50%" x2="100.025972%" y2="50%" id="linearGradient-9">
            <stop stop-color="#808080" stop-opacity="0.25" offset="0%"></stop>
            <stop stop-color="#808080" stop-opacity="0.12" offset="54%"></stop>
            <stop stop-color="#808080" stop-opacity="0.1" offset="100%"></stop>
        </linearGradient>
        <linearGradient x1="0%" y1="50%" x2="100%" y2="50%" id="linearGradient-10">
            <stop stop-color="#808080" stop-opacity="0.25" offset="0%"></stop>
            <stop stop-color="#808080" stop-opacity="0.12" offset="54%"></stop>
            <stop stop-color="#808080" stop-opacity="0.1" offset="100%"></stop>
        </linearGradient>
        <linearGradient x1="0.012722275%" y1="50%" x2="100%" y2="50%" id="linearGradient-11">
            <stop stop-color="#808080" stop-opacity="0.25" offset="0%"></stop>
            <stop stop-color="#808080" stop-opacity="0.12" offset="54%"></stop>
            <stop stop-color="#808080" stop-opacity="0.1" offset="100%"></stop>
        </linearGradient>
        <linearGradient x1="0%" y1="50.0641437%" x2="100%" y2="50.0641437%" id="linearGradient-12">
            <stop stop-color="#808080" stop-opacity="0.25" offset="0%"></stop>
            <stop stop-color="#808080" stop-opacity="0.12" offset="54%"></stop>
            <stop stop-color="#808080" stop-opacity="0.1" offset="100%"></stop>
        </linearGradient>
        <linearGradient x1="0.0145948284%" y1="49.9703393%" x2="100.003764%" y2="49.9703393%" id="linearGradient-13">
            <stop stop-color="#808080" stop-opacity="0.25" offset="0%"></stop>
            <stop stop-color="#808080" stop-opacity="0.12" offset="54%"></stop>
            <stop stop-color="#808080" stop-opacity="0.1" offset="100%"></stop>
        </linearGradient>
        <linearGradient x1="-0.0087558041%" y1="50.0163435%" x2="100.000395%" y2="50.0163435%" id="linearGradient-14">
            <stop stop-color="#808080" stop-opacity="0.25" offset="0%"></stop>
            <stop stop-color="#808080" stop-opacity="0.12" offset="54%"></stop>
            <stop stop-color="#808080" stop-opacity="0.1" offset="100%"></stop>
        </linearGradient>
        <linearGradient x1="-0.0164208501%" y1="50.0145761%" x2="100.023383%" y2="50.0145761%" id="linearGradient-15">
            <stop stop-color="#808080" stop-opacity="0.25" offset="0%"></stop>
            <stop stop-color="#808080" stop-opacity="0.12" offset="54%"></stop>
            <stop stop-color="#808080" stop-opacity="0.1" offset="100%"></stop>
        </linearGradient>
        <linearGradient x1="7.76264969e-14%" y1="50.0137563%" x2="99.9497114%" y2="50.0137563%" id="linearGradient-16">
            <stop stop-color="#808080" stop-opacity="0.25" offset="0%"></stop>
            <stop stop-color="#808080" stop-opacity="0.12" offset="54%"></stop>
            <stop stop-color="#808080" stop-opacity="0.1" offset="100%"></stop>
        </linearGradient>
        <linearGradient x1="7.76264969e-14%" y1="50.0022111%" x2="99.9497114%" y2="50.0022111%" id="linearGradient-17">
            <stop stop-color="#808080" stop-opacity="0.25" offset="0%"></stop>
            <stop stop-color="#808080" stop-opacity="0.12" offset="54%"></stop>
            <stop stop-color="#808080" stop-opacity="0.1" offset="100%"></stop>
        </linearGradient>
        <linearGradient x1="50.0093293%" y1="99.9928768%" x2="50.0093293%" y2="-0.000992369547%" id="linearGradient-18">
            <stop stop-color="#808080" stop-opacity="0.25" offset="0%"></stop>
            <stop stop-color="#808080" stop-opacity="0.12" offset="54%"></stop>
            <stop stop-color="#808080" stop-opacity="0.1" offset="100%"></stop>
        </linearGradient>
        <linearGradient x1="49.9991062%" y1="100%" x2="49.9991062%" y2="0%" id="linearGradient-19">
            <stop stop-color="#808080" stop-opacity="0.25" offset="0%"></stop>
            <stop stop-color="#808080" stop-opacity="0.12" offset="54%"></stop>
            <stop stop-color="#808080" stop-opacity="0.1" offset="100%"></stop>
        </linearGradient>
        <linearGradient x1="50%" y1="100%" x2="50%" y2="0%" id="linearGradient-20">
            <stop stop-color="#808080" stop-opacity="0.25" offset="0%"></stop>
            <stop stop-color="#808080" stop-opacity="0.12" offset="54%"></stop>
            <stop stop-color="#808080" stop-opacity="0.1" offset="100%"></stop>
        </linearGradient>
    </defs>
    <g id="Page-1" stroke="none" stroke-width="1" fill="none" fill-rule="evenodd">
        <g id="undraw_co-workers_ujs6">
            <path d="M330.505051,269.89899 L301.818182,269.89899 L301.818182,253.737374 L330.505051,253.737374 L330.505051,269.89899 Z M303.030303,268.686869 L329.292929,268.686869 L329.292929,254.949495 L303.030303,254.949495 L303.030303,268.686869 Z" id="Shape" fill="#D6E2F3" fill-rule="nonzero" opacity="0.2"></path>
            <path d="M359.191919,269.090909 L330.505051,269.090909 L330.505051,252.929293 L359.191919,252.929293 L359.191919,269.090909 Z M331.717172,267.878788 L357.979798,267.878788 L357.979798,254.141414 L331.717172,254.141414 L331.717172,267.878788 Z" id="Shape" fill="#D6E2F3" fill-rule="nonzero" opacity="0.2"></path>
            <path d="M387.878788,269.090909 L359.191919,269.090909 L359.191919,252.929293 L387.878788,252.929293 L387.878788,269.090909 Z M360.40404,267.878788 L386.666667,267.878788 L386.666667,254.141414 L360.40404,254.141414 L360.40404,267.878788 Z" id="Shape" fill="#D6E2F3" fill-rule="nonzero" opacity="0.2"></path>
            <path d="M387.878788,252.929293 L359.191919,252.929293 L359.191919,236.767677 L387.878788,236.767677 L387.878788,252.929293 Z M360.40404,251.717172 L386.666667,251.717172 L386.666667,237.979798 L360.40404,237.979798 L360.40404,251.717172 Z" id="Shape" fill="#D6E2F3" fill-rule="nonzero" opacity="0.2"></path>
            <path d="M359.191919,252.929293 L330.505051,252.929293 L330.505051,236.767677 L359.191919,236.767677 L359.191919,252.929293 Z M331.717172,251.717172 L357.979798,251.717172 L357.979798,237.979798 L331.717172,237.979798 L331.717172,251.717172 Z" id="Shape" fill="#D6E2F3" fill-rule="nonzero" opacity="0.2"></path>
            <path d="M35.959596,269.090909 L7.27272727,269.090909 L7.27272727,252.929293 L35.959596,252.929293 L35.959596,269.090909 Z M8.48484848,267.878788 L34.7474747,267.878788 L34.7474747,254.141414 L8.48484848,254.141414 L8.48484848,267.878788 Z" id="Shape" fill="#D6E2F3" fill-rule="nonzero" opacity="0.2"></path>
            <path d="M64.6464646,269.090909 L35.959596,269.090909 L35.959596,252.929293 L64.6464646,252.929293 L64.6464646,269.090909 Z M37.1717172,267.878788 L63.4343434,267.878788 L63.4343434,254.141414 L37.1717172,254.141414 L37.1717172,267.878788 Z" id="Shape" fill="#D6E2F3" fill-rule="nonzero" opacity="0.2"></path>
            <path d="M93.3333333,269.090909 L64.6464646,269.090909 L64.6464646,252.929293 L93.3333333,252.929293 L93.3333333,269.090909 Z M65.8585859,267.878788 L92.1212121,267.878788 L92.1212121,254.141414 L65.8585859,254.141414 L65.8585859,267.878788 Z" id="Shape" fill="#D6E2F3" fill-rule="nonzero" opacity="0.2"></path>
            <path d="M122.020202,269.89899 L93.3333333,269.89899 L93.3333333,253.737374 L122.020202,253.737374 L122.020202,269.89899 Z M94.5454545,268.686869 L120.808081,268.686869 L120.808081,254.949495 L94.5454545,254.949495 L94.5454545,268.686869 Z" id="Shape" fill="#D6E2F3" fill-rule="nonzero" opacity="0.2"></path>
            <path d="M93.3333333,252.929293 L64.6464646,252.929293 L64.6464646,236.767677 L93.3333333,236.767677 L93.3333333,252.929293 Z M65.8585859,251.717172 L92.1212121,251.717172 L92.1212121,237.979798 L65.8585859,237.979798 L65.8585859,251.717172 Z" id="Shape" fill="#D6E2F3" fill-rule="nonzero" opacity="0.2"></path>
            <path d="M64.6464646,252.929293 L35.959596,252.929293 L35.959596,236.767677 L64.6464646,236.767677 L64.6464646,252.929293 Z M37.1717172,251.717172 L63.4343434,251.717172 L63.4343434,237.979798 L37.1717172,237.979798 L37.1717172,251.717172 Z" id="Shape" fill="#D6E2F3" fill-rule="nonzero" opacity="0.2"></path>
            <path d="M359.709091,219.135354 C359.709091,219.135354 354.4,201.10303 360.70303,187.830303 C363.38358,182.280789 364.191697,176.011505 363.006061,169.963636 C362.420966,167.096282 361.574328,164.288582 360.476768,161.575758" id="Shape" stroke="#535461" stroke-width="2"></path>
            <path d="M364.40404,153.175758 C364.40404,155.385859 360.40404,161.793939 360.40404,161.793939 C360.40404,161.793939 356.40404,155.385859 356.40404,153.175758 C356.40404,150.965503 358.195806,149.173737 360.406061,149.173737 C362.616315,149.173737 364.408081,150.965503 364.408081,153.175758 L364.40404,153.175758 Z" id="Shape" fill="#D6E2F3" fill-rule="nonzero"></path>
            <path d="M371.018182,165.430303 C369.806061,167.284848 362.973737,170.488889 362.973737,170.488889 C362.973737,170.488889 363.09899,162.933333 364.29899,161.078788 C365.075591,159.87852 366.433536,159.183738 367.8613,159.256161 C369.289063,159.328584 370.569734,160.157208 371.220896,161.429898 C371.872057,162.702589 371.794783,164.225995 371.018182,165.426263 L371.018182,165.430303 Z" id="Shape" fill="#D6E2F3" fill-rule="nonzero"></path>
            <path d="M370.727273,186.351515 C368.755556,187.345455 361.232323,186.658586 361.232323,186.658586 C361.232323,186.658586 365.151515,180.193939 367.127273,179.20404 C369.100993,178.208812 371.507802,179.002037 372.50303,180.975758 C373.498258,182.949478 372.705034,185.356287 370.731313,186.351515 L370.727273,186.351515 Z" id="Shape" fill="#D6E2F3" fill-rule="nonzero"></path>
            <path d="M366.945455,202.129293 C365.167677,203.442424 357.652525,204.036364 357.652525,204.036364 C357.652525,204.036364 360.424242,197.010101 362.20202,195.692929 C363.351044,194.842709 364.866373,194.670071 366.177197,195.240044 C367.488021,195.810018 368.395195,197.036012 368.556995,198.456206 C368.718795,199.8764 368.11064,201.275033 366.961616,202.125253 L366.945455,202.129293 Z" id="Shape" fill="#D6E2F3" fill-rule="nonzero"></path>
            <path d="M354.573737,170.921212 C356.157576,172.460606 363.543434,174.056566 363.543434,174.056566 C363.543434,174.056566 361.733333,166.719192 360.149495,165.167677 C359.12389,164.171664 357.644825,163.798463 356.26945,164.188656 C354.894075,164.57885 353.831342,165.673157 353.481571,167.059363 C353.131801,168.44557 353.548132,169.913078 354.573737,170.909091 L354.573737,170.921212 Z" id="Shape" fill="#D6E2F3" fill-rule="nonzero"></path>
            <path d="M350.383838,189.426263 C352.355556,190.420202 359.878788,189.733333 359.878788,189.733333 C359.878788,189.733333 355.959596,183.268687 353.983838,182.278788 C352.010118,181.28356 349.603309,182.076785 348.608081,184.050505 C347.612853,186.024226 348.406077,188.431034 350.379798,189.426263 L350.383838,189.426263 Z" id="Shape" fill="#D6E2F3" fill-rule="nonzero"></path>
            <path d="M348.779798,207.975758 C350.557576,209.288889 358.072727,209.882828 358.072727,209.882828 C358.072727,209.882828 355.317172,202.872727 353.535354,201.543434 C352.38633,200.693214 350.871001,200.520576 349.560177,201.09055 C348.249353,201.660524 347.342179,202.886517 347.180379,204.306711 C347.018579,205.726905 347.626734,207.125538 348.775758,207.975758 L348.779798,207.975758 Z" id="Shape" fill="#D6E2F3" fill-rule="nonzero"></path>
            <path d="M364.40404,153.175758 C364.40404,155.385859 360.40404,161.793939 360.40404,161.793939 C360.40404,161.793939 356.40404,155.385859 356.40404,153.175758 C356.40404,150.965503 358.195806,149.173737 360.406061,149.173737 C362.616315,149.173737 364.408081,150.965503 364.408081,153.175758 L364.40404,153.175758 Z" id="Shape" fill="#000000" fill-rule="nonzero" opacity="0.25"></path>
            <path d="M371.018182,165.430303 C369.806061,167.284848 362.973737,170.488889 362.973737,170.488889 C362.973737,170.488889 363.09899,162.933333 364.29899,161.078788 C365.075591,159.87852 366.433536,159.183738 367.8613,159.256161 C369.289063,159.328584 370.569734,160.157208 371.220896,161.429898 C371.872057,162.702589 371.794783,164.225995 371.018182,165.426263 L371.018182,165.430303 Z" id="Shape" fill="#000000" fill-rule="nonzero" opacity="0.25"></path>
            <path d="M370.727273,186.351515 C368.755556,187.345455 361.232323,186.658586 361.232323,186.658586 C361.232323,186.658586 365.151515,180.193939 367.127273,179.20404 C369.100993,178.208812 371.507802,179.002037 372.50303,180.975758 C373.498258,182.949478 372.705034,185.356287 370.731313,186.351515 L370.727273,186.351515 Z" id="Shape" fill="#000000" fill-rule="nonzero" opacity="0.25"></path>
            <path d="M366.945455,202.129293 C365.167677,203.442424 357.652525,204.036364 357.652525,204.036364 C357.652525,204.036364 360.424242,197.010101 362.20202,195.692929 C363.351044,194.842709 364.866373,194.670071 366.177197,195.240044 C367.488021,195.810018 368.395195,197.036012 368.556995,198.456206 C368.718795,199.8764 368.11064,201.275033 366.961616,202.125253 L366.945455,202.129293 Z" id="Shape" fill="#000000" fill-rule="nonzero" opacity="0.25"></path>
            <path d="M354.573737,170.921212 C356.157576,172.460606 363.543434,174.056566 363.543434,174.056566 C363.543434,174.056566 361.733333,166.719192 360.149495,165.167677 C359.12389,164.171664 357.644825,163.798463 356.26945,164.188656 C354.894075,164.57885 353.831342,165.673157 353.481571,167.059363 C353.131801,168.44557 353.548132,169.913078 354.573737,170.909091 L354.573737,170.921212 Z" id="Shape" fill="#000000" fill-rule="nonzero" opacity="0.25"></path>
            <path d="M350.383838,189.426263 C352.355556,190.420202 359.878788,189.733333 359.878788,189.733333 C359.878788,189.733333 355.959596,183.268687 353.983838,182.278788 C352.010118,181.28356 349.603309,182.076785 348.608081,184.050505 C347.612853,186.024226 348.406077,188.431034 350.379798,189.426263 L350.383838,189.426263 Z" id="Shape" fill="#000000" fill-rule="nonzero" opacity="0.25"></path>
            <path d="M348.779798,207.975758 C350.557576,209.288889 358.072727,209.882828 358.072727,209.882828 C358.072727,209.882828 355.317172,202.872727 353.535354,201.543434 C352.38633,200.693214 350.871001,200.520576 349.560177,201.09055 C348.249353,201.660524 347.342179,202.886517 347.180379,204.306711 C347.018579,205.726905 347.626734,207.125538 348.775758,207.975758 L348.779798,207.975758 Z" id="Shape" fill="#000000" fill-rule="nonzero" opacity="0.25"></path>
            <path d="M68.2020202,219.272727 C68.2020202,219.272727 62.8121212,200.973737 69.2121212,187.519192 C71.9334124,181.887091 72.7542925,175.524207 71.5515152,169.385859 C70.9580473,166.468731 70.0978677,163.612285 68.9818182,160.852525" id="Shape" stroke="#535461" stroke-width="2"></path>
            <path d="M72.9656566,152.367677 C72.9656566,154.610101 68.9050505,161.115152 68.9050505,161.115152 C68.9050505,161.115152 64.840404,154.589899 64.840404,152.367677 C64.840404,150.125066 66.6583993,148.307071 68.9010101,148.307071 C71.1436209,148.307071 72.9616162,150.125066 72.9616162,152.367677 L72.9656566,152.367677 Z" id="Shape" fill="#D6E2F3" fill-rule="nonzero"></path>
            <path d="M79.6767677,164.771717 C78.4646465,166.654545 71.5151515,169.907071 71.5151515,169.907071 C71.5151515,169.907071 71.640404,162.230303 72.8606061,160.359596 C73.6343659,159.109271 75.0235997,158.374925 76.4925493,158.439757 C77.9614988,158.50459 79.2806357,159.358471 79.9412347,160.672101 C80.6018337,161.985732 80.500674,163.553852 79.6767677,164.771717 Z" id="Shape" fill="#D6E2F3" fill-rule="nonzero"></path>
            <path d="M79.3818182,186 C77.3616162,187.010101 69.7454545,186.311111 69.7454545,186.311111 C69.7454545,186.311111 73.7252525,179.757576 75.7252525,178.747475 C77.7279821,177.737742 80.1700651,178.542725 81.1797978,180.545455 C82.1895305,182.548184 81.3845476,184.990267 79.3818182,186 Z" id="Shape" fill="#D6E2F3" fill-rule="nonzero"></path>
            <path d="M75.5555556,202.012121 C73.7535354,203.345455 66.1090909,203.947475 66.1090909,203.947475 C66.1090909,203.947475 68.9373737,196.816162 70.7272727,195.462626 C71.8936186,194.596528 73.4334246,194.418458 74.7666607,194.995494 C76.0998969,195.57253 77.0240128,196.817006 77.1909031,198.26014 C77.3577934,199.703275 76.7421034,201.125821 75.5757576,201.991919 L75.5555556,202.012121 Z" id="Shape" fill="#D6E2F3" fill-rule="nonzero"></path>
            <path d="M62.9858586,170.339394 C64.6020202,171.90303 72.0888889,173.519192 72.0888889,173.519192 C72.0888889,173.519192 70.2545455,166.076768 68.6464646,164.513131 C67.6100945,163.47941 66.0975715,163.083485 64.6876402,163.47685 C63.2777089,163.870215 62.1886157,164.991981 61.8370861,166.412921 C61.4855564,167.83386 61.9260043,169.334023 62.989899,170.339394 L62.9858586,170.339394 Z" id="Shape" fill="#D6E2F3" fill-rule="nonzero"></path>
            <path d="M58.7353535,189.135354 C60.7555556,190.145455 68.3717172,189.446465 68.3717172,189.446465 C68.3717172,189.446465 64.3919192,182.892929 62.3919192,181.882828 C60.3891896,180.873096 57.9471065,181.678079 56.9373737,183.680808 C55.927641,185.683538 56.732624,188.125621 58.7353535,189.135354 Z" id="Shape" fill="#D6E2F3" fill-rule="nonzero"></path>
            <path d="M57.1070707,207.947475 C58.9090909,209.280808 66.5535354,209.882828 66.5535354,209.882828 C66.5535354,209.882828 63.7252525,202.751515 61.9353535,201.39798 C60.1323391,200.059108 57.5853368,200.435369 56.2464646,202.238384 C54.9075925,204.041398 55.2838542,206.588401 57.0868687,207.927273 L57.1070707,207.947475 Z" id="Shape" fill="#D6E2F3" fill-rule="nonzero"></path>
            <path d="M72.9656566,152.367677 C72.9656566,154.610101 68.9050505,161.115152 68.9050505,161.115152 C68.9050505,161.115152 64.840404,154.589899 64.840404,152.367677 C64.840404,150.125066 66.6583993,148.307071 68.9010101,148.307071 C71.1436209,148.307071 72.9616162,150.125066 72.9616162,152.367677 L72.9656566,152.367677 Z" id="Shape" fill="#FFFFFF" fill-rule="nonzero" opacity="0.5"></path>
            <path d="M79.6767677,164.771717 C78.4646465,166.654545 71.5151515,169.907071 71.5151515,169.907071 C71.5151515,169.907071 71.640404,162.230303 72.8606061,160.359596 C73.6343659,159.109271 75.0235997,158.374925 76.4925493,158.439757 C77.9614988,158.50459 79.2806357,159.358471 79.9412347,160.672101 C80.6018337,161.985732 80.500674,163.553852 79.6767677,164.771717 Z" id="Shape" fill="#FFFFFF" fill-rule="nonzero" opacity="0.5"></path>
            <path d="M79.3818182,186 C77.3616162,187.010101 69.7454545,186.311111 69.7454545,186.311111 C69.7454545,186.311111 73.7252525,179.757576 75.7252525,178.747475 C77.7279821,177.737742 80.1700651,178.542725 81.1797978,180.545455 C82.1895305,182.548184 81.3845476,184.990267 79.3818182,186 Z" id="Shape" fill="#FFFFFF" fill-rule="nonzero" opacity="0.5"></path>
            <path d="M75.5555556,202.012121 C73.7535354,203.345455 66.1090909,203.947475 66.1090909,203.947475 C66.1090909,203.947475 68.9373737,196.816162 70.7272727,195.462626 C71.8936186,194.596528 73.4334246,194.418458 74.7666607,194.995494 C76.0998969,195.57253 77.0240128,196.817006 77.1909031,198.26014 C77.3577934,199.703275 76.7421034,201.125821 75.5757576,201.991919 L75.5555556,202.012121 Z" id="Shape" fill="#FFFFFF" fill-rule="nonzero" opacity="0.5"></path>
            <path d="M62.9858586,170.339394 C64.6020202,171.90303 72.0888889,173.519192 72.0888889,173.519192 C72.0888889,173.519192 70.2545455,166.076768 68.6464646,164.513131 C67.6100945,163.47941 66.0975715,163.083485 64.6876402,163.47685 C63.2777089,163.870215 62.1886157,164.991981 61.8370861,166.412921 C61.4855564,167.83386 61.9260043,169.334023 62.989899,170.339394 L62.9858586,170.339394 Z" id="Shape" fill="#FFFFFF" fill-rule="nonzero" opacity="0.5"></path>
            <path d="M58.7353535,189.135354 C60.7555556,190.145455 68.3717172,189.446465 68.3717172,189.446465 C68.3717172,189.446465 64.3919192,182.892929 62.3919192,181.882828 C60.3891896,180.873096 57.9471065,181.678079 56.9373737,183.680808 C55.927641,185.683538 56.732624,188.125621 58.7353535,189.135354 Z" id="Shape" fill="#FFFFFF" fill-rule="nonzero" opacity="0.5"></path>
            <path d="M57.1070707,207.947475 C58.9090909,209.280808 66.5535354,209.882828 66.5535354,209.882828 C66.5535354,209.882828 63.7252525,202.751515 61.9353535,201.39798 C60.1323391,200.059108 57.5853368,200.435369 56.2464646,202.238384 C54.9075925,204.041398 55.2838542,206.588401 57.0868687,207.927273 L57.1070707,207.947475 Z" id="Shape" fill="#FFFFFF" fill-rule="nonzero" opacity="0.5"></path>
            <path d="M37.4505051,218.820202 C37.4505051,218.820202 33.3454545,204.892929 38.2222222,194.610101 C40.2955175,190.318125 40.9207417,185.469447 40.0040404,180.791919 C39.5515773,178.575123 38.8969903,176.404437 38.0484848,174.307071" id="Shape" stroke="#535461" stroke-width="2"></path>
            <path d="M41.0828283,167.818182 C41.0828283,169.527273 37.9878788,174.484848 37.9878788,174.484848 C37.9878788,174.484848 34.8929293,169.527273 34.8929293,167.818182 C34.8929294,166.108888 36.2785855,164.723233 37.9878788,164.723233 C39.6971721,164.723233 41.0828282,166.108888 41.0828283,167.818182 Z" id="Shape" fill="#D6E2F3" fill-rule="nonzero"></path>
            <path d="M46.1979798,177.284848 C45.2686869,178.719192 39.9757576,181.2 39.9757576,181.2 C39.9757576,181.2 40.0727273,175.357576 41.0020202,173.927273 C41.6032368,172.999104 42.6539561,172.462186 43.7583821,172.51877 C44.8628082,172.575355 45.8531525,173.216845 46.3563619,174.201599 C46.8595714,175.186352 46.7991964,176.364761 46.1979798,177.292929 L46.1979798,177.284848 Z" id="Shape" fill="#D6E2F3" fill-rule="nonzero"></path>
            <path d="M45.9757576,193.462626 C44.4484848,194.230303 38.630303,193.70101 38.630303,193.70101 C38.630303,193.70101 41.6606061,188.707071 43.1878788,187.935354 C44.714193,187.165502 46.5756031,187.778736 47.3454545,189.305051 C48.115306,190.831365 47.5020718,192.692775 45.9757576,193.462626 Z" id="Shape" fill="#D6E2F3" fill-rule="nonzero"></path>
            <path d="M43.0505051,205.668687 C41.6767677,206.686869 35.8505051,207.143434 35.8505051,207.143434 C35.8505051,207.143434 37.9959596,201.709091 39.369697,200.678788 C40.7442724,199.662361 42.6825627,199.952698 43.6989897,201.327273 C44.7154168,202.701848 44.4250803,204.640139 43.0505051,205.656566 L43.0505051,205.668687 Z" id="Shape" fill="#D6E2F3" fill-rule="nonzero"></path>
            <path d="M33.4787879,181.531313 C34.6909091,182.723232 40.4161616,183.955556 40.4161616,183.955556 C40.4161616,183.955556 39.0181818,178.29899 37.789899,177.086869 C36.9959755,176.316763 35.8515133,176.028709 34.7876202,176.331214 C33.7237272,176.633719 32.9020341,177.480825 32.6320646,178.553436 C32.3620952,179.626047 32.6848643,180.761207 33.4787879,181.531313 Z" id="Shape" fill="#D6E2F3" fill-rule="nonzero"></path>
            <path d="M30.2383838,195.846465 C31.7656566,196.614141 37.5838384,196.084848 37.5838384,196.084848 C37.5838384,196.084848 34.5535354,191.090909 33.0262626,190.319192 C31.4999484,189.54934 29.6385383,190.162575 28.8686869,191.688889 C28.0988354,193.215203 28.7120696,195.076613 30.2383838,195.846465 Z" id="Shape" fill="#D6E2F3" fill-rule="nonzero"></path>
            <path d="M28.9979798,210.189899 C30.3717172,211.208081 36.1979798,211.664646 36.1979798,211.664646 C36.1979798,211.664646 34.0525253,206.230303 32.6787879,205.2 C31.7895935,204.542487 30.617165,204.409299 29.6031447,204.850608 C28.5891245,205.291916 27.8875664,206.240675 27.7627406,207.339497 C27.6379148,208.438318 28.1087854,209.520265 28.9979798,210.177778 L28.9979798,210.189899 Z" id="Shape" fill="#D6E2F3" fill-rule="nonzero"></path>
            <path d="M41.0828283,167.818182 C41.0828283,169.527273 37.9878788,174.484848 37.9878788,174.484848 C37.9878788,174.484848 34.8929293,169.527273 34.8929293,167.818182 C34.8929294,166.108888 36.2785855,164.723233 37.9878788,164.723233 C39.6971721,164.723233 41.0828282,166.108888 41.0828283,167.818182 Z" id="Shape" fill="#000000" fill-rule="nonzero" opacity="0.25"></path>
            <path d="M46.1979798,177.284848 C45.2686869,178.719192 39.9757576,181.2 39.9757576,181.2 C39.9757576,181.2 40.0727273,175.357576 41.0020202,173.927273 C41.6032368,172.999104 42.6539561,172.462186 43.7583821,172.51877 C44.8628082,172.575355 45.8531525,173.216845 46.3563619,174.201599 C46.8595714,175.186352 46.7991964,176.364761 46.1979798,177.292929 L46.1979798,177.284848 Z" id="Shape" fill="#000000" fill-rule="nonzero" opacity="0.25"></path>
            <path d="M45.9757576,193.462626 C44.4484848,194.230303 38.630303,193.70101 38.630303,193.70101 C38.630303,193.70101 41.6606061,188.707071 43.1878788,187.935354 C44.714193,187.165502 46.5756031,187.778736 47.3454545,189.305051 C48.115306,190.831365 47.5020718,192.692775 45.9757576,193.462626 Z" id="Shape" fill="#000000" fill-rule="nonzero" opacity="0.25"></path>
            <path d="M43.0505051,205.668687 C41.6767677,206.686869 35.8505051,207.143434 35.8505051,207.143434 C35.8505051,207.143434 37.9959596,201.709091 39.369697,200.678788 C40.7442724,199.662361 42.6825627,199.952698 43.6989897,201.327273 C44.7154168,202.701848 44.4250803,204.640139 43.0505051,205.656566 L43.0505051,205.668687 Z" id="Shape" fill="#000000" fill-rule="nonzero" opacity="0.25"></path>
            <path d="M33.4787879,181.531313 C34.6909091,182.723232 40.4161616,183.955556 40.4161616,183.955556 C40.4161616,183.955556 39.0181818,178.29899 37.789899,177.086869 C36.9959755,176.316763 35.8515133,176.028709 34.7876202,176.331214 C33.7237272,176.633719 32.9020341,177.480825 32.6320646,178.553436 C32.3620952,179.626047 32.6848643,180.761207 33.4787879,181.531313 Z" id="Shape" fill="#000000" fill-rule="nonzero" opacity="0.25"></path>
            <path d="M30.2383838,195.846465 C31.7656566,196.614141 37.5838384,196.084848 37.5838384,196.084848 C37.5838384,196.084848 34.5535354,191.090909 33.0262626,190.319192 C31.4999484,189.54934 29.6385383,190.162575 28.8686869,191.688889 C28.0988354,193.215203 28.7120696,195.076613 30.2383838,195.846465 Z" id="Shape" fill="#000000" fill-rule="nonzero" opacity="0.25"></path>
            <path d="M28.9979798,210.189899 C30.3717172,211.208081 36.1979798,211.664646 36.1979798,211.664646 C36.1979798,211.664646 34.0525253,206.230303 32.6787879,205.2 C31.7895935,204.542487 30.617165,204.409299 29.6031447,204.850608 C28.5891245,205.291916 27.8875664,206.240675 27.7627406,207.339497 C27.6379148,208.438318 28.1087854,209.520265 28.9979798,210.177778 L28.9979798,210.189899 Z" id="Shape" fill="#000000" fill-rule="nonzero" opacity="0.25"></path>
            <g id="Group" opacity="0.7" transform="translate(0.000000, 32.323232)" fill-rule="nonzero">
                <rect id="Rectangle-path" fill="#D6E2F3" opacity="0.6" x="0" y="0" width="400" height="204.040404"></rect>
                <path d="M0,-1.42108547e-14 L0,204.444444 L400,204.444444 L400,-1.42108547e-14 L0,-1.42108547e-14 Z M17.7777778,17.7777778 L191.111111,17.7777778 L191.111111,93.3333333 L17.7777778,93.3333333 L17.7777778,17.7777778 Z M17.7777778,111.111111 L191.111111,111.111111 L191.111111,186.666667 L17.7777778,186.666667 L17.7777778,111.111111 Z M382.222222,186.666667 L208.888889,186.666667 L208.888889,111.111111 L382.222222,111.111111 L382.222222,186.666667 Z M382.222222,93.3333333 L208.888889,93.3333333 L208.888889,17.7777778 L382.222222,17.7777778 L382.222222,93.3333333 Z" id="Shape" fill="#000000" opacity="0.25"></path>
            </g>
            <g id="Group" opacity="0.7" transform="translate(88.888889, 66.666667)" fill-rule="nonzero">
                <path d="M57.8222222,178.537374 C57.8222222,178.537374 22.8161616,165.737374 18.0242424,183.753535 L31.4505051,217.882828 L32.8888889,239.70101 L62.1373737,239.70101 L62.1373737,221.2 C62.1373737,221.2 57.8222222,202.711111 68.8525253,191.337374 L57.8222222,178.537374 Z" id="Shape" fill="url(#linearGradient-1)"></path>
                <g opacity="0.1" transform="translate(32.727273, 76.363636)" fill="url(#linearGradient-2)" id="Shape">
                    <path d="M30.9575758,0.606060606 C29.4707071,0.113131313 27.6808081,-0.327272727 26.4686869,0.654545455 C25.7656566,1.22424242 25.4626263,2.14141414 24.9171717,2.86060606 C23.1030303,5.24040404 19.4464646,4.7959596 16.5575758,5.64848485 C12.3111111,6.9010101 9.68888889,11.1070707 8.18585859,15.2282828 C1.53535354,33.410101 8.94949495,54.2060606 3.15959596,72.6707071 C1.45454545,78.1050505 -1.33333333,84.1373737 1.42222222,89.1353535 C2.33939394,90.8040404 3.84646465,92.1939394 4.29090909,94.0363636 C4.91313131,96.5373737 3.71313131,99.8181818 5.81010101,101.341414 C6.46464646,101.814141 7.29292929,101.963636 8.07676768,102.149495 C12.7959596,103.393939 16.3717172,107.066667 19.9676768,110.331313 C23.5636364,113.59596 27.8868687,116.755556 32.7636364,116.541414 C34.3397134,116.41136 35.8958611,116.102299 37.4020202,115.620202 L61.6040404,108.880808 C64.0282828,108.206061 66.6626263,107.389899 68.0686869,105.321212 C68.9292929,104.056566 69.2,102.492929 69.4181818,100.989899 C70.2533239,95.2465995 70.6490851,89.4479551 70.6020202,83.6444444 C70.6020202,81.7292929 70.5131313,79.769697 69.7939394,77.9878788 C68.9858586,75.9313131 67.369697,74.2868687 66.1939394,72.4080808 C63.9232323,68.7717172 63.3131313,64.4040404 62.7515152,60.1737374 C61.8585859,53.4383838 60.9656566,46.569697 62.2020202,39.8868687 C62.7313131,37.0181818 63.6444444,34.230303 64.2505051,31.3818182 C65.2324563,26.7410919 65.3883791,21.9635646 64.7111111,17.2686869 C64.1454545,13.369697 62.9333333,9.41414141 60.2666667,6.48080808 C58.5213705,4.52624208 56.1498729,3.2404904 53.559596,2.84444444 C50.2868687,2.44040404 48.6585859,4.32323232 45.7414141,5.02626263 C41.4262626,6.10505051 35.1070707,1.97575758 30.9575758,0.606060606 Z"></path>
                </g>
                <path d="M63.6848485,76.0040404 C62.1979798,75.5111111 60.4080808,75.0707071 59.1959596,76.0525253 C58.4929293,76.6222222 58.189899,77.5393939 57.6444444,78.2585859 C55.830303,80.6383838 52.1737374,80.1939394 49.2848485,81.0464646 C45.0383838,82.2989899 42.4161616,86.5050505 40.9131313,90.6262626 C34.2626263,108.808081 41.6767677,129.60404 35.8868687,148.068687 C34.1818182,153.50303 31.3939394,159.535354 34.1494949,164.533333 C35.0666667,166.20202 36.5737374,167.591919 37.0181818,169.434343 C37.640404,171.935354 36.440404,175.216162 38.5373737,176.739394 C39.1919192,177.212121 40.020202,177.361616 40.8040404,177.547475 C45.5232323,178.791919 49.0989899,182.464646 52.6949495,185.729293 C56.2909091,188.993939 60.6060606,192.189899 65.4909091,191.963636 C67.0669862,191.833582 68.6231338,191.524521 70.1292929,191.042424 L94.3313131,184.30303 C96.7555556,183.628283 99.389899,182.812121 100.79596,180.743434 C101.656566,179.478788 101.927273,177.915152 102.145455,176.412121 C102.980597,170.668822 103.376358,164.870177 103.329293,159.066667 C103.329293,157.151515 103.240404,155.191919 102.521212,153.410101 C101.713131,151.353535 100.09697,149.709091 98.9212121,147.830303 C96.6505051,144.193939 96.040404,139.826263 95.4787879,135.59596 C94.5858586,128.860606 93.6929293,121.991919 94.9292929,115.309091 C95.4585859,112.440404 96.3717172,109.652525 96.9777778,106.80404 C97.9597291,102.163314 98.1156518,97.3857868 97.4383838,92.6909091 C96.8727273,88.7919192 95.6606061,84.8363636 92.9939394,81.9030303 C91.2486432,79.9484643 88.8771456,78.6627126 86.2868687,78.2666667 C83.0141414,77.8626263 81.3858586,79.7454545 78.4686869,80.4484848 C74.1535354,81.4989899 67.8343434,77.3939394 63.6848485,76.0040404 Z" id="Shape" fill="url(#linearGradient-3)"></path>
                <path d="M56.8646465,40.1212121 C56.8646465,40.1212121 57.3454545,58.1333333 51.5919192,57.6606061 C45.8383838,57.1878788 67.8787879,87.5232323 67.8787879,87.5232323 L86.5777778,77.5676768 C86.5777778,77.5676768 75.5555556,60.0323232 83.2323232,49.1272727 C90.9090909,38.2222222 56.8646465,40.1212121 56.8646465,40.1212121 Z" id="Shape" fill="url(#linearGradient-4)"></path>
                <g opacity="0.1" transform="translate(2.828283, 68.686869)" fill="url(#linearGradient-5)" id="Shape">
                    <path d="M21.9070707,124.545455 C21.9070707,124.545455 18.0727273,150.618182 8.48080808,143.507071 C-1.11111111,136.39596 0.327272727,124.545455 0.327272727,124.545455 C0.327272727,124.545455 19.030303,74.2989899 18.0727273,66.7111111 C17.1151515,59.1232323 49.9919192,0.165656566 49.9919192,0.165656566 L62.169697,97.0505051 C62.169697,97.0505051 25.7414141,110.323232 21.9070707,124.545455 Z"></path>
                </g>
                <path d="M23.7777778,193.232323 C23.7777778,193.232323 19.9434343,219.305051 10.3515152,212.193939 C0.75959596,205.082828 2.1979798,193.232323 2.1979798,193.232323 C2.1979798,193.232323 20.9010101,142.985859 19.9393939,135.39798 C18.9777778,127.810101 51.8585859,68.8525253 51.8585859,68.8525253 L64.0363636,165.737374 C64.0363636,165.737374 27.6121212,179.010101 23.7777778,193.232323 Z" id="Shape" fill="url(#linearGradient-6)"></path>
                <path d="M57.8222222,51.4989899 C57.8222222,51.4989899 39.1191919,64.2868687 31.9191919,63.8222222 L26.3313131,65.3414141 C15.0600336,68.3642717 6.48070545,77.5215063 4.1979798,88.9656566 L4.10909091,89.4181818 C1.24040404,104.589899 0.278787879,146.307071 0.278787879,146.307071 C0.278787879,146.307071 0.75959596,157.216162 5.55151515,160.044444 L36.2585859,180.90101 C36.2585859,180.90101 35.3010101,158.149495 46.8080808,155.777778 C58.3151515,153.406061 43.9313131,154.828283 43.9313131,154.828283 L22.8323232,142.505051 C22.8323232,142.505051 23.3131313,124.016162 29.0666667,117.858586 C34.820202,111.70101 54.9616162,79.4747475 54.9616162,79.4747475 L49.2080808,59.5676768 L57.8222222,51.4989899 Z" id="Shape" fill="url(#linearGradient-7)"></path>
                <g opacity="0.1" transform="translate(75.555556, 63.434343)" fill="url(#linearGradient-8)" id="Shape">
                    <path d="M2.88484848,0.387878788 C2.88484848,0.387878788 14.6626263,3.47070707 22.9090909,4.97777778 C25.5151045,5.44352761 27.7425534,7.12462111 28.9050505,9.5030303 C31.3939394,14.6383838 35.1878788,23.9272727 34.5333333,31.6727273 L41.7252525,59.640404 L62.3313131,84.2868687 L43.6363636,92.8242424 L22.5454545,69.5959596 L39.8060606,113.680808 L7.67676768,115.10303 C7.67676768,115.10303 -1.91515152,43.9919192 0.484848485,32.1494949 L2.88484848,0.387878788 Z"></path>
                </g>
                <path d="M79.3979798,63.8222222 C79.3979798,63.8222222 91.1757576,66.9050505 99.4222222,68.4121212 C102.028236,68.877871 104.255685,70.5589645 105.418182,72.9373737 C107.907071,78.0727273 111.70101,87.3616162 111.046465,95.1070707 L118.238384,123.074747 L138.844444,147.721212 L120.145455,156.254545 L99.0464646,133.026263 L116.323232,177.115152 L84.1939394,178.537374 C84.1939394,178.537374 74.6020202,107.426263 77.0020202,95.5838384 L79.3979798,63.8222222 Z" id="Shape" fill="url(#linearGradient-9)"></path>
                <polygon id="Shape" fill="url(#linearGradient-10)" points="56.2464646 49.9878788 62.8565657 82.0727273 52.0686869 87.5232323 46.1575758 58.6222222"></polygon>
                <polygon id="Shape" fill="url(#linearGradient-10)" points="74.3636364 84.4444444 79.3979798 63.8222222 85.8747475 75.9111111 82.5171717 85.8666667"></polygon>
                <path d="M92.5858586,90.6060606 C92.5858586,90.6060606 92.5858586,122.840404 96.9010101,125.208081" id="Shape" fill="url(#linearGradient-10)" opacity="0.1"></path>
                <path d="M30.7272727,98.6626263 C30.7272727,98.6626263 20.7757576,130.408081 23.5919192,133.733333" id="Shape" fill="url(#linearGradient-11)" opacity="0.1"></path>
                <path d="M28.8121212,142.266667 C28.8121212,142.266667 47.9959596,154.666667 50.630303,154.864646" id="Shape" fill="url(#linearGradient-12)" opacity="0.1"></path>
                <g opacity="0.1" transform="translate(56.969697, 41.616162)" fill="url(#linearGradient-13)" id="Shape">
                    <path d="M0.371717172,0.4 C0.371717172,0.4 0.444444444,3.17575758 0.185858586,6.51717172 C3.68183358,14.6280032 11.676939,19.8733009 20.5090909,19.8505051 C21.6931562,19.8495974 22.8752945,19.7550263 24.0444444,19.5676768 C23.9191919,16.020202 24.6020202,12.4606061 26.7434343,9.42222222 C34.4161616,-1.49494949 0.371717172,0.4 0.371717172,0.4 Z"></path>
                </g>
                <ellipse id="Oval" fill="url(#linearGradient-10)" cx="77.0020202" cy="37.7535354" rx="22.0565657" ry="21.8060606"></ellipse>
                <g opacity="0.1" transform="translate(44.848485, 0.404040)" fill="url(#linearGradient-14)" id="Shape">
                    <path d="M46.1494949,28.1818182 C48.820202,28.5373737 52.210101,27.6565657 52.7393939,25.0383838 C53.389899,21.7333333 48.9171717,19.5838384 48.2262626,16.2828283 C47.9676768,15.0464646 48.2747475,13.7535354 48.1252525,12.4969697 C47.8262626,9.96767677 45.7575758,8.02020202 43.6525253,6.54949495 C36.9686811,1.92197536 28.8720993,-0.21156405 20.7757576,0.521212121 C19.7737374,0.614141414 18.7191919,0.775757576 17.9474747,1.41010101 C17.0666667,2.12525253 16.7353535,3.28888889 16.1252525,4.23838384 C14.0565657,7.54343434 9.41010101,7.93131313 6.07676768,9.99191919 C2.17777778,12.4161616 0.246464646,17.1313131 0.0727272727,21.6727273 C-0.101010101,26.2141414 1.20808081,30.6707071 2.4969697,35.0343434 C3.6,38.7434343 4.75555556,42.5535354 7.17575758,45.5919192 C9.5959596,48.630303 13.6121212,50.7515152 17.4141414,49.8383838 C15.6727273,48.5979798 16.9373737,45.7171717 18.8242424,44.7070707 C20.7111111,43.6969697 23.0545455,43.5232323 24.6666667,42.1292929 C26.2787879,40.7353535 26.7636364,38.4525253 27.2888889,36.3757576 C27.9515152,33.7575758 28.9050505,31.0989899 30.8444444,29.1878788 C34.6464646,25.4464646 41.4949495,27.5636364 46.1494949,28.1818182 Z"></path>
                </g>
                <path d="M90.5050505,28.1131313 C93.1757576,28.4686869 96.5656566,27.5878788 97.0949495,24.969697 C97.7454545,21.6646465 93.2727273,19.5151515 92.5818182,16.2141414 C92.3232323,14.9777778 92.630303,13.6848485 92.4808081,12.4282828 C92.1818182,9.8989899 90.1131313,7.95151515 88.0080808,6.48080808 C81.3291583,1.85555297 73.2389139,-0.279253458 65.1474747,0.448484848 C64.1454545,0.541414141 63.0909091,0.703030303 62.3191919,1.33737374 C61.4383838,2.05252525 61.1070707,3.21616162 60.4969697,4.16565657 C58.4282828,7.47070707 53.7818182,7.85858586 50.4484848,9.91919192 C46.5494949,12.3434343 44.6181818,17.0585859 44.4444444,21.6 C44.2707071,26.1414141 45.579798,30.5979798 46.8686869,34.9616162 C47.9717172,38.6707071 49.1272727,42.4808081 51.5474747,45.5191919 C53.9676768,48.5575758 57.9838384,50.6787879 61.7858586,49.7656566 C60.0444444,48.5252525 61.3090909,45.6444444 63.1959596,44.6343434 C65.0828283,43.6242424 67.4262626,43.4505051 69.0383838,42.0565657 C70.6505051,40.6626263 71.1353535,38.379798 71.6606061,36.3030303 C72.3232323,33.6848485 73.2767677,31.0262626 75.2161616,29.1151515 C79.0141414,25.3777778 85.8626263,27.4909091 90.5050505,28.1131313 Z" id="Shape" fill="url(#linearGradient-15)"></path>
                <g opacity="0.1" transform="translate(65.858586, 38.787879)" fill="url(#linearGradient-16)" id="Shape">
                    <path d="M7.32929293,1.90707071 C7.00606061,4.16161616 6.28686869,8.06464646 4.93333333,10.5292929 C3.1433909,13.7367239 1.6125938,17.0820492 0.355555556,20.5333333 C0.355555556,20.5333333 9.18787879,27.2929293 13.6888889,31.9111111 C16.5186014,34.8732633 20.8156369,35.9135816 24.6868687,34.5737374 C27.0262626,33.7333333 29.0747475,32.1090909 29.620202,29.0626263 C30.4767677,24.2585859 29.4585859,20.6343434 28.4969697,18.4888889 C27.5593164,16.4384205 27.5475442,14.0839846 28.4646465,12.0242424 C28.7959596,11.2969697 29.1838384,10.7272727 29.6161616,10.5858586 C29.6161616,10.5858586 20.9858586,8.69090909 20.5050505,11.0585859 C20.0242424,13.4262626 13.3131313,15.7979798 11.8747475,11.5313131 L11.4707071,2.12525253 C11.418745,1.01765112 10.5027451,0.147985823 9.39393939,0.153535354 C8.36551239,0.14354676 7.48592624,0.890592531 7.32929293,1.90707071 Z"></path>
                </g>
                <path d="M73.1878788,41.1717172 C72.8646465,43.4262626 72.1454545,47.3292929 70.7919192,49.7939394 C69.0019768,53.0013703 67.4711797,56.3466957 66.2141414,59.7979798 C66.2141414,59.7979798 75.0464646,66.5575758 79.5474747,71.1757576 C82.3771872,74.1379098 86.6742227,75.1782281 90.5454545,73.8383838 C92.8848485,72.9979798 94.9333333,71.3737374 95.4787879,68.3272727 C96.3353535,63.5232323 95.3171717,59.8989899 94.3555556,57.7535354 C93.4179023,55.703067 93.4061301,53.3486311 94.3232323,51.2888889 C94.6545455,50.5616162 95.0424242,49.9919192 95.4747475,49.8505051 C95.4747475,49.8505051 86.8444444,47.9555556 86.3636364,50.3232323 C85.8828283,52.6909091 79.1717172,55.0626263 77.7333333,50.7959596 L77.3292929,41.389899 C77.2773309,40.2822976 76.361331,39.4126323 75.2525253,39.4181818 C74.2240982,39.4081932 73.3445121,40.155239 73.1878788,41.1717172 Z" id="Shape" fill="url(#linearGradient-17)"></path>
            </g>
            <path d="M147.179798,244.892929 C147.179798,244.892929 113.575758,232.464646 108.973737,249.955556 L121.862626,283.086869 L123.232323,304.286869 L151.313131,304.286869 L151.313131,286.327273 C151.313131,286.327273 147.171717,268.375758 157.777778,257.325253 L147.179798,244.892929 Z" id="Shape" fill="#535461" fill-rule="nonzero"></path>
            <path d="M152.808081,146.262626 C151.381818,145.785859 149.660606,145.357576 148.50101,146.311111 C147.826263,146.864646 147.535354,147.753535 147.010101,148.452525 C145.268687,150.763636 141.757576,150.331313 138.985859,151.159596 C134.909091,152.371717 132.39596,156.460606 130.949495,160.452525 C124.565657,178.105051 131.680808,198.307071 126.125253,216.234343 C124.509091,221.511111 121.814141,227.369697 124.456566,232.222222 C125.337374,233.838384 126.771717,235.191919 127.212121,236.981818 C127.810101,239.406061 126.658586,242.59798 128.670707,244.076768 C129.29697,244.537374 130.092929,244.678788 130.844444,244.884848 C135.373737,246.09697 138.808081,249.660606 142.258586,252.832323 C145.709091,256.00404 149.862626,259.070707 154.541414,258.864646 C156.052198,258.738156 157.543453,258.43855 158.985859,257.971717 L182.218182,251.426263 C184.549495,250.767677 187.066667,249.975758 188.428283,247.967677 C189.236364,246.755556 189.515152,245.228283 189.725253,243.761616 C190.526675,238.183333 190.906203,232.552546 190.860606,226.917172 C190.860606,225.058586 190.775758,223.155556 190.092929,221.426263 C189.284848,219.430303 187.765657,217.834343 186.634343,216.00404 C184.456566,212.480808 183.866667,208.230303 183.329293,204.121212 C182.472727,197.579798 181.616162,190.909091 182.8,184.420202 C183.309091,181.636364 184.185859,178.929293 184.767677,176.161616 C185.711079,171.653799 185.861478,167.016035 185.212121,162.456566 C184.670707,158.670707 183.50303,154.828283 180.949495,151.979798 C179.281619,150.085871 177.002748,148.836352 174.509091,148.448485 C171.365657,148.044444 169.80202,149.886869 167.00202,150.569697 C162.860606,151.583838 156.791919,147.59596 152.808081,146.262626 Z" id="Shape" fill="#000000" fill-rule="nonzero" opacity="0.1"></path>
            <path d="M152.808081,145.341414 C151.381818,144.864646 149.660606,144.436364 148.50101,145.389899 C147.826263,145.943434 147.535354,146.832323 147.010101,147.531313 C145.268687,149.842424 141.757576,149.410101 138.985859,150.238384 C134.909091,151.450505 132.39596,155.539394 130.949495,159.531313 C124.565657,177.183838 131.680808,197.385859 126.125253,215.313131 C124.509091,220.589899 121.814141,226.448485 124.456566,231.30101 C125.337374,232.917172 126.771717,234.270707 127.212121,236.060606 C127.810101,238.484848 126.658586,241.676768 128.670707,243.155556 C129.29697,243.616162 130.092929,243.757576 130.844444,243.963636 C135.373737,245.175758 138.808081,248.739394 142.258586,251.911111 C145.709091,255.082828 149.862626,258.149495 154.541414,257.943434 C156.052198,257.816944 157.543453,257.517337 158.985859,257.050505 L182.222222,250.509091 C184.553535,249.850505 187.070707,249.058586 188.432323,247.050505 C189.240404,245.838384 189.519192,244.311111 189.729293,242.844444 C190.530716,237.266161 190.910244,231.635374 190.864646,226 C190.864646,224.141414 190.779798,222.238384 190.09697,220.509091 C189.288889,218.513131 187.769697,216.917172 186.638384,215.086869 C184.460606,211.563636 183.870707,207.313131 183.333333,203.20404 C182.476768,196.662626 181.620202,189.991919 182.80404,183.50303 C183.313131,180.719192 184.189899,178.012121 184.771717,175.244444 C185.715119,170.736628 185.865518,166.098863 185.216162,161.539394 C184.674747,157.753535 183.507071,153.911111 180.953535,151.062626 C179.290615,149.166671 177.016216,147.912963 174.525253,147.519192 C171.381818,147.115152 169.818182,148.957576 167.018182,149.640404 C162.860606,150.666667 156.791919,146.674747 152.808081,145.341414 Z" id="Shape" fill="#E0E0E0" fill-rule="nonzero"></path>
            <path d="M146.262626,110.480808 C146.262626,110.480808 146.723232,127.971717 141.2,127.511111 C135.676768,127.050505 156.852525,156.513131 156.852525,156.513131 L174.80404,146.844444 C174.80404,146.844444 164.218182,129.814141 171.571717,119.224242 C178.925253,108.634343 146.262626,110.480808 146.262626,110.480808 Z" id="Shape" fill="#BE7C5E" fill-rule="nonzero"></path>
            <path d="M115.418182,259.167677 C115.418182,259.167677 111.737374,284.484848 102.529293,277.579798 C93.3212121,270.674747 94.7030303,259.167677 94.7030303,259.167677 C94.7030303,259.167677 112.654545,210.371717 111.733333,203.006061 C110.812121,195.640404 142.391919,138.379798 142.391919,138.379798 L154.080808,232.464646 C154.080808,232.464646 119.09899,245.357576 115.418182,259.167677 Z" id="Shape" fill="#000000" fill-rule="nonzero" opacity="0.1"></path>
            <path d="M114.49697,259.167677 C114.49697,259.167677 110.816162,284.484848 101.608081,277.579798 C92.4,270.674747 93.7818182,259.167677 93.7818182,259.167677 C93.7818182,259.167677 111.733333,210.371717 110.812121,203.006061 C109.890909,195.640404 141.470707,138.379798 141.470707,138.379798 L153.159596,232.464646 C153.159596,232.464646 118.177778,245.357576 114.49697,259.167677 Z" id="Shape" fill="#4D8AF0" fill-rule="nonzero"></path>
            <path d="M147.179798,121.527273 C147.179798,121.527273 129.228283,133.955556 122.323232,133.494949 L116.957576,134.969697 C106.090006,137.956549 97.8557287,146.846876 95.7090909,157.911111 L95.6242424,158.351515 C92.8606061,173.082828 91.9434343,213.591919 91.9434343,213.591919 C91.9434343,213.591919 92.4040404,224.177778 97.0060606,226.925253 L126.464646,247.2 C126.464646,247.2 125.543434,225.10303 136.593939,222.80404 C147.644444,220.505051 133.830303,221.882828 133.830303,221.882828 L113.575758,209.911111 C113.575758,209.911111 114.036364,191.959596 119.559596,185.975758 C125.082828,179.991919 144.416162,148.690909 144.416162,148.690909 L138.892929,129.337374 L147.179798,121.527273 Z" id="Shape" fill="#4D8AF0" fill-rule="nonzero"></path>
            <path d="M166.973737,133.49899 C166.973737,133.49899 178.286869,136.492929 186.19798,137.943434 C188.708783,138.403622 190.847631,140.037797 191.951515,142.339394 C194.339394,147.329293 197.979798,156.343434 197.353535,163.866667 L204.258586,191.026263 L224.056566,214.961616 L206.10101,223.260606 L185.858586,200.707071 L202.424242,243.535354 L171.579798,244.892929 C171.579798,244.892929 162.371717,175.842424 164.674747,164.335354 L166.973737,133.49899 Z" id="Shape" fill="#000000" fill-rule="nonzero" opacity="0.1"></path>
            <path d="M167.894949,133.49899 C167.894949,133.49899 179.208081,136.492929 187.119192,137.943434 C189.629995,138.403622 191.768843,140.037797 192.872727,142.339394 C195.260606,147.329293 198.90101,156.343434 198.274747,163.866667 L205.179798,191.026263 L224.977778,214.961616 L207.026263,223.248485 L186.771717,200.690909 L203.337374,243.519192 L172.49697,244.892929 C172.49697,244.892929 163.288889,175.842424 165.591919,164.335354 L167.894949,133.49899 Z" id="Shape" fill="#4D8AF0" fill-rule="nonzero"></path>
            <polygon id="Shape" fill="#E0E0E0" fill-rule="nonzero" points="145.668687 120.064646 152.016162 151.220202 141.656566 156.513131 135.983838 128.448485"></polygon>
            <polygon id="Shape" fill="#E0E0E0" fill-rule="nonzero" points="163.062626 153.523232 167.894949 133.49899 174.109091 145.236364 170.888889 154.905051"></polygon>
            <path d="M180.553535,159.507071 C180.553535,159.507071 180.553535,190.808081 184.694949,193.111111" id="Shape" fill="#000000" fill-rule="nonzero" opacity="0.1"></path>
            <path d="M121.171717,167.317172 C121.171717,167.317172 111.616162,198.145455 114.30303,201.373737" id="Shape" fill="#000000" fill-rule="nonzero" opacity="0.1"></path>
            <path d="M119.329293,209.680808 C119.329293,209.680808 137.745455,221.721212 140.274747,221.915152" id="Shape" fill="#000000" fill-rule="nonzero" opacity="0.1"></path>
            <path d="M146.719192,112.323232 C146.719192,112.323232 146.791919,115.018182 146.541414,118.262626 C150.344463,127.258659 159.806023,132.487636 169.446465,130.921212 C169.325253,127.474747 169.983838,124.020202 172.036364,121.066667 C179.393939,110.480808 146.719192,112.323232 146.719192,112.323232 Z" id="Shape" fill="#000000" fill-rule="nonzero" opacity="0.1"></path>
            <circle id="Oval" fill="#BE7C5E" fill-rule="nonzero" cx="165.591919" cy="108.181818" r="21.1757576"></circle>
            <path d="M179.026263,99.2808081 C181.591919,99.6242424 184.860606,98.7676768 185.353535,96.230303 C185.979798,93.0181818 181.684848,90.9333333 181.022222,87.7454545 C180.771717,86.5333333 181.070707,85.2888889 180.925253,84.0727273 C180.638384,81.6161616 178.650505,79.7252525 176.630303,78.2989899 C170.233149,73.8121835 162.452217,71.739177 154.670707,72.4484848 C153.709091,72.5414141 152.694949,72.6949495 151.951515,73.3090909 C151.107071,74.0040404 150.779798,75.1313131 150.20202,76.0646465 C148.214141,79.2727273 143.737374,79.6525253 140.557576,81.6525253 C136.812121,83.9919192 134.961616,88.5858586 134.791919,92.9979798 C134.622222,97.410101 135.882828,101.737374 137.127273,105.971717 C138.185859,109.575758 139.29697,113.272727 141.620202,116.222222 C143.943434,119.171717 147.80202,121.232323 151.446465,120.343434 C149.773737,119.131313 150.989899,116.339394 152.8,115.361616 C154.610101,114.383838 156.840404,114.214141 158.412121,112.856566 C159.983838,111.49899 160.432323,109.284848 160.929293,107.268687 C161.567677,104.723232 162.488889,102.145455 164.343434,100.286869 C167.987879,96.610101 174.545455,98.6787879 179.026263,99.2808081 Z" id="Shape" fill="#000000" fill-rule="nonzero" opacity="0.1"></path>
            <path d="M178.585859,98.820202 C181.151515,99.1636364 184.420202,98.3070707 184.913131,95.769697 C185.539394,92.5575758 181.244444,90.4727273 180.581818,87.2848485 C180.331313,86.0727273 180.630303,84.8282828 180.484848,83.6121212 C180.177778,81.1353535 178.181818,79.2363636 176.161616,77.8181818 C169.768277,73.3327422 161.9921,71.2584269 154.214141,71.9636364 C153.252525,72.0565657 152.238384,72.210101 151.494949,72.8242424 C150.650505,73.5191919 150.323232,74.6464646 149.745455,75.579798 C147.757576,78.7878788 143.280808,79.1676768 140.10101,81.1676768 C136.355556,83.5070707 134.505051,88.1010101 134.335354,92.5131313 C134.165657,96.9252525 135.426263,101.252525 136.670707,105.486869 C137.729293,109.090909 138.840404,112.787879 141.163636,115.737374 C143.486869,118.686869 147.345455,120.747475 150.989899,119.858586 C149.317172,118.646465 150.533333,115.854545 152.343434,114.876768 C154.153535,113.89899 156.383838,113.729293 157.955556,112.371717 C159.527273,111.014141 159.975758,108.8 160.472727,106.783838 C161.111111,104.238384 162.032323,101.660606 163.886869,99.8020202 C167.527273,96.1616162 174.10101,98.2262626 178.585859,98.820202 Z" id="Shape" fill="#000000" fill-rule="nonzero"></path>
            <path d="M161.931313,111.038384 C161.620202,113.228283 160.929293,117.018182 159.628283,119.410101 C157.909324,122.521334 156.439411,125.76379 155.232323,129.107071 C155.232323,129.107071 163.717172,135.672727 168.020202,140.157576 C170.719017,143.030391 174.856814,144.043858 178.577778,142.743434 C180.824242,141.935354 182.791919,140.347475 183.313131,137.393939 C184.121212,132.727273 183.159596,129.208081 182.238384,127.123232 C181.345226,125.129601 181.339353,122.850734 182.222222,120.852525 C182.541414,120.145455 182.913131,119.59596 183.329293,119.454545 C183.329293,119.454545 175.042424,117.612121 174.581818,119.915152 C174.121212,122.218182 167.676768,124.517172 166.294949,120.375758 L165.915152,111.240404 C165.87177,110.169746 164.990728,109.324374 163.919192,109.325253 C162.920888,109.317455 162.071009,110.049872 161.931313,111.038384 Z" id="Shape" fill="#000000" fill-rule="nonzero" opacity="0.1"></path>
            <path d="M161.931253,111.498975 C161.620145,113.688854 160.929242,117.47872 159.628244,119.870617 C157.9093,122.981823 156.4394,126.22425 155.232323,129.567501 C155.232323,129.567501 163.717096,136.133099 168.020088,140.617907 C170.718879,143.490697 174.85664,144.504155 178.57757,143.203743 C180.824015,142.395669 182.791674,140.807805 183.312881,137.854296 C184.120955,133.187671 183.159347,129.66851 182.238143,127.58368 C181.336331,125.587186 181.326047,123.301394 182.209861,121.296867 C182.52905,120.589803 182.900764,120.040313 183.316922,119.8989 C183.316922,119.8989 175.030127,118.056492 174.569525,120.359502 C174.108923,122.662512 167.676657,124.981683 166.28273,120.852427 L165.902935,111.717155 C165.859554,110.646506 164.97852,109.801142 163.906993,109.80202 C162.918607,109.799145 162.077603,110.521479 161.931253,111.498975 Z" id="Shape" fill="#000000" fill-rule="nonzero"></path>
            <path d="M326.464646,242.468687 C326.464646,242.468687 318.145455,234.141414 315.086869,223.074747 L315.80202,223.074747 L315.458586,222.113131 L315.80202,222.113131 L314.719192,219.034343 C317.785859,216.020202 320.052525,213.09899 320.420202,211.438384 C321.042424,208.642424 321.660606,193.515152 322.036364,183.00202 L322.367677,183.082828 C323.175758,181.70101 323.345455,179.959596 323.288889,178.379798 C323.319455,176.605252 323.090781,174.83575 322.610101,173.127273 L321.111111,158.117172 C320.819566,155.326487 319.395483,152.777744 317.171717,151.066667 L301.979798,139.280808 C302.779339,138.202384 303.794872,137.30244 304.961616,136.638384 C305.830303,136.177778 306.840404,135.862626 307.426263,135.074747 C308.484848,133.648485 307.583838,131.523232 308.307071,129.89899 C308.848485,128.686869 310.181818,128.008081 310.961616,126.921212 C312.557576,124.694949 311.40202,121.620202 310.210101,119.155556 L303.284848,104.840404 C301.365657,100.876768 299.430303,96.8808081 296.747475,93.389899 C288.533333,82.6909091 272.727273,77.369697 259.842424,82.0080808 C256.169697,83.3292929 252.787879,85.8666667 251.220202,89.4383838 C250.674747,90.6828283 250.347475,92.040404 249.555556,93.1434343 C247.789899,95.6040404 244.343434,96.0686869 241.878788,97.8383838 C238.731313,100.113131 237.563636,104.39596 238.00404,108.254545 C238.444444,112.113131 240.214141,115.676768 241.959596,119.163636 C243.793939,122.8 245.688889,126.545455 248.69899,129.30101 C250.105051,130.589899 251.826263,131.785859 252.274747,133.640404 C252.658586,135.232323 251.979798,136.872727 252.121212,138.521212 C252.180204,139.2069 252.381087,139.872838 252.711111,140.476768 C245.911111,141.329293 241.086869,146.977778 238.925253,155.381818 C238.791919,155.90303 238.739394,156.189899 238.739394,156.189899 L237.781818,164.892929 C237.761616,165.268687 237.781818,165.632323 237.781818,165.991919 C237.694869,167.950123 238.112238,169.897849 238.993939,171.648485 L238.993939,202.206061 L209.90303,220.622222 C205.539394,222.561616 206.509091,238.072727 215.236364,240.977778 C223.963636,243.882828 231.725253,225.49899 231.725253,225.49899 C237.038384,225.143434 245.975758,218.056566 250.779798,212.569697 C251.429075,213.617704 252.292354,214.516782 253.313131,215.208081 C249.846465,223.022222 242.989899,239.187879 244.084848,242.468687 C244.743434,244.448485 261.769697,244.630303 280.173737,244.242424 C280.644364,244.503958 281.138021,244.721708 281.648485,244.892929 C283.612121,245.547475 285.527273,245.119192 287.305051,244.064646 C307.216162,243.494949 326.464646,242.468687 326.464646,242.468687 Z M301.894949,183.216162 C302.29899,182.09697 303.624242,181.486869 305.39798,181.19596 L305.39798,192.981818 L301.894949,183.216162 Z M300.20202,141.80202 L300.258586,141.717172 L300.20202,141.80202 Z" id="Shape" fill="url(#linearGradient-18)" fill-rule="nonzero"></path>
            <path d="M256.509091,168.484848 C256.509091,168.484848 255.587879,201.167677 254.666667,205.313131 C253.745455,209.458586 240.40404,221.862626 233.490909,222.343434 C233.490909,222.343434 226.125253,239.834343 217.838384,237.074747 C209.551515,234.315152 208.630303,219.583838 212.775758,217.741414 L240.40404,200.246465 L240.40404,165.260606 L256.509091,168.484848 Z" id="Shape" fill="#FDB797" fill-rule="nonzero"></path>
            <path d="M255.818182,208.529293 C255.818182,208.529293 243.850505,234.307071 245.232323,238.452525 C246.614141,242.59798 323.486869,238.452525 323.486869,238.452525 C323.486869,238.452525 309.216162,224.181818 311.979798,208.529293 L255.818182,208.529293 Z" id="Shape" fill="#3AD29F" fill-rule="nonzero"></path>
            <path d="M265.026263,132.117172 C265.026263,132.117172 266.868687,150.068687 263.644444,154.214141 C260.420202,158.359596 276.533333,160.678788 277.915152,160.678788 C279.29697,160.678788 294.028283,155.616162 296.787879,154.214141 C299.547475,152.812121 301.850505,142.707071 301.850505,142.707071 C301.850505,142.707071 288.040404,145.470707 283.89899,129.373737 L265.026263,132.117172 Z" id="Shape" fill="#FDB797" fill-rule="nonzero"></path>
            <path d="M260.20202,86.0646465 C256.715152,87.3212121 253.49899,89.7292929 252.012121,93.1232323 C251.494949,94.3030303 251.183838,95.5919192 250.432323,96.6424242 C248.755556,98.9777778 245.482828,99.4181818 243.159596,101.086869 C240.169697,103.248485 239.062626,107.313131 239.478788,110.981818 C239.894949,114.650505 241.575758,118.032323 243.232323,121.329293 C244.973737,124.791919 246.775758,128.339394 249.632323,130.957576 C250.965657,132.169697 252.60202,133.317172 253.026263,135.078788 C253.389899,136.589899 252.747475,138.169697 252.880808,139.717172 C253.212121,143.543434 257.785859,145.325253 261.60404,145.749495 C263.264646,145.935354 265.163636,145.943434 266.335354,144.751515 C266.933333,144.137374 267.236364,143.305051 267.612121,142.537374 C269.383749,138.952008 273.020248,136.666782 277.019227,136.625819 C281.018207,136.584857 284.700754,138.795111 286.545455,142.343434 C287.442424,144.064646 287.963636,146.157576 289.591919,147.191919 C292.084848,148.808081 295.422222,146.913131 297.268687,144.577778 C299.115152,142.242424 300.440404,139.325253 303.062626,137.923232 C303.870707,137.482828 304.848485,137.187879 305.406061,136.436364 C306.412121,135.082828 305.555556,133.062626 306.242424,131.523232 C306.759596,130.363636 308.024242,129.729293 308.763636,128.694949 C310.278788,126.581818 309.167677,123.660606 308.048485,121.321212 L301.470707,107.725253 C299.648485,103.959596 297.810101,100.165657 295.264646,96.8484848 C287.446465,86.7151515 272.436364,81.6606061 260.20202,86.0646465 Z" id="Shape" fill="#D6E2F3" fill-rule="nonzero"></path>
            <path d="M276.993939,157.434343 C276.993939,157.434343 294.945455,157.434343 299.551515,140.868687 L314.662626,152.585859 C316.771254,154.220581 318.115314,156.650116 318.379798,159.305051 L319.806061,173.559596 C319.806061,173.559596 321.422222,178.852525 319.575758,182.076768 C319.575758,182.076768 300.472727,177.228283 300.012121,182.767677 L313.345455,220.052525 C313.345455,220.052525 292.630303,220.513131 287.107071,216.820202 C287.107071,216.820202 264.549495,221.422222 259.026263,216.359596 C253.50303,211.29697 247.979798,211.757576 252.561616,200.246465 C252.561616,200.246465 243.353535,191.038384 247.49899,178.149495 C251.644444,165.260606 247.729293,178.379798 247.729293,178.379798 C247.729293,178.379798 238.787879,174.008081 239.248485,165.70101 L240.169697,157.414141 C240.169697,157.414141 240.218182,157.139394 240.347475,156.646465 C243.155556,145.737374 250.694949,139.676768 261.29697,143.539394 C264.39596,144.662626 267.563636,143.373737 267.563636,143.373737 C267.563636,143.373737 264.105051,158.355556 276.993939,157.434343 Z" id="Shape" fill="#000000" fill-rule="nonzero" opacity="0.1"></path>
            <path d="M276.993939,156.513131 C276.993939,156.513131 294.945455,156.513131 299.551515,139.947475 L314.662626,151.664646 C316.771254,153.299369 318.115314,155.728903 318.379798,158.383838 L319.806061,172.638384 C319.806061,172.638384 321.422222,177.931313 319.575758,181.155556 C319.575758,181.155556 300.472727,176.307071 300.012121,181.846465 L313.345455,219.131313 C313.345455,219.131313 292.630303,219.591919 287.107071,215.89899 C287.107071,215.89899 264.549495,220.50101 259.026263,215.438384 C253.50303,210.375758 247.979798,210.836364 252.561616,199.325253 C252.561616,199.325253 243.353535,190.117172 247.49899,177.228283 C251.644444,164.339394 247.729293,177.458586 247.729293,177.458586 C247.729293,177.458586 238.787879,173.086869 239.248485,164.8 L240.169697,156.513131 C240.169697,156.513131 240.218182,156.238384 240.347475,155.745455 C243.155556,144.836364 250.694949,138.775758 261.29697,142.638384 C264.39596,143.761616 267.563636,142.472727 267.563636,142.472727 C267.563636,142.472727 264.105051,157.434343 276.993939,156.513131 Z" id="Shape" fill="#252A62" fill-rule="nonzero"></path>
            <path d="M319.575758,172.165657 C319.575758,172.165657 318.654545,204.848485 317.733333,208.993939 C316.812121,213.139394 303.462626,225.559596 296.557576,226.024242 C296.557576,226.024242 289.191919,243.515152 280.905051,240.755556 C272.618182,237.99596 271.69697,223.264646 275.842424,221.422222 L303.462626,203.931313 L303.462626,168.933333 L319.575758,172.165657 Z" id="Shape" fill="#FDB797" fill-rule="nonzero"></path>
            <path d="M299.79798,173.317172 C299.79798,173.317172 310.383838,180.50101 319.59596,179.90303 C319.59596,179.90303 320.517172,167.563636 317.753535,166.872727 C314.989899,166.181818 303.00202,166.872727 299.79798,173.317172 Z" id="Shape" fill="#000000" fill-rule="nonzero" opacity="0.1"></path>
            <path d="M299.79798,172.856566 C299.79798,172.856566 310.383838,180.040404 319.59596,179.442424 C319.59596,179.442424 320.517172,167.10303 317.753535,166.412121 C314.989899,165.721212 303.00202,166.412121 299.79798,172.856566 Z" id="Shape" fill="#252A62" fill-rule="nonzero"></path>
            <path d="M284.820202,130.274747 L265.947475,133.038384 C265.947475,133.038384 266.371717,137.191919 266.456566,141.963636 C273.943683,145.121266 282.577215,143.717924 288.678788,138.351515 C287.086869,136.408081 285.725253,133.781818 284.820202,130.274747 Z" id="Shape" fill="#000000" fill-rule="nonzero" opacity="0.1"></path>
            <circle id="Oval" fill="#FDB797" fill-rule="nonzero" cx="273.773737" cy="121.531313" r="21.1757576"></circle>
            <path d="M279.353535,117.458586 C278.451468,117.797703 277.48619,117.9356 276.525253,117.862626 C272.781145,117.838384 269.038384,117.703704 265.29697,117.458586 C262.468687,117.268687 259.438384,116.933333 257.252525,115.119192 C254.311111,112.694949 253.846465,108.10101 255.365657,104.593939 C256.884848,101.086869 259.983838,98.5010101 263.256566,96.5131313 C265.104958,95.3472014 267.10666,94.4442597 269.20404,93.830303 C275.264646,92.1818182 281.987879,94.2060606 286.808081,98.2464646 C291.628283,102.286869 294.70303,108.121212 296.331313,114.19798 C296.892929,116.29899 297.616162,118.80404 299.69697,119.450505 C298.311111,121.753535 294.929293,122.121212 292.505051,120.965657 C288.925253,119.264646 287.090909,112.751515 283.878788,111.725253 C280.294949,110.573737 282.379798,116.068687 279.353535,117.458586 Z" id="Shape" fill="#000000" fill-rule="nonzero" opacity="0.1"></path>
            <path d="M279.353535,116.99798 C278.451468,117.337097 277.48619,117.474994 276.525253,117.40202 C272.781145,117.377778 269.038384,117.243098 265.29697,116.99798 C262.468687,116.808081 259.438384,116.472727 257.252525,114.658586 C254.311111,112.234343 253.846465,107.640404 255.365657,104.133333 C256.884848,100.626263 259.983838,98.040404 263.256566,96.0525253 C265.104148,94.8897529 267.104449,93.9895497 269.2,93.3777778 C275.260606,91.7292929 281.983838,93.7535354 286.80404,97.7939394 C291.624242,101.834343 294.69899,107.668687 296.327273,113.745455 C296.888889,115.846465 297.612121,118.351515 299.692929,118.99798 C298.307071,121.30101 294.925253,121.668687 292.50101,120.513131 C288.921212,118.812121 287.086869,112.29899 283.874747,111.272727 C280.294949,110.113131 282.379798,115.6 279.353535,116.99798 Z" id="Shape" fill="#D6E2F3" fill-rule="nonzero"></path>
            <path d="M252.367677,199.094949 C259.27199,197.250189 266.388846,196.321018 273.535354,196.331313" id="Shape" fill="#000000" fill-rule="nonzero" opacity="0.1"></path>
            <path d="M299.79798,174.238384 C299.79798,174.238384 292.892929,179.30101 294.735354,182.064646" id="Shape" fill="#000000" fill-rule="nonzero" opacity="0.1"></path>
            <g id="Group" opacity="0.7" transform="translate(120.808081, 224.242424)" fill="url(#linearGradient-19)" fill-rule="nonzero">
                <polygon id="Shape" points="226.387879 0.16969697 0.363636364 0.16969697 0.363636364 19.9353535 13.5191919 19.9353535 13.5191919 23.789899 13.5191919 82.1090909 213.70101 82.1090909 213.70101 23.789899 213.70101 19.9353535 226.387879 19.9353535"></polygon>
            </g>
            <rect id="Rectangle-path" fill="#E0E0E0" fill-rule="nonzero" x="136.363636" y="235.923232" width="196.10101" height="70.4323232"></rect>
            <rect id="Rectangle-path" fill="#000000" fill-rule="nonzero" opacity="0.1" x="136.363636" y="239.60404" width="196.10101" height="11.0464646"></rect>
            <rect id="Rectangle-path" fill="#E0E0E0" fill-rule="nonzero" x="123.474747" y="228.09697" width="221.418182" height="18.8727273"></rect>
            <rect id="Rectangle-path" fill="#535461" fill-rule="nonzero" x="155.208081" y="223.450505" width="42.3515152" height="5.98383838" rx="2.99191919"></rect>
            <g id="Group" opacity="0.7" transform="translate(180.606061, 156.363636)" fill="url(#linearGradient-20)" fill-rule="nonzero">
                <rect id="Rectangle-path" x="0.37979798" y="0.367676768" width="105.260606" height="72.779798" rx="28.22"></rect>
            </g>
            <rect id="Rectangle-path" fill="#3E3F49" fill-rule="nonzero" x="182.860606" y="158.072727" width="99.7131313" height="71.4343434" rx="26.84"></rect>
            <rect id="Rectangle-path" fill="#535461" fill-rule="nonzero" x="184.242424" y="158.072727" width="99.7131313" height="71.4343434" rx="26.84"></rect>
            <circle id="Oval" fill="#E0E0E0" fill-rule="nonzero" cx="238.755556" cy="193.30101" r="3.22424242"></circle>
            <path d="M106.90101,237.30101 C106.90101,237.30101 109.624242,241.29697 117.70101,242.521212" id="Shape" fill="#000000" fill-rule="nonzero" opacity="0.1"></path>
            <path d="M178.989899,32.3232323 L150.30303,32.3232323 L150.30303,16.1616162 L178.989899,16.1616162 L178.989899,32.3232323 Z M151.515152,31.1111111 L177.777778,31.1111111 L177.777778,17.3737374 L151.515152,17.3737374 L151.515152,31.1111111 Z" id="Shape" fill="#D6E2F3" fill-rule="nonzero" opacity="0.2"></path>
            <path d="M207.676768,32.3232323 L178.989899,32.3232323 L178.989899,16.1616162 L207.676768,16.1616162 L207.676768,32.3232323 Z M180.20202,31.1111111 L206.464646,31.1111111 L206.464646,17.3737374 L180.20202,17.3737374 L180.20202,31.1111111 Z" id="Shape" fill="#D6E2F3" fill-rule="nonzero" opacity="0.2"></path>
            <path d="M236.363636,32.3232323 L207.676768,32.3232323 L207.676768,16.1616162 L236.363636,16.1616162 L236.363636,32.3232323 Z M208.888889,31.1111111 L235.151515,31.1111111 L235.151515,17.3737374 L208.888889,17.3737374 L208.888889,31.1111111 Z" id="Shape" fill="#D6E2F3" fill-rule="nonzero" opacity="0.2"></path>
            <path d="M265.050505,32.3232323 L236.363636,32.3232323 L236.363636,16.1616162 L265.050505,16.1616162 L265.050505,32.3232323 Z M237.575758,31.1111111 L263.838384,31.1111111 L263.838384,17.3737374 L237.575758,17.3737374 L237.575758,31.1111111 Z" id="Shape" fill="#D6E2F3" fill-rule="nonzero" opacity="0.2"></path>
            <path d="M236.363636,16.1616162 L207.676768,16.1616162 L207.676768,0 L236.363636,0 L236.363636,16.1616162 Z M208.888889,14.9494949 L235.151515,14.9494949 L235.151515,1.21212121 L208.888889,1.21212121 L208.888889,14.9494949 Z" id="Shape" fill="#D6E2F3" fill-rule="nonzero" opacity="0.2"></path>
            <path d="M207.676768,16.1616162 L178.989899,16.1616162 L178.989899,0 L207.676768,0 L207.676768,16.1616162 Z M180.20202,14.9494949 L206.464646,14.9494949 L206.464646,1.21212121 L180.20202,1.21212121 L180.20202,14.9494949 Z" id="Shape" fill="#D6E2F3" fill-rule="nonzero" opacity="0.2"></path>
            <path d="M72.7272727,32.3232323 L44.040404,32.3232323 L44.040404,16.1616162 L72.7272727,16.1616162 L72.7272727,32.3232323 Z M45.2525253,31.1111111 L71.5151515,31.1111111 L71.5151515,17.3737374 L45.2525253,17.3737374 L45.2525253,31.1111111 Z" id="Shape" fill="#D6E2F3" fill-rule="nonzero" opacity="0.2"></path>
            <path d="M101.414141,32.3232323 L72.7272727,32.3232323 L72.7272727,16.1616162 L101.414141,16.1616162 L101.414141,32.3232323 Z M73.9393939,31.1111111 L100.20202,31.1111111 L100.20202,17.3737374 L73.9393939,17.3737374 L73.9393939,31.1111111 Z" id="Shape" fill="#D6E2F3" fill-rule="nonzero" opacity="0.2"></path>
            <path d="M101.414141,16.1616162 L72.7272727,16.1616162 L72.7272727,0 L101.414141,0 L101.414141,16.1616162 Z M73.9393939,14.9494949 L100.20202,14.9494949 L100.20202,1.21212121 L73.9393939,1.21212121 L73.9393939,14.9494949 Z" id="Shape" fill="#D6E2F3" fill-rule="nonzero" opacity="0.2"></path>
            <path d="M323.232323,32.3232323 L294.545455,32.3232323 L294.545455,16.1616162 L323.232323,16.1616162 L323.232323,32.3232323 Z M295.757576,31.1111111 L322.020202,31.1111111 L322.020202,17.3737374 L295.757576,17.3737374 L295.757576,31.1111111 Z" id="Shape" fill="#D6E2F3" fill-rule="nonzero" opacity="0.2"></path>
            <path d="M351.919192,32.3232323 L323.232323,32.3232323 L323.232323,16.1616162 L351.919192,16.1616162 L351.919192,32.3232323 Z M324.444444,31.1111111 L350.707071,31.1111111 L350.707071,17.3737374 L324.444444,17.3737374 L324.444444,31.1111111 Z" id="Shape" fill="#D6E2F3" fill-rule="nonzero" opacity="0.2"></path>
            <path d="M351.919192,16.1616162 L323.232323,16.1616162 L323.232323,0 L351.919192,0 L351.919192,16.1616162 Z M324.444444,14.9494949 L350.707071,14.9494949 L350.707071,1.21212121 L324.444444,1.21212121 L324.444444,14.9494949 Z" id="Shape" fill="#D6E2F3" fill-rule="nonzero" opacity="0.2"></path>
        </g>
    </g>
</svg>